%TF.GenerationSoftware,KiCad,Pcbnew,(7.0.0)*%
%TF.CreationDate,2023-04-01T11:09:39+07:00*%
%TF.ProjectId,gut-kontrol-1kW,6775742d-6b6f-46e7-9472-6f6c2d316b57,rev?*%
%TF.SameCoordinates,Original*%
%TF.FileFunction,Soldermask,Top*%
%TF.FilePolarity,Negative*%
%FSLAX46Y46*%
G04 Gerber Fmt 4.6, Leading zero omitted, Abs format (unit mm)*
G04 Created by KiCad (PCBNEW (7.0.0)) date 2023-04-01 11:09:39*
%MOMM*%
%LPD*%
G01*
G04 APERTURE LIST*
G04 Aperture macros list*
%AMRoundRect*
0 Rectangle with rounded corners*
0 $1 Rounding radius*
0 $2 $3 $4 $5 $6 $7 $8 $9 X,Y pos of 4 corners*
0 Add a 4 corners polygon primitive as box body*
4,1,4,$2,$3,$4,$5,$6,$7,$8,$9,$2,$3,0*
0 Add four circle primitives for the rounded corners*
1,1,$1+$1,$2,$3*
1,1,$1+$1,$4,$5*
1,1,$1+$1,$6,$7*
1,1,$1+$1,$8,$9*
0 Add four rect primitives between the rounded corners*
20,1,$1+$1,$2,$3,$4,$5,0*
20,1,$1+$1,$4,$5,$6,$7,0*
20,1,$1+$1,$6,$7,$8,$9,0*
20,1,$1+$1,$8,$9,$2,$3,0*%
%AMFreePoly0*
4,1,17,1.174443,2.785355,2.785356,1.174443,2.800000,1.139088,2.800000,-1.139088,2.785356,-1.174443,1.174443,-2.785355,1.139088,-2.800000,-1.139088,-2.800000,-1.174443,-2.785356,-2.785355,-1.174443,-2.800000,-1.139088,-2.800000,1.139088,-2.785354,1.174443,-1.174443,2.785356,-1.139088,2.800000,1.139088,2.800000,1.174443,2.785355,1.174443,2.785355,$1*%
%AMFreePoly1*
4,1,13,0.937855,0.985355,0.952500,0.950000,0.952500,-0.950000,0.937855,-0.985355,0.902500,-1.000000,-0.902500,-1.000000,-0.937855,-0.985355,-0.952500,-0.950000,-0.952500,0.950000,-0.937855,0.985355,-0.902500,1.000000,0.902500,1.000000,0.937855,0.985355,0.937855,0.985355,$1*%
%AMFreePoly2*
4,1,17,0.409183,0.985355,0.937855,0.456683,0.952500,0.421328,0.952500,-0.421328,0.937855,-0.456683,0.409183,-0.985355,0.373828,-1.000000,-0.373828,-1.000000,-0.409183,-0.985355,-0.937855,-0.456683,-0.952500,-0.421328,-0.952500,0.421328,-0.937855,0.456683,-0.409183,0.985355,-0.373828,1.000000,0.373828,1.000000,0.409183,0.985355,0.409183,0.985355,$1*%
%AMFreePoly3*
4,1,14,0.735355,0.735355,0.750000,0.700000,0.750000,-0.700000,0.735355,-0.735355,0.700000,-0.750000,0.000000,-0.750000,-0.700000,-0.750000,-0.735355,-0.735355,-0.750000,-0.700000,-0.750000,0.700000,-0.735355,0.735355,-0.700000,0.750000,0.700000,0.750000,0.735355,0.735355,0.735355,0.735355,$1*%
%AMFreePoly4*
4,1,18,0.325305,0.735355,0.735355,0.325305,0.750000,0.289950,0.750000,-0.289950,0.735355,-0.325306,0.325305,-0.735355,0.289950,-0.750000,0.000000,-0.750000,-0.289950,-0.750000,-0.325306,-0.735355,-0.735355,-0.325305,-0.750000,-0.289950,-0.750000,0.289950,-0.735355,0.325305,-0.325306,0.735355,-0.289950,0.750000,0.289950,0.750000,0.325305,0.735355,0.325305,0.735355,$1*%
%AMFreePoly5*
4,1,18,0.180331,0.385355,0.385355,0.180330,0.400000,0.144975,0.400000,-0.144975,0.385355,-0.180331,0.180330,-0.385355,0.144975,-0.400000,0.000000,-0.400000,-0.144975,-0.400000,-0.180330,-0.385354,-0.385355,-0.180330,-0.400000,-0.144975,-0.400000,0.144975,-0.385355,0.180331,-0.180330,0.385355,-0.144975,0.400000,0.144975,0.400000,0.180331,0.385355,0.180331,0.385355,$1*%
%AMFreePoly6*
4,1,17,3.272004,2.985355,4.485355,1.772004,4.500000,1.736649,4.500000,-1.736649,4.485355,-1.772005,3.272004,-2.985355,3.236649,-3.000000,-3.236649,-3.000000,-3.272005,-2.985355,-4.485355,-1.772004,-4.500000,-1.736649,-4.500000,1.736649,-4.485354,1.772004,-3.272005,2.985355,-3.236649,3.000000,3.236649,3.000000,3.272004,2.985355,3.272004,2.985355,$1*%
%AMFreePoly7*
4,1,13,0.835355,0.835355,0.850000,0.800000,0.850000,-0.800000,0.835355,-0.835355,0.800000,-0.850000,-0.800000,-0.850000,-0.835355,-0.835355,-0.850000,-0.800000,-0.850000,0.800000,-0.835355,0.835355,-0.800000,0.850000,0.800000,0.850000,0.835355,0.835355,0.835355,0.835355,$1*%
%AMFreePoly8*
4,1,17,0.366726,0.835355,0.835355,0.366726,0.850000,0.331371,0.850000,-0.331371,0.835355,-0.366727,0.366726,-0.835355,0.331371,-0.850000,-0.331371,-0.850000,-0.366727,-0.835355,-0.835355,-0.366726,-0.850000,-0.331371,-0.850000,0.331371,-0.835355,0.366726,-0.366727,0.835355,-0.331371,0.850000,0.331371,0.850000,0.366726,0.835355,0.366726,0.835355,$1*%
%AMFreePoly9*
4,1,13,1.185355,1.185355,1.200000,1.150000,1.200000,-1.150000,1.185355,-1.185355,1.150000,-1.200000,-1.150000,-1.200000,-1.185355,-1.185355,-1.200000,-1.150000,-1.200000,1.150000,-1.185355,1.185355,-1.150000,1.200000,1.150000,1.200000,1.185355,1.185355,1.185355,1.185355,$1*%
%AMFreePoly10*
4,1,17,0.511701,1.185355,1.185356,0.511701,1.200000,0.476346,1.200000,-0.476346,1.185356,-0.511701,0.511701,-1.185355,0.476346,-1.200000,-0.476346,-1.200000,-0.511701,-1.185356,-1.185355,-0.511701,-1.200000,-0.476346,-1.200000,0.476346,-1.185354,0.511701,-0.511701,1.185356,-0.476346,1.200000,0.476346,1.200000,0.511701,1.185355,0.511701,1.185355,$1*%
G04 Aperture macros list end*
%ADD10RoundRect,0.250000X0.337500X0.475000X-0.337500X0.475000X-0.337500X-0.475000X0.337500X-0.475000X0*%
%ADD11C,3.200000*%
%ADD12RoundRect,0.250000X-0.350000X-0.450000X0.350000X-0.450000X0.350000X0.450000X-0.350000X0.450000X0*%
%ADD13RoundRect,0.250000X0.450000X-0.350000X0.450000X0.350000X-0.450000X0.350000X-0.450000X-0.350000X0*%
%ADD14FreePoly0,0.000000*%
%ADD15FreePoly1,0.000000*%
%ADD16FreePoly2,0.000000*%
%ADD17FreePoly3,270.000000*%
%ADD18FreePoly4,270.000000*%
%ADD19FreePoly5,335.000000*%
%ADD20FreePoly5,205.000000*%
%ADD21FreePoly5,270.000000*%
%ADD22FreePoly6,270.000000*%
%ADD23RoundRect,0.250000X-0.337500X-0.475000X0.337500X-0.475000X0.337500X0.475000X-0.337500X0.475000X0*%
%ADD24RoundRect,0.250000X0.350000X0.450000X-0.350000X0.450000X-0.350000X-0.450000X0.350000X-0.450000X0*%
%ADD25R,1.800000X2.500000*%
%ADD26FreePoly7,90.000000*%
%ADD27FreePoly8,90.000000*%
%ADD28R,1.700000X1.700000*%
%ADD29O,1.700000X1.700000*%
%ADD30RoundRect,0.150000X-0.150000X0.875000X-0.150000X-0.875000X0.150000X-0.875000X0.150000X0.875000X0*%
%ADD31FreePoly9,0.000000*%
%ADD32FreePoly10,0.000000*%
%ADD33C,1.800000*%
%ADD34C,2.850000*%
G04 APERTURE END LIST*
D10*
%TO.C,C1*%
X60749000Y-96266000D03*
X58674000Y-96266000D03*
%TD*%
D11*
%TO.C,REF\u002A\u002A*%
X55000000Y-124000000D03*
%TD*%
D12*
%TO.C,R17*%
X78530000Y-62230000D03*
X80530000Y-62230000D03*
%TD*%
D13*
%TO.C,R6*%
X79577000Y-105317064D03*
X79577000Y-103317064D03*
%TD*%
D14*
%TO.C,J1*%
X64200000Y-57000000D03*
%TD*%
D15*
%TO.C,Q1*%
X55850000Y-90390000D03*
D16*
X58390000Y-90390000D03*
X60930000Y-90390000D03*
%TD*%
D17*
%TO.C,U5*%
X72675000Y-70100000D03*
D18*
X72675000Y-72010000D03*
X72675000Y-73920000D03*
D19*
X94705000Y-73060000D03*
D20*
X93445000Y-73060000D03*
D21*
X95735000Y-73810000D03*
X92415000Y-73810000D03*
X96125000Y-75010000D03*
X92025000Y-75010000D03*
X96125000Y-76340000D03*
X92025000Y-76340000D03*
D22*
X94075000Y-77010000D03*
D21*
X96125000Y-77680000D03*
X92025000Y-77680000D03*
X96125000Y-79010000D03*
X92025000Y-79010000D03*
X95735000Y-80210000D03*
X92415000Y-80210000D03*
X94705000Y-80960000D03*
X93445000Y-80960000D03*
X94705000Y-63060000D03*
X93445000Y-63060000D03*
X95735000Y-63810000D03*
X92415000Y-63810000D03*
X96125000Y-65010000D03*
X92025000Y-65010000D03*
X96125000Y-66340000D03*
X92025000Y-66340000D03*
D22*
X94075000Y-67010000D03*
D21*
X96125000Y-67680000D03*
X92025000Y-67680000D03*
X96125000Y-69010000D03*
X92025000Y-69010000D03*
X95735000Y-70210000D03*
X92415000Y-70210000D03*
D20*
X94705000Y-70960000D03*
D19*
X93445000Y-70960000D03*
%TD*%
D23*
%TO.C,C15*%
X75952500Y-59690000D03*
X78027500Y-59690000D03*
%TD*%
D24*
%TO.C,R12*%
X90690000Y-93964000D03*
X88690000Y-93964000D03*
%TD*%
D25*
%TO.C,D3*%
X113025531Y-102122935D03*
X113025531Y-106122935D03*
%TD*%
D15*
%TO.C,Q3*%
X85850000Y-90390000D03*
D16*
X88390000Y-90390000D03*
X90930000Y-90390000D03*
%TD*%
D24*
%TO.C,R13*%
X103390000Y-93964000D03*
X101390000Y-93964000D03*
%TD*%
D13*
%TO.C,R7*%
X109925532Y-105300000D03*
X109925532Y-103300000D03*
%TD*%
D25*
%TO.C,D2*%
X82676999Y-102139999D03*
X82676999Y-106139999D03*
%TD*%
D12*
%TO.C,R18*%
X108530000Y-62230000D03*
X110530000Y-62230000D03*
%TD*%
D13*
%TO.C,R9*%
X98580000Y-96234000D03*
X98580000Y-94234000D03*
%TD*%
D26*
%TO.C,J10*%
X108275000Y-55915000D03*
D27*
X110815000Y-55915000D03*
X113355000Y-55915000D03*
%TD*%
D23*
%TO.C,C14*%
X45952500Y-59690000D03*
X48027500Y-59690000D03*
%TD*%
D15*
%TO.C,Q2*%
X68550000Y-90390000D03*
D16*
X71090000Y-90390000D03*
X73630000Y-90390000D03*
%TD*%
D23*
%TO.C,C16*%
X105952500Y-59690000D03*
X108027500Y-59690000D03*
%TD*%
D13*
%TO.C,R2*%
X55880000Y-96234000D03*
X55880000Y-94234000D03*
%TD*%
D10*
%TO.C,C5*%
X90742500Y-96164000D03*
X88667500Y-96164000D03*
%TD*%
D14*
%TO.C,J4*%
X44000000Y-86000000D03*
%TD*%
D10*
%TO.C,C6*%
X120742500Y-96164000D03*
X118667500Y-96164000D03*
%TD*%
D15*
%TO.C,Q6*%
X128550000Y-90390000D03*
D16*
X131090000Y-90390000D03*
X133630000Y-90390000D03*
%TD*%
D13*
%TO.C,R11*%
X128580000Y-96234000D03*
X128580000Y-94234000D03*
%TD*%
D28*
%TO.C,J7*%
X77469999Y-126491999D03*
D29*
X80009999Y-126491999D03*
X82549999Y-126491999D03*
X85089999Y-126491999D03*
X87629999Y-126491999D03*
X90169999Y-126491999D03*
X92709999Y-126491999D03*
X95249999Y-126491999D03*
X97789999Y-126491999D03*
X100329999Y-126491999D03*
X102869999Y-126491999D03*
X105409999Y-126491999D03*
%TD*%
D14*
%TO.C,J3*%
X124200000Y-57000000D03*
%TD*%
D30*
%TO.C,U1*%
X66975000Y-100114000D03*
X65705000Y-100114000D03*
X64435000Y-100114000D03*
X63165000Y-100114000D03*
X61895000Y-100114000D03*
X60625000Y-100114000D03*
X59355000Y-100114000D03*
X58085000Y-100114000D03*
X58085000Y-109414000D03*
X59355000Y-109414000D03*
X60625000Y-109414000D03*
X61895000Y-109414000D03*
X63165000Y-109414000D03*
X64435000Y-109414000D03*
X65705000Y-109414000D03*
X66975000Y-109414000D03*
%TD*%
D10*
%TO.C,C11*%
X52875000Y-59055000D03*
X50800000Y-59055000D03*
%TD*%
D31*
%TO.C,C10*%
X143000000Y-121000000D03*
D32*
X150500000Y-121000000D03*
%TD*%
D15*
%TO.C,Q4*%
X98550000Y-90390000D03*
D16*
X101090000Y-90390000D03*
X103630000Y-90390000D03*
%TD*%
D24*
%TO.C,R14*%
X120690000Y-93964000D03*
X118690000Y-93964000D03*
%TD*%
D26*
%TO.C,J8*%
X48275000Y-55915000D03*
D27*
X50815000Y-55915000D03*
X53355000Y-55915000D03*
%TD*%
D13*
%TO.C,R10*%
X115880000Y-96234000D03*
X115880000Y-94234000D03*
%TD*%
D33*
%TO.C,U7*%
X42545000Y-120015000D03*
X42545000Y-109015000D03*
D34*
X47545000Y-117015000D03*
X47545000Y-112015000D03*
%TD*%
D14*
%TO.C,J2*%
X94200000Y-57000000D03*
%TD*%
D17*
%TO.C,U6*%
X102675000Y-70100000D03*
D18*
X102675000Y-72010000D03*
X102675000Y-73920000D03*
D19*
X124705000Y-73060000D03*
D20*
X123445000Y-73060000D03*
D21*
X125735000Y-73810000D03*
X122415000Y-73810000D03*
X126125000Y-75010000D03*
X122025000Y-75010000D03*
X126125000Y-76340000D03*
X122025000Y-76340000D03*
D22*
X124075000Y-77010000D03*
D21*
X126125000Y-77680000D03*
X122025000Y-77680000D03*
X126125000Y-79010000D03*
X122025000Y-79010000D03*
X125735000Y-80210000D03*
X122415000Y-80210000D03*
X124705000Y-80960000D03*
X123445000Y-80960000D03*
X124705000Y-63060000D03*
X123445000Y-63060000D03*
X125735000Y-63810000D03*
X122415000Y-63810000D03*
X126125000Y-65010000D03*
X122025000Y-65010000D03*
X126125000Y-66340000D03*
X122025000Y-66340000D03*
D22*
X124075000Y-67010000D03*
D21*
X126125000Y-67680000D03*
X122025000Y-67680000D03*
X126125000Y-69010000D03*
X122025000Y-69010000D03*
X125735000Y-70210000D03*
X122415000Y-70210000D03*
D20*
X124705000Y-70960000D03*
D19*
X123445000Y-70960000D03*
%TD*%
D31*
%TO.C,C9*%
X143000000Y-101000000D03*
D32*
X150500000Y-101000000D03*
%TD*%
D25*
%TO.C,D1*%
X54924935Y-100962935D03*
X54924935Y-104962935D03*
%TD*%
D24*
%TO.C,R15*%
X133390000Y-93964000D03*
X131390000Y-93964000D03*
%TD*%
D23*
%TO.C,C2*%
X57962500Y-112404000D03*
X60037500Y-112404000D03*
%TD*%
D26*
%TO.C,J9*%
X78275000Y-55915000D03*
D27*
X80815000Y-55915000D03*
X83355000Y-55915000D03*
%TD*%
D14*
%TO.C,J5*%
X44000000Y-95885000D03*
%TD*%
D13*
%TO.C,R3*%
X68580000Y-96234000D03*
X68580000Y-94234000D03*
%TD*%
D30*
%TO.C,U4*%
X126975000Y-100114000D03*
X125705000Y-100114000D03*
X124435000Y-100114000D03*
X123165000Y-100114000D03*
X121895000Y-100114000D03*
X120625000Y-100114000D03*
X119355000Y-100114000D03*
X118085000Y-100114000D03*
X118085000Y-109414000D03*
X119355000Y-109414000D03*
X120625000Y-109414000D03*
X121895000Y-109414000D03*
X123165000Y-109414000D03*
X124435000Y-109414000D03*
X125705000Y-109414000D03*
X126975000Y-109414000D03*
%TD*%
D13*
%TO.C,R8*%
X85880000Y-96234000D03*
X85880000Y-94234000D03*
%TD*%
D30*
%TO.C,U3*%
X96975000Y-100114000D03*
X95705000Y-100114000D03*
X94435000Y-100114000D03*
X93165000Y-100114000D03*
X91895000Y-100114000D03*
X90625000Y-100114000D03*
X89355000Y-100114000D03*
X88085000Y-100114000D03*
X88085000Y-109414000D03*
X89355000Y-109414000D03*
X90625000Y-109414000D03*
X91895000Y-109414000D03*
X93165000Y-109414000D03*
X94435000Y-109414000D03*
X95705000Y-109414000D03*
X96975000Y-109414000D03*
%TD*%
D11*
%TO.C,REF\u002A\u002A*%
X133000000Y-123000000D03*
%TD*%
D10*
%TO.C,C13*%
X112875000Y-59055000D03*
X110800000Y-59055000D03*
%TD*%
D24*
%TO.C,R5*%
X73390000Y-93964000D03*
X71390000Y-93964000D03*
%TD*%
D23*
%TO.C,C3*%
X87962500Y-112404000D03*
X90037500Y-112404000D03*
%TD*%
D13*
%TO.C,R1*%
X51824936Y-104140000D03*
X51824936Y-102140000D03*
%TD*%
D23*
%TO.C,C4*%
X116558500Y-112400000D03*
X118633500Y-112400000D03*
%TD*%
D31*
%TO.C,C7*%
X143000000Y-61000000D03*
D32*
X150500000Y-61000000D03*
%TD*%
D24*
%TO.C,R4*%
X60690000Y-93964000D03*
X58690000Y-93964000D03*
%TD*%
D10*
%TO.C,C12*%
X82875000Y-59055000D03*
X80800000Y-59055000D03*
%TD*%
D15*
%TO.C,Q5*%
X115850000Y-90390000D03*
D16*
X118390000Y-90390000D03*
X120930000Y-90390000D03*
%TD*%
D31*
%TO.C,C8*%
X143000000Y-81000000D03*
D32*
X150500000Y-81000000D03*
%TD*%
D12*
%TO.C,R16*%
X48530000Y-62230000D03*
X50530000Y-62230000D03*
%TD*%
D17*
%TO.C,U2*%
X42675000Y-70100000D03*
D18*
X42675000Y-72010000D03*
X42675000Y-73920000D03*
D19*
X64705000Y-73060000D03*
D20*
X63445000Y-73060000D03*
D21*
X65735000Y-73810000D03*
X62415000Y-73810000D03*
X66125000Y-75010000D03*
X62025000Y-75010000D03*
X66125000Y-76340000D03*
X62025000Y-76340000D03*
D22*
X64075000Y-77010000D03*
D21*
X66125000Y-77680000D03*
X62025000Y-77680000D03*
X66125000Y-79010000D03*
X62025000Y-79010000D03*
X65735000Y-80210000D03*
X62415000Y-80210000D03*
X64705000Y-80960000D03*
X63445000Y-80960000D03*
X64705000Y-63060000D03*
X63445000Y-63060000D03*
X65735000Y-63810000D03*
X62415000Y-63810000D03*
X66125000Y-65010000D03*
X62025000Y-65010000D03*
X66125000Y-66340000D03*
X62025000Y-66340000D03*
D22*
X64075000Y-67010000D03*
D21*
X66125000Y-67680000D03*
X62025000Y-67680000D03*
X66125000Y-69010000D03*
X62025000Y-69010000D03*
X65735000Y-70210000D03*
X62415000Y-70210000D03*
D20*
X64705000Y-70960000D03*
D19*
X63445000Y-70960000D03*
%TD*%
G36*
X145937000Y-58016881D02*
G01*
X145983119Y-58063000D01*
X146000000Y-58126000D01*
X146000000Y-126874000D01*
X145983119Y-126937000D01*
X145937000Y-126983119D01*
X145874000Y-127000000D01*
X140126000Y-127000000D01*
X140063000Y-126983119D01*
X140016881Y-126937000D01*
X140000000Y-126874000D01*
X140000000Y-58126000D01*
X140016881Y-58063000D01*
X140063000Y-58016881D01*
X140126000Y-58000000D01*
X145874000Y-58000000D01*
X145937000Y-58016881D01*
G37*
G36*
X62487051Y-88138147D02*
G01*
X62502445Y-88138892D01*
X62514582Y-88140070D01*
X62526825Y-88141860D01*
X62538802Y-88144209D01*
X62550810Y-88147174D01*
X62562476Y-88150661D01*
X62574141Y-88154771D01*
X62585434Y-88159375D01*
X62596661Y-88164600D01*
X62607453Y-88170274D01*
X62618101Y-88176547D01*
X62628296Y-88183238D01*
X62638307Y-88190525D01*
X62647801Y-88198164D01*
X62657049Y-88206373D01*
X62665769Y-88214902D01*
X62674181Y-88223968D01*
X62682030Y-88233295D01*
X62689530Y-88243136D01*
X62696444Y-88253182D01*
X62702960Y-88263706D01*
X62708868Y-88274368D01*
X62714332Y-88285463D01*
X62719182Y-88296646D01*
X62723546Y-88308211D01*
X62727292Y-88319807D01*
X62730524Y-88331760D01*
X62733134Y-88343671D01*
X62734713Y-88353023D01*
X62731998Y-88407274D01*
X62706698Y-88455342D01*
X62663513Y-88488291D01*
X62610471Y-88500000D01*
X62468029Y-88500000D01*
X62456275Y-88502592D01*
X62450659Y-88513238D01*
X61950662Y-90331410D01*
X61925338Y-90379413D01*
X61882172Y-90412311D01*
X61829172Y-90424000D01*
X60042378Y-90424000D01*
X59988489Y-90411894D01*
X59944954Y-90377904D01*
X59920140Y-90328560D01*
X59466389Y-88513558D01*
X59460914Y-88502671D01*
X59449022Y-88500000D01*
X59309441Y-88500000D01*
X59255892Y-88488055D01*
X59212496Y-88454483D01*
X59187481Y-88405652D01*
X59185592Y-88350819D01*
X59187746Y-88339311D01*
X59190525Y-88327592D01*
X59193906Y-88315863D01*
X59197789Y-88304468D01*
X59202280Y-88293100D01*
X59207229Y-88282135D01*
X59212776Y-88271262D01*
X59218756Y-88260808D01*
X59225321Y-88250506D01*
X59232268Y-88240674D01*
X59239789Y-88231042D01*
X59247632Y-88221930D01*
X59256027Y-88213069D01*
X59264724Y-88204728D01*
X59273938Y-88196700D01*
X59283374Y-88189239D01*
X59293298Y-88182136D01*
X59303415Y-88175603D01*
X59313994Y-88169467D01*
X59324685Y-88163931D01*
X59335768Y-88158848D01*
X59346924Y-88154362D01*
X59358480Y-88150345D01*
X59370033Y-88146939D01*
X59381890Y-88144051D01*
X59393713Y-88141764D01*
X59405806Y-88140019D01*
X59417784Y-88138871D01*
X59432990Y-88138144D01*
X59439007Y-88138000D01*
X62480960Y-88138000D01*
X62487051Y-88138147D01*
G37*
G36*
X122487051Y-88138147D02*
G01*
X122502445Y-88138892D01*
X122514582Y-88140070D01*
X122526825Y-88141860D01*
X122538802Y-88144209D01*
X122550810Y-88147174D01*
X122562476Y-88150661D01*
X122574141Y-88154771D01*
X122585434Y-88159375D01*
X122596661Y-88164600D01*
X122607453Y-88170274D01*
X122618101Y-88176547D01*
X122628296Y-88183238D01*
X122638307Y-88190525D01*
X122647801Y-88198164D01*
X122657049Y-88206373D01*
X122665769Y-88214902D01*
X122674181Y-88223968D01*
X122682030Y-88233295D01*
X122689530Y-88243136D01*
X122696444Y-88253182D01*
X122702960Y-88263706D01*
X122708868Y-88274368D01*
X122714332Y-88285463D01*
X122719182Y-88296646D01*
X122723546Y-88308211D01*
X122727292Y-88319807D01*
X122730524Y-88331760D01*
X122733134Y-88343671D01*
X122734713Y-88353023D01*
X122731998Y-88407274D01*
X122706698Y-88455342D01*
X122663513Y-88488291D01*
X122610471Y-88500000D01*
X122468029Y-88500000D01*
X122456275Y-88502592D01*
X122450659Y-88513238D01*
X121950662Y-90331410D01*
X121925338Y-90379413D01*
X121882172Y-90412311D01*
X121829172Y-90424000D01*
X120042378Y-90424000D01*
X119988489Y-90411894D01*
X119944954Y-90377904D01*
X119920140Y-90328560D01*
X119466389Y-88513558D01*
X119460914Y-88502671D01*
X119449022Y-88500000D01*
X119309441Y-88500000D01*
X119255892Y-88488055D01*
X119212496Y-88454483D01*
X119187481Y-88405652D01*
X119185592Y-88350819D01*
X119187746Y-88339311D01*
X119190525Y-88327592D01*
X119193906Y-88315863D01*
X119197789Y-88304468D01*
X119202280Y-88293100D01*
X119207229Y-88282135D01*
X119212776Y-88271262D01*
X119218756Y-88260808D01*
X119225321Y-88250506D01*
X119232268Y-88240674D01*
X119239789Y-88231042D01*
X119247632Y-88221930D01*
X119256027Y-88213069D01*
X119264724Y-88204728D01*
X119273938Y-88196700D01*
X119283374Y-88189239D01*
X119293298Y-88182136D01*
X119303415Y-88175603D01*
X119313994Y-88169467D01*
X119324685Y-88163931D01*
X119335768Y-88158848D01*
X119346924Y-88154362D01*
X119358480Y-88150345D01*
X119370033Y-88146939D01*
X119381890Y-88144051D01*
X119393713Y-88141764D01*
X119405806Y-88140019D01*
X119417784Y-88138871D01*
X119432990Y-88138144D01*
X119439007Y-88138000D01*
X122480960Y-88138000D01*
X122487051Y-88138147D01*
G37*
G36*
X67437000Y-74016881D02*
G01*
X67483119Y-74063000D01*
X67500000Y-74126000D01*
X67500000Y-81773992D01*
X67502849Y-81786646D01*
X67510851Y-81796863D01*
X69587625Y-83493159D01*
X69596626Y-83498238D01*
X69606816Y-83500000D01*
X78374000Y-83500000D01*
X78437000Y-83516881D01*
X78483119Y-83563000D01*
X78500000Y-83626000D01*
X78500000Y-88374000D01*
X78483119Y-88437000D01*
X78437000Y-88483119D01*
X78374000Y-88500000D01*
X72644539Y-88500000D01*
X72632785Y-88502592D01*
X72627169Y-88513238D01*
X72586422Y-88661410D01*
X72561098Y-88709413D01*
X72517932Y-88742311D01*
X72464932Y-88754000D01*
X69752061Y-88754000D01*
X69698172Y-88741894D01*
X69654637Y-88707904D01*
X69629823Y-88658560D01*
X69593572Y-88513558D01*
X69588097Y-88502671D01*
X69576205Y-88500000D01*
X62468029Y-88500000D01*
X62456275Y-88502592D01*
X62450659Y-88513238D01*
X62409912Y-88661410D01*
X62384588Y-88709413D01*
X62341422Y-88742311D01*
X62288422Y-88754000D01*
X59624878Y-88754000D01*
X59570989Y-88741894D01*
X59527454Y-88707904D01*
X59502640Y-88658560D01*
X59466389Y-88513558D01*
X59460914Y-88502671D01*
X59449022Y-88500000D01*
X50626000Y-88500000D01*
X50563000Y-88483119D01*
X50516881Y-88437000D01*
X50500000Y-88374000D01*
X50500000Y-83626000D01*
X50516881Y-83563000D01*
X50563000Y-83516881D01*
X50626000Y-83500000D01*
X58408949Y-83500000D01*
X58419329Y-83498165D01*
X58428454Y-83492880D01*
X60442488Y-81796809D01*
X60450230Y-81786724D01*
X60453032Y-81774324D01*
X60499243Y-74125239D01*
X60516376Y-74062561D01*
X60562461Y-74016754D01*
X60625241Y-74000000D01*
X67374000Y-74000000D01*
X67437000Y-74016881D01*
G37*
G36*
X47437000Y-82516881D02*
G01*
X47483119Y-82563000D01*
X47500000Y-82626000D01*
X47500000Y-89374000D01*
X47483119Y-89437000D01*
X47437000Y-89483119D01*
X47374000Y-89500000D01*
X40626000Y-89500000D01*
X40563000Y-89483119D01*
X40516881Y-89437000D01*
X40500000Y-89374000D01*
X40500000Y-82626000D01*
X40516881Y-82563000D01*
X40563000Y-82516881D01*
X40626000Y-82500000D01*
X47374000Y-82500000D01*
X47437000Y-82516881D01*
G37*
G36*
X47577000Y-92706881D02*
G01*
X47623119Y-92753000D01*
X47640000Y-92816000D01*
X47640000Y-99564000D01*
X47623119Y-99627000D01*
X47577000Y-99673119D01*
X47514000Y-99690000D01*
X40131000Y-99690000D01*
X40068000Y-99673119D01*
X40021881Y-99627000D01*
X40005000Y-99564000D01*
X40005000Y-92816000D01*
X40021881Y-92753000D01*
X40068000Y-92706881D01*
X40131000Y-92690000D01*
X47514000Y-92690000D01*
X47577000Y-92706881D01*
G37*
G36*
X97437000Y-53016881D02*
G01*
X97483119Y-53063000D01*
X97500000Y-53126000D01*
X97500000Y-69874000D01*
X97483119Y-69937000D01*
X97437000Y-69983119D01*
X97374000Y-70000000D01*
X90626000Y-70000000D01*
X90563000Y-69983119D01*
X90516881Y-69937000D01*
X90500000Y-69874000D01*
X90500000Y-53126000D01*
X90516881Y-53063000D01*
X90563000Y-53016881D01*
X90626000Y-53000000D01*
X97374000Y-53000000D01*
X97437000Y-53016881D01*
G37*
G36*
X127437000Y-53016881D02*
G01*
X127483119Y-53063000D01*
X127500000Y-53126000D01*
X127500000Y-69874000D01*
X127483119Y-69937000D01*
X127437000Y-69983119D01*
X127374000Y-70000000D01*
X120626000Y-70000000D01*
X120563000Y-69983119D01*
X120516881Y-69937000D01*
X120500000Y-69874000D01*
X120500000Y-53126000D01*
X120516881Y-53063000D01*
X120563000Y-53016881D01*
X120626000Y-53000000D01*
X127374000Y-53000000D01*
X127437000Y-53016881D01*
G37*
G36*
X92487051Y-88138147D02*
G01*
X92502445Y-88138892D01*
X92514582Y-88140070D01*
X92526825Y-88141860D01*
X92538802Y-88144209D01*
X92550810Y-88147174D01*
X92562476Y-88150661D01*
X92574141Y-88154771D01*
X92585434Y-88159375D01*
X92596661Y-88164600D01*
X92607453Y-88170274D01*
X92618101Y-88176547D01*
X92628296Y-88183238D01*
X92638307Y-88190525D01*
X92647801Y-88198164D01*
X92657049Y-88206373D01*
X92665769Y-88214902D01*
X92674181Y-88223968D01*
X92682030Y-88233295D01*
X92689530Y-88243136D01*
X92696444Y-88253182D01*
X92702960Y-88263706D01*
X92708868Y-88274368D01*
X92714332Y-88285463D01*
X92719182Y-88296646D01*
X92723546Y-88308211D01*
X92727292Y-88319807D01*
X92730524Y-88331760D01*
X92733134Y-88343671D01*
X92734713Y-88353023D01*
X92731998Y-88407274D01*
X92706698Y-88455342D01*
X92663513Y-88488291D01*
X92610471Y-88500000D01*
X92468029Y-88500000D01*
X92456275Y-88502592D01*
X92450659Y-88513238D01*
X91950662Y-90331410D01*
X91925338Y-90379413D01*
X91882172Y-90412311D01*
X91829172Y-90424000D01*
X90042378Y-90424000D01*
X89988489Y-90411894D01*
X89944954Y-90377904D01*
X89920140Y-90328560D01*
X89466389Y-88513558D01*
X89460914Y-88502671D01*
X89449022Y-88500000D01*
X89309441Y-88500000D01*
X89255892Y-88488055D01*
X89212496Y-88454483D01*
X89187481Y-88405652D01*
X89185592Y-88350819D01*
X89187746Y-88339311D01*
X89190525Y-88327592D01*
X89193906Y-88315863D01*
X89197789Y-88304468D01*
X89202280Y-88293100D01*
X89207229Y-88282135D01*
X89212776Y-88271262D01*
X89218756Y-88260808D01*
X89225321Y-88250506D01*
X89232268Y-88240674D01*
X89239789Y-88231042D01*
X89247632Y-88221930D01*
X89256027Y-88213069D01*
X89264724Y-88204728D01*
X89273938Y-88196700D01*
X89283374Y-88189239D01*
X89293298Y-88182136D01*
X89303415Y-88175603D01*
X89313994Y-88169467D01*
X89324685Y-88163931D01*
X89335768Y-88158848D01*
X89346924Y-88154362D01*
X89358480Y-88150345D01*
X89370033Y-88146939D01*
X89381890Y-88144051D01*
X89393713Y-88141764D01*
X89405806Y-88140019D01*
X89417784Y-88138871D01*
X89432990Y-88138144D01*
X89439007Y-88138000D01*
X92480960Y-88138000D01*
X92487051Y-88138147D01*
G37*
G36*
X102637723Y-88232102D02*
G01*
X102653117Y-88232847D01*
X102665254Y-88234025D01*
X102677497Y-88235815D01*
X102689474Y-88238164D01*
X102701482Y-88241129D01*
X102713148Y-88244616D01*
X102724813Y-88248726D01*
X102736106Y-88253330D01*
X102747333Y-88258555D01*
X102758146Y-88264241D01*
X102760199Y-88265451D01*
X102805791Y-88311785D01*
X102822220Y-88374679D01*
X102805114Y-88437391D01*
X102759026Y-88483232D01*
X102696222Y-88500000D01*
X102644539Y-88500000D01*
X102632785Y-88502592D01*
X102627169Y-88513238D01*
X102101334Y-90425365D01*
X102076010Y-90473368D01*
X102032844Y-90506266D01*
X101979844Y-90517955D01*
X100193050Y-90517955D01*
X100139161Y-90505849D01*
X100095626Y-90471859D01*
X100070812Y-90422515D01*
X99593572Y-88513559D01*
X99588097Y-88502671D01*
X99576205Y-88500000D01*
X99525153Y-88500000D01*
X99462202Y-88483148D01*
X99416091Y-88437099D01*
X99399153Y-88374171D01*
X99415920Y-88311198D01*
X99461906Y-88265024D01*
X99464637Y-88263439D01*
X99475357Y-88257886D01*
X99486440Y-88252803D01*
X99497596Y-88248317D01*
X99509152Y-88244300D01*
X99520705Y-88240894D01*
X99532562Y-88238006D01*
X99544385Y-88235719D01*
X99556478Y-88233974D01*
X99568456Y-88232826D01*
X99583662Y-88232099D01*
X99589679Y-88231955D01*
X102631632Y-88231955D01*
X102637723Y-88232102D01*
G37*
G36*
X72637723Y-88232102D02*
G01*
X72653117Y-88232847D01*
X72665254Y-88234025D01*
X72677497Y-88235815D01*
X72689474Y-88238164D01*
X72701482Y-88241129D01*
X72713148Y-88244616D01*
X72724813Y-88248726D01*
X72736106Y-88253330D01*
X72747333Y-88258555D01*
X72758146Y-88264241D01*
X72760199Y-88265451D01*
X72805791Y-88311785D01*
X72822220Y-88374679D01*
X72805114Y-88437391D01*
X72759026Y-88483232D01*
X72696222Y-88500000D01*
X72644539Y-88500000D01*
X72632785Y-88502592D01*
X72627169Y-88513238D01*
X72101334Y-90425365D01*
X72076010Y-90473368D01*
X72032844Y-90506266D01*
X71979844Y-90517955D01*
X70193050Y-90517955D01*
X70139161Y-90505849D01*
X70095626Y-90471859D01*
X70070812Y-90422515D01*
X69593572Y-88513559D01*
X69588097Y-88502671D01*
X69576205Y-88500000D01*
X69525153Y-88500000D01*
X69462202Y-88483148D01*
X69416091Y-88437099D01*
X69399153Y-88374171D01*
X69415920Y-88311198D01*
X69461906Y-88265024D01*
X69464637Y-88263439D01*
X69475357Y-88257886D01*
X69486440Y-88252803D01*
X69497596Y-88248317D01*
X69509152Y-88244300D01*
X69520705Y-88240894D01*
X69532562Y-88238006D01*
X69544385Y-88235719D01*
X69556478Y-88233974D01*
X69568456Y-88232826D01*
X69583662Y-88232099D01*
X69589679Y-88231955D01*
X72631632Y-88231955D01*
X72637723Y-88232102D01*
G37*
G36*
X67437000Y-53016881D02*
G01*
X67483119Y-53063000D01*
X67500000Y-53126000D01*
X67500000Y-69874000D01*
X67483119Y-69937000D01*
X67437000Y-69983119D01*
X67374000Y-70000000D01*
X60626000Y-70000000D01*
X60563000Y-69983119D01*
X60516881Y-69937000D01*
X60500000Y-69874000D01*
X60500000Y-53126000D01*
X60516881Y-53063000D01*
X60563000Y-53016881D01*
X60626000Y-53000000D01*
X67374000Y-53000000D01*
X67437000Y-53016881D01*
G37*
G36*
X132637723Y-88232102D02*
G01*
X132653117Y-88232847D01*
X132665254Y-88234025D01*
X132677497Y-88235815D01*
X132689474Y-88238164D01*
X132701482Y-88241129D01*
X132713148Y-88244616D01*
X132724813Y-88248726D01*
X132736106Y-88253330D01*
X132747333Y-88258555D01*
X132758146Y-88264241D01*
X132760199Y-88265451D01*
X132805791Y-88311785D01*
X132822220Y-88374679D01*
X132805114Y-88437391D01*
X132759026Y-88483232D01*
X132696222Y-88500000D01*
X132644539Y-88500000D01*
X132632785Y-88502592D01*
X132627169Y-88513238D01*
X132101334Y-90425365D01*
X132076010Y-90473368D01*
X132032844Y-90506266D01*
X131979844Y-90517955D01*
X130193050Y-90517955D01*
X130139161Y-90505849D01*
X130095626Y-90471859D01*
X130070812Y-90422515D01*
X129593572Y-88513559D01*
X129588097Y-88502671D01*
X129576205Y-88500000D01*
X129525153Y-88500000D01*
X129462202Y-88483148D01*
X129416091Y-88437099D01*
X129399153Y-88374171D01*
X129415920Y-88311198D01*
X129461906Y-88265024D01*
X129464637Y-88263439D01*
X129475357Y-88257886D01*
X129486440Y-88252803D01*
X129497596Y-88248317D01*
X129509152Y-88244300D01*
X129520705Y-88240894D01*
X129532562Y-88238006D01*
X129544385Y-88235719D01*
X129556478Y-88233974D01*
X129568456Y-88232826D01*
X129583662Y-88232099D01*
X129589679Y-88231955D01*
X132631632Y-88231955D01*
X132637723Y-88232102D01*
G37*
G36*
X127437000Y-74016881D02*
G01*
X127483119Y-74063000D01*
X127500000Y-74126000D01*
X127500000Y-81773992D01*
X127502849Y-81786646D01*
X127510851Y-81796863D01*
X129587625Y-83493159D01*
X129596626Y-83498238D01*
X129606816Y-83500000D01*
X138374000Y-83500000D01*
X138437000Y-83516881D01*
X138483119Y-83563000D01*
X138500000Y-83626000D01*
X138500000Y-88374000D01*
X138483119Y-88437000D01*
X138437000Y-88483119D01*
X138374000Y-88500000D01*
X132644539Y-88500000D01*
X132632785Y-88502592D01*
X132627169Y-88513238D01*
X132586422Y-88661410D01*
X132561098Y-88709413D01*
X132517932Y-88742311D01*
X132464932Y-88754000D01*
X129752061Y-88754000D01*
X129698172Y-88741894D01*
X129654637Y-88707904D01*
X129629823Y-88658560D01*
X129593572Y-88513558D01*
X129588097Y-88502671D01*
X129576205Y-88500000D01*
X122468029Y-88500000D01*
X122456275Y-88502592D01*
X122450659Y-88513238D01*
X122409912Y-88661410D01*
X122384588Y-88709413D01*
X122341422Y-88742311D01*
X122288422Y-88754000D01*
X119624878Y-88754000D01*
X119570989Y-88741894D01*
X119527454Y-88707904D01*
X119502640Y-88658560D01*
X119466389Y-88513558D01*
X119460914Y-88502671D01*
X119449022Y-88500000D01*
X110626000Y-88500000D01*
X110563000Y-88483119D01*
X110516881Y-88437000D01*
X110500000Y-88374000D01*
X110500000Y-83626000D01*
X110516881Y-83563000D01*
X110563000Y-83516881D01*
X110626000Y-83500000D01*
X118408949Y-83500000D01*
X118419329Y-83498165D01*
X118428454Y-83492880D01*
X120442488Y-81796809D01*
X120450230Y-81786724D01*
X120453032Y-81774324D01*
X120499243Y-74125239D01*
X120516376Y-74062561D01*
X120562461Y-74016754D01*
X120625241Y-74000000D01*
X127374000Y-74000000D01*
X127437000Y-74016881D01*
G37*
G36*
X97437000Y-74016881D02*
G01*
X97483119Y-74063000D01*
X97500000Y-74126000D01*
X97500000Y-81773992D01*
X97502849Y-81786646D01*
X97510851Y-81796863D01*
X99587625Y-83493159D01*
X99596626Y-83498238D01*
X99606816Y-83500000D01*
X108374000Y-83500000D01*
X108437000Y-83516881D01*
X108483119Y-83563000D01*
X108500000Y-83626000D01*
X108500000Y-88374000D01*
X108483119Y-88437000D01*
X108437000Y-88483119D01*
X108374000Y-88500000D01*
X102644539Y-88500000D01*
X102632785Y-88502592D01*
X102627169Y-88513238D01*
X102586422Y-88661410D01*
X102561098Y-88709413D01*
X102517932Y-88742311D01*
X102464932Y-88754000D01*
X99752061Y-88754000D01*
X99698172Y-88741894D01*
X99654637Y-88707904D01*
X99629823Y-88658560D01*
X99593572Y-88513558D01*
X99588097Y-88502671D01*
X99576205Y-88500000D01*
X92468029Y-88500000D01*
X92456275Y-88502592D01*
X92450659Y-88513238D01*
X92409912Y-88661410D01*
X92384588Y-88709413D01*
X92341422Y-88742311D01*
X92288422Y-88754000D01*
X89624878Y-88754000D01*
X89570989Y-88741894D01*
X89527454Y-88707904D01*
X89502640Y-88658560D01*
X89466389Y-88513558D01*
X89460914Y-88502671D01*
X89449022Y-88500000D01*
X80626000Y-88500000D01*
X80563000Y-88483119D01*
X80516881Y-88437000D01*
X80500000Y-88374000D01*
X80500000Y-83626000D01*
X80516881Y-83563000D01*
X80563000Y-83516881D01*
X80626000Y-83500000D01*
X88408949Y-83500000D01*
X88419329Y-83498165D01*
X88428454Y-83492880D01*
X90442488Y-81796809D01*
X90450230Y-81786724D01*
X90453032Y-81774324D01*
X90499243Y-74125239D01*
X90516376Y-74062561D01*
X90562461Y-74016754D01*
X90625241Y-74000000D01*
X97374000Y-74000000D01*
X97437000Y-74016881D01*
G37*
M02*
