%TF.GenerationSoftware,KiCad,Pcbnew,(7.0.0)*%
%TF.CreationDate,2023-04-01T11:09:39+07:00*%
%TF.ProjectId,gut-kontrol-1kW,6775742d-6b6f-46e7-9472-6f6c2d316b57,rev?*%
%TF.SameCoordinates,Original*%
%TF.FileFunction,Copper,L2,Bot*%
%TF.FilePolarity,Positive*%
%FSLAX46Y46*%
G04 Gerber Fmt 4.6, Leading zero omitted, Abs format (unit mm)*
G04 Created by KiCad (PCBNEW (7.0.0)) date 2023-04-01 11:09:39*
%MOMM*%
%LPD*%
G01*
G04 APERTURE LIST*
G04 Aperture macros list*
%AMFreePoly0*
4,1,17,1.174443,2.785355,2.785356,1.174443,2.800000,1.139088,2.800000,-1.139088,2.785356,-1.174443,1.174443,-2.785355,1.139088,-2.800000,-1.139088,-2.800000,-1.174443,-2.785356,-2.785355,-1.174443,-2.800000,-1.139088,-2.800000,1.139088,-2.785354,1.174443,-1.174443,2.785356,-1.139088,2.800000,1.139088,2.800000,1.174443,2.785355,1.174443,2.785355,$1*%
%AMFreePoly1*
4,1,13,0.937855,0.985355,0.952500,0.950000,0.952500,-0.950000,0.937855,-0.985355,0.902500,-1.000000,-0.902500,-1.000000,-0.937855,-0.985355,-0.952500,-0.950000,-0.952500,0.950000,-0.937855,0.985355,-0.902500,1.000000,0.902500,1.000000,0.937855,0.985355,0.937855,0.985355,$1*%
%AMFreePoly2*
4,1,17,0.409183,0.985355,0.937855,0.456683,0.952500,0.421328,0.952500,-0.421328,0.937855,-0.456683,0.409183,-0.985355,0.373828,-1.000000,-0.373828,-1.000000,-0.409183,-0.985355,-0.937855,-0.456683,-0.952500,-0.421328,-0.952500,0.421328,-0.937855,0.456683,-0.409183,0.985355,-0.373828,1.000000,0.373828,1.000000,0.409183,0.985355,0.409183,0.985355,$1*%
%AMFreePoly3*
4,1,14,0.735355,0.735355,0.750000,0.700000,0.750000,-0.700000,0.735355,-0.735355,0.700000,-0.750000,0.000000,-0.750000,-0.700000,-0.750000,-0.735355,-0.735355,-0.750000,-0.700000,-0.750000,0.700000,-0.735355,0.735355,-0.700000,0.750000,0.700000,0.750000,0.735355,0.735355,0.735355,0.735355,$1*%
%AMFreePoly4*
4,1,18,0.325305,0.735355,0.735355,0.325305,0.750000,0.289950,0.750000,-0.289950,0.735355,-0.325306,0.325305,-0.735355,0.289950,-0.750000,0.000000,-0.750000,-0.289950,-0.750000,-0.325306,-0.735355,-0.735355,-0.325305,-0.750000,-0.289950,-0.750000,0.289950,-0.735355,0.325305,-0.325306,0.735355,-0.289950,0.750000,0.289950,0.750000,0.325305,0.735355,0.325305,0.735355,$1*%
%AMFreePoly5*
4,1,18,0.180331,0.385355,0.385355,0.180330,0.400000,0.144975,0.400000,-0.144975,0.385355,-0.180331,0.180330,-0.385355,0.144975,-0.400000,0.000000,-0.400000,-0.144975,-0.400000,-0.180330,-0.385354,-0.385355,-0.180330,-0.400000,-0.144975,-0.400000,0.144975,-0.385355,0.180331,-0.180330,0.385355,-0.144975,0.400000,0.144975,0.400000,0.180331,0.385355,0.180331,0.385355,$1*%
%AMFreePoly6*
4,1,17,3.272004,2.985355,4.485355,1.772004,4.500000,1.736649,4.500000,-1.736649,4.485355,-1.772005,3.272004,-2.985355,3.236649,-3.000000,-3.236649,-3.000000,-3.272005,-2.985355,-4.485355,-1.772004,-4.500000,-1.736649,-4.500000,1.736649,-4.485354,1.772004,-3.272005,2.985355,-3.236649,3.000000,3.236649,3.000000,3.272004,2.985355,3.272004,2.985355,$1*%
%AMFreePoly7*
4,1,13,0.835355,0.835355,0.850000,0.800000,0.850000,-0.800000,0.835355,-0.835355,0.800000,-0.850000,-0.800000,-0.850000,-0.835355,-0.835355,-0.850000,-0.800000,-0.850000,0.800000,-0.835355,0.835355,-0.800000,0.850000,0.800000,0.850000,0.835355,0.835355,0.835355,0.835355,$1*%
%AMFreePoly8*
4,1,17,0.366726,0.835355,0.835355,0.366726,0.850000,0.331371,0.850000,-0.331371,0.835355,-0.366727,0.366726,-0.835355,0.331371,-0.850000,-0.331371,-0.850000,-0.366727,-0.835355,-0.835355,-0.366726,-0.850000,-0.331371,-0.850000,0.331371,-0.835355,0.366726,-0.366727,0.835355,-0.331371,0.850000,0.331371,0.850000,0.366726,0.835355,0.366726,0.835355,$1*%
%AMFreePoly9*
4,1,13,1.185355,1.185355,1.200000,1.150000,1.200000,-1.150000,1.185355,-1.185355,1.150000,-1.200000,-1.150000,-1.200000,-1.185355,-1.185355,-1.200000,-1.150000,-1.200000,1.150000,-1.185355,1.185355,-1.150000,1.200000,1.150000,1.200000,1.185355,1.185355,1.185355,1.185355,$1*%
%AMFreePoly10*
4,1,17,0.511701,1.185355,1.185356,0.511701,1.200000,0.476346,1.200000,-0.476346,1.185356,-0.511701,0.511701,-1.185355,0.476346,-1.200000,-0.476346,-1.200000,-0.511701,-1.185356,-1.185355,-0.511701,-1.200000,-0.476346,-1.200000,0.476346,-1.185354,0.511701,-0.511701,1.185356,-0.476346,1.200000,0.476346,1.200000,0.511701,1.185355,0.511701,1.185355,$1*%
G04 Aperture macros list end*
%TA.AperFunction,ComponentPad*%
%ADD10FreePoly0,0.000000*%
%TD*%
%TA.AperFunction,ComponentPad*%
%ADD11FreePoly1,0.000000*%
%TD*%
%TA.AperFunction,ComponentPad*%
%ADD12FreePoly2,0.000000*%
%TD*%
%TA.AperFunction,ComponentPad*%
%ADD13FreePoly3,270.000000*%
%TD*%
%TA.AperFunction,ComponentPad*%
%ADD14FreePoly4,270.000000*%
%TD*%
%TA.AperFunction,ComponentPad*%
%ADD15FreePoly5,335.000000*%
%TD*%
%TA.AperFunction,ComponentPad*%
%ADD16FreePoly5,205.000000*%
%TD*%
%TA.AperFunction,ComponentPad*%
%ADD17FreePoly5,270.000000*%
%TD*%
%TA.AperFunction,ComponentPad*%
%ADD18FreePoly6,270.000000*%
%TD*%
%TA.AperFunction,ComponentPad*%
%ADD19FreePoly7,90.000000*%
%TD*%
%TA.AperFunction,ComponentPad*%
%ADD20FreePoly8,90.000000*%
%TD*%
%TA.AperFunction,ComponentPad*%
%ADD21R,1.700000X1.700000*%
%TD*%
%TA.AperFunction,ComponentPad*%
%ADD22O,1.700000X1.700000*%
%TD*%
%TA.AperFunction,ComponentPad*%
%ADD23FreePoly9,0.000000*%
%TD*%
%TA.AperFunction,ComponentPad*%
%ADD24FreePoly10,0.000000*%
%TD*%
%TA.AperFunction,ComponentPad*%
%ADD25C,1.800000*%
%TD*%
%TA.AperFunction,ComponentPad*%
%ADD26C,2.850000*%
%TD*%
%TA.AperFunction,ViaPad*%
%ADD27C,1.000000*%
%TD*%
%TA.AperFunction,Conductor*%
%ADD28C,0.600000*%
%TD*%
G04 APERTURE END LIST*
D10*
%TO.P,J1,1,Pin_1*%
%TO.N,/PHASE_A_OUT*%
X64200000Y-57000000D03*
%TD*%
D11*
%TO.P,Q1,1,G*%
%TO.N,Net-(Q1-G)*%
X55850000Y-90390000D03*
D12*
%TO.P,Q1,2,D*%
%TO.N,+48V*%
X58390000Y-90390000D03*
%TO.P,Q1,3,S*%
%TO.N,/PHASE_A*%
X60930000Y-90390000D03*
%TD*%
D13*
%TO.P,U5,1,VCC*%
%TO.N,+3V3*%
X72675000Y-70100000D03*
D14*
%TO.P,U5,2,GND*%
%TO.N,GND*%
X72675000Y-72010000D03*
%TO.P,U5,3,VIOUT*%
%TO.N,Net-(U5-VIOUT)*%
X72675000Y-73920000D03*
D15*
%TO.P,U5,4,IP+*%
%TO.N,/PHASE_B*%
X94705000Y-73060000D03*
D16*
X93445000Y-73060000D03*
D17*
X95735000Y-73810000D03*
X92415000Y-73810000D03*
X96125000Y-75010000D03*
X92025000Y-75010000D03*
X96125000Y-76340000D03*
X92025000Y-76340000D03*
D18*
X94075000Y-77010000D03*
D17*
X96125000Y-77680000D03*
X92025000Y-77680000D03*
X96125000Y-79010000D03*
X92025000Y-79010000D03*
X95735000Y-80210000D03*
X92415000Y-80210000D03*
X94705000Y-80960000D03*
X93445000Y-80960000D03*
%TO.P,U5,5,IP-*%
%TO.N,/PHASE_B_OUT*%
X94705000Y-63060000D03*
X93445000Y-63060000D03*
X95735000Y-63810000D03*
X92415000Y-63810000D03*
X96125000Y-65010000D03*
X92025000Y-65010000D03*
X96125000Y-66340000D03*
X92025000Y-66340000D03*
D18*
X94075000Y-67010000D03*
D17*
X96125000Y-67680000D03*
X92025000Y-67680000D03*
X96125000Y-69010000D03*
X92025000Y-69010000D03*
X95735000Y-70210000D03*
X92415000Y-70210000D03*
D16*
X94705000Y-70960000D03*
D15*
X93445000Y-70960000D03*
%TD*%
D11*
%TO.P,Q3,1,G*%
%TO.N,Net-(Q3-G)*%
X85850000Y-90390000D03*
D12*
%TO.P,Q3,2,D*%
%TO.N,+48V*%
X88390000Y-90390000D03*
%TO.P,Q3,3,S*%
%TO.N,/PHASE_B*%
X90930000Y-90390000D03*
%TD*%
D19*
%TO.P,J10,1,Pin_1*%
%TO.N,+3V3*%
X108275000Y-55915000D03*
D20*
%TO.P,J10,2,Pin_2*%
%TO.N,Net-(J10-Pin_2)*%
X110815000Y-55915000D03*
%TO.P,J10,3,Pin_3*%
%TO.N,GND*%
X113355000Y-55915000D03*
%TD*%
D11*
%TO.P,Q2,1,G*%
%TO.N,Net-(Q2-G)*%
X68550000Y-90390000D03*
D12*
%TO.P,Q2,2,D*%
%TO.N,/PHASE_A*%
X71090000Y-90390000D03*
%TO.P,Q2,3,S*%
%TO.N,GND*%
X73630000Y-90390000D03*
%TD*%
D10*
%TO.P,J4,1,Pin_1*%
%TO.N,+48V*%
X44000000Y-86000000D03*
%TD*%
D11*
%TO.P,Q6,1,G*%
%TO.N,Net-(Q6-G)*%
X128550000Y-90390000D03*
D12*
%TO.P,Q6,2,D*%
%TO.N,/PHASE_C*%
X131090000Y-90390000D03*
%TO.P,Q6,3,S*%
%TO.N,GND*%
X133630000Y-90390000D03*
%TD*%
D21*
%TO.P,J7,1,Pin_1*%
%TO.N,+3V3*%
X77469999Y-126491999D03*
D22*
%TO.P,J7,2,Pin_2*%
X80009999Y-126491999D03*
%TO.P,J7,3,Pin_3*%
%TO.N,HIN_A*%
X82549999Y-126491999D03*
%TO.P,J7,4,Pin_4*%
%TO.N,LIN_A*%
X85089999Y-126491999D03*
%TO.P,J7,5,Pin_5*%
%TO.N,HIN_B*%
X87629999Y-126491999D03*
%TO.P,J7,6,Pin_6*%
%TO.N,LIN_B*%
X90169999Y-126491999D03*
%TO.P,J7,7,Pin_7*%
%TO.N,HIN_C*%
X92709999Y-126491999D03*
%TO.P,J7,8,Pin_8*%
%TO.N,LIN_C*%
X95249999Y-126491999D03*
%TO.P,J7,9,Pin_9*%
%TO.N,+3V3*%
X97789999Y-126491999D03*
%TO.P,J7,10,Pin_10*%
X100329999Y-126491999D03*
%TO.P,J7,11,Pin_11*%
%TO.N,GND*%
X102869999Y-126491999D03*
%TO.P,J7,12,Pin_12*%
X105409999Y-126491999D03*
%TD*%
D10*
%TO.P,J3,1,Pin_1*%
%TO.N,/PHASE_C_OUT*%
X124200000Y-57000000D03*
%TD*%
D23*
%TO.P,C10,1*%
%TO.N,+48V*%
X143000000Y-121000000D03*
D24*
%TO.P,C10,2*%
%TO.N,GND*%
X150500000Y-121000000D03*
%TD*%
D11*
%TO.P,Q4,1,G*%
%TO.N,Net-(Q4-G)*%
X98550000Y-90390000D03*
D12*
%TO.P,Q4,2,D*%
%TO.N,/PHASE_B*%
X101090000Y-90390000D03*
%TO.P,Q4,3,S*%
%TO.N,GND*%
X103630000Y-90390000D03*
%TD*%
D19*
%TO.P,J8,1,Pin_1*%
%TO.N,+3V3*%
X48275000Y-55915000D03*
D20*
%TO.P,J8,2,Pin_2*%
%TO.N,Net-(J8-Pin_2)*%
X50815000Y-55915000D03*
%TO.P,J8,3,Pin_3*%
%TO.N,GND*%
X53355000Y-55915000D03*
%TD*%
D25*
%TO.P,U7,HOLD1*%
%TO.N,N/C*%
X42545000Y-120015000D03*
%TO.P,U7,HOLD2*%
X42545000Y-109015000D03*
D26*
%TO.P,U7,P1,-*%
%TO.N,GND*%
X47545000Y-117015000D03*
%TO.P,U7,P2,+*%
%TO.N,+12V*%
X47545000Y-112015000D03*
%TD*%
D10*
%TO.P,J2,1,Pin_1*%
%TO.N,/PHASE_B_OUT*%
X94200000Y-57000000D03*
%TD*%
D13*
%TO.P,U6,1,VCC*%
%TO.N,+3V3*%
X102675000Y-70100000D03*
D14*
%TO.P,U6,2,GND*%
%TO.N,GND*%
X102675000Y-72010000D03*
%TO.P,U6,3,VIOUT*%
%TO.N,Net-(U6-VIOUT)*%
X102675000Y-73920000D03*
D15*
%TO.P,U6,4,IP+*%
%TO.N,/PHASE_C*%
X124705000Y-73060000D03*
D16*
X123445000Y-73060000D03*
D17*
X125735000Y-73810000D03*
X122415000Y-73810000D03*
X126125000Y-75010000D03*
X122025000Y-75010000D03*
X126125000Y-76340000D03*
X122025000Y-76340000D03*
D18*
X124075000Y-77010000D03*
D17*
X126125000Y-77680000D03*
X122025000Y-77680000D03*
X126125000Y-79010000D03*
X122025000Y-79010000D03*
X125735000Y-80210000D03*
X122415000Y-80210000D03*
X124705000Y-80960000D03*
X123445000Y-80960000D03*
%TO.P,U6,5,IP-*%
%TO.N,/PHASE_C_OUT*%
X124705000Y-63060000D03*
X123445000Y-63060000D03*
X125735000Y-63810000D03*
X122415000Y-63810000D03*
X126125000Y-65010000D03*
X122025000Y-65010000D03*
X126125000Y-66340000D03*
X122025000Y-66340000D03*
D18*
X124075000Y-67010000D03*
D17*
X126125000Y-67680000D03*
X122025000Y-67680000D03*
X126125000Y-69010000D03*
X122025000Y-69010000D03*
X125735000Y-70210000D03*
X122415000Y-70210000D03*
D16*
X124705000Y-70960000D03*
D15*
X123445000Y-70960000D03*
%TD*%
D23*
%TO.P,C9,1*%
%TO.N,+48V*%
X143000000Y-101000000D03*
D24*
%TO.P,C9,2*%
%TO.N,GND*%
X150500000Y-101000000D03*
%TD*%
D19*
%TO.P,J9,1,Pin_1*%
%TO.N,+3V3*%
X78275000Y-55915000D03*
D20*
%TO.P,J9,2,Pin_2*%
%TO.N,Net-(J9-Pin_2)*%
X80815000Y-55915000D03*
%TO.P,J9,3,Pin_3*%
%TO.N,GND*%
X83355000Y-55915000D03*
%TD*%
D10*
%TO.P,J5,1,Pin_1*%
%TO.N,GND*%
X44000000Y-95885000D03*
%TD*%
D23*
%TO.P,C7,1*%
%TO.N,+48V*%
X143000000Y-61000000D03*
D24*
%TO.P,C7,2*%
%TO.N,GND*%
X150500000Y-61000000D03*
%TD*%
D11*
%TO.P,Q5,1,G*%
%TO.N,Net-(Q5-G)*%
X115850000Y-90390000D03*
D12*
%TO.P,Q5,2,D*%
%TO.N,+48V*%
X118390000Y-90390000D03*
%TO.P,Q5,3,S*%
%TO.N,/PHASE_C*%
X120930000Y-90390000D03*
%TD*%
D23*
%TO.P,C8,1*%
%TO.N,+48V*%
X143000000Y-81000000D03*
D24*
%TO.P,C8,2*%
%TO.N,GND*%
X150500000Y-81000000D03*
%TD*%
D13*
%TO.P,U2,1,VCC*%
%TO.N,+3V3*%
X42675000Y-70100000D03*
D14*
%TO.P,U2,2,GND*%
%TO.N,GND*%
X42675000Y-72010000D03*
%TO.P,U2,3,VIOUT*%
%TO.N,Net-(U2-VIOUT)*%
X42675000Y-73920000D03*
D15*
%TO.P,U2,4,IP+*%
%TO.N,/PHASE_A*%
X64705000Y-73060000D03*
D16*
X63445000Y-73060000D03*
D17*
X65735000Y-73810000D03*
X62415000Y-73810000D03*
X66125000Y-75010000D03*
X62025000Y-75010000D03*
X66125000Y-76340000D03*
X62025000Y-76340000D03*
D18*
X64075000Y-77010000D03*
D17*
X66125000Y-77680000D03*
X62025000Y-77680000D03*
X66125000Y-79010000D03*
X62025000Y-79010000D03*
X65735000Y-80210000D03*
X62415000Y-80210000D03*
X64705000Y-80960000D03*
X63445000Y-80960000D03*
%TO.P,U2,5,IP-*%
%TO.N,/PHASE_A_OUT*%
X64705000Y-63060000D03*
X63445000Y-63060000D03*
X65735000Y-63810000D03*
X62415000Y-63810000D03*
X66125000Y-65010000D03*
X62025000Y-65010000D03*
X66125000Y-66340000D03*
X62025000Y-66340000D03*
D18*
X64075000Y-67010000D03*
D17*
X66125000Y-67680000D03*
X62025000Y-67680000D03*
X66125000Y-69010000D03*
X62025000Y-69010000D03*
X65735000Y-70210000D03*
X62415000Y-70210000D03*
D16*
X64705000Y-70960000D03*
D15*
X63445000Y-70960000D03*
%TD*%
D27*
%TO.N,+48V*%
X143000000Y-85000000D03*
X143000000Y-74000000D03*
X143000000Y-83000000D03*
X144902113Y-81618034D03*
X144902113Y-60381966D03*
X141097887Y-61618034D03*
X143000000Y-79000000D03*
X141824429Y-82618034D03*
X141000000Y-87000000D03*
X145000000Y-74000000D03*
X145000000Y-87000000D03*
X141000000Y-68000000D03*
X141000000Y-65000000D03*
X143000000Y-59000000D03*
X145000000Y-71000000D03*
X144902113Y-80381966D03*
X144902113Y-61618034D03*
X143000000Y-77000000D03*
X145000000Y-68000000D03*
X141000000Y-71000000D03*
X141097887Y-81618034D03*
X141000000Y-77000000D03*
X144175571Y-82618034D03*
X141824429Y-79381966D03*
X143000000Y-68000000D03*
X144175571Y-59381966D03*
X144175571Y-62618034D03*
X145000000Y-85000000D03*
X143000000Y-63000000D03*
X141824429Y-59381966D03*
X141097887Y-80381966D03*
X143000000Y-87000000D03*
X141000000Y-74000000D03*
X141000000Y-85000000D03*
X144175571Y-79381966D03*
X143000000Y-65000000D03*
X145000000Y-65000000D03*
X141097887Y-60381966D03*
X145000000Y-77000000D03*
X141824429Y-62618034D03*
X143000000Y-71000000D03*
%TO.N,GND*%
X95631000Y-98425000D03*
X58000000Y-114000000D03*
X88000000Y-114000000D03*
X83340000Y-61595000D03*
X125603000Y-98425000D03*
X96000000Y-102000000D03*
X43815000Y-59690000D03*
X63246000Y-107188000D03*
X123246000Y-107188000D03*
X125786000Y-107442000D03*
X103815000Y-59690000D03*
X114596000Y-112396000D03*
X53340000Y-61595000D03*
X66000000Y-102000000D03*
X64897000Y-102000000D03*
X126000000Y-102000000D03*
X135000000Y-94000000D03*
X95786000Y-107442000D03*
X73815000Y-59690000D03*
X113340000Y-61595000D03*
X93246000Y-107188000D03*
X76454000Y-94000000D03*
X65786000Y-107442000D03*
X105000000Y-94000000D03*
%TO.N,HIN_A*%
X71628000Y-121666000D03*
X77724000Y-121666000D03*
%TO.N,LIN_A*%
X78232000Y-119634000D03*
X71628000Y-119634000D03*
%TO.N,HIN_C*%
X118750000Y-117000000D03*
X101400000Y-117000000D03*
%TO.N,LIN_C*%
X101473000Y-118999000D03*
X120142000Y-118999000D03*
%TD*%
D28*
%TO.N,LIN_C*%
X120142000Y-118999000D02*
X101473000Y-118999000D01*
%TO.N,HIN_A*%
X71628000Y-121666000D02*
X77724000Y-121666000D01*
%TO.N,LIN_A*%
X71628000Y-119634000D02*
X78232000Y-119634000D01*
%TO.N,HIN_C*%
X101400000Y-117000000D02*
X118750000Y-117000000D01*
%TD*%
%TA.AperFunction,Conductor*%
%TO.N,GND*%
G36*
X137691227Y-97258772D02*
G01*
X137691224Y-97258775D01*
X137558775Y-97391224D01*
X137558772Y-97391227D01*
X137550000Y-97400000D01*
X137550000Y-97800000D01*
X137737659Y-98034574D01*
X137741185Y-98050000D01*
X137050000Y-98050000D01*
X137250000Y-97800000D01*
X137250000Y-97400000D01*
X137050000Y-97200000D01*
X137750000Y-97200000D01*
X137691227Y-97258772D01*
G37*
%TD.AperFunction*%
%TD*%
%TA.AperFunction,Conductor*%
%TO.N,+48V*%
G36*
X89747674Y-88500000D02*
G01*
X89744726Y-88514081D01*
X89744726Y-88514083D01*
X89370969Y-90299813D01*
X89347091Y-90351367D01*
X89302993Y-90387191D01*
X89247641Y-90400000D01*
X87500060Y-90400000D01*
X87445546Y-90387597D01*
X87401764Y-90352828D01*
X87377335Y-90302541D01*
X86961346Y-88513786D01*
X86958140Y-88500000D01*
X86900000Y-88250000D01*
X89800000Y-88250000D01*
X89747674Y-88500000D01*
G37*
%TD.AperFunction*%
%TD*%
%TA.AperFunction,Conductor*%
%TO.N,GND*%
G36*
X55182000Y-53356881D02*
G01*
X55228119Y-53403000D01*
X55245000Y-53466000D01*
X55245000Y-79249000D01*
X55228119Y-79312000D01*
X55182000Y-79358119D01*
X55119000Y-79375000D01*
X40766000Y-79375000D01*
X40703000Y-79358119D01*
X40656881Y-79312000D01*
X40640000Y-79249000D01*
X40640000Y-73976741D01*
X41417786Y-73976741D01*
X41417787Y-73976893D01*
X41419511Y-74267890D01*
X41419559Y-74275957D01*
X41421647Y-74283749D01*
X41452657Y-74399475D01*
X41452659Y-74399483D01*
X41453726Y-74403462D01*
X41455303Y-74407270D01*
X41455305Y-74407275D01*
X41465442Y-74431749D01*
X41465443Y-74431750D01*
X41469564Y-74441698D01*
X41471621Y-74445262D01*
X41471626Y-74445271D01*
X41531480Y-74548949D01*
X41531482Y-74548951D01*
X41535569Y-74556031D01*
X41541329Y-74561822D01*
X41541332Y-74561826D01*
X41589132Y-74609884D01*
X41589133Y-74609885D01*
X41985115Y-75005867D01*
X42038959Y-75059423D01*
X42153283Y-75125428D01*
X42181605Y-75137159D01*
X42191555Y-75141280D01*
X42319058Y-75175442D01*
X42618386Y-75177214D01*
X42731276Y-75177214D01*
X42731614Y-75177214D01*
X43030943Y-75175442D01*
X43158448Y-75141279D01*
X43186770Y-75129548D01*
X43196714Y-75125429D01*
X43311040Y-75059424D01*
X43364885Y-75005867D01*
X43760867Y-74609885D01*
X43814441Y-74556017D01*
X43880446Y-74441674D01*
X43896267Y-74403480D01*
X43930440Y-74275970D01*
X43932214Y-73976614D01*
X43932214Y-73863386D01*
X43930442Y-73564058D01*
X43896280Y-73436555D01*
X43892159Y-73426605D01*
X43880428Y-73398283D01*
X43814423Y-73283959D01*
X43760867Y-73230115D01*
X43364885Y-72834133D01*
X43311040Y-72780576D01*
X43303965Y-72776491D01*
X43303962Y-72776489D01*
X43200283Y-72716631D01*
X43200276Y-72716627D01*
X43196714Y-72714571D01*
X43192908Y-72712994D01*
X43192901Y-72712991D01*
X43162277Y-72700306D01*
X43162273Y-72700304D01*
X43158462Y-72698726D01*
X43154478Y-72697658D01*
X43154474Y-72697657D01*
X43038749Y-72666647D01*
X43030957Y-72664559D01*
X43022891Y-72664511D01*
X43022890Y-72664511D01*
X42731893Y-72662787D01*
X42731741Y-72662786D01*
X42731614Y-72662786D01*
X42618386Y-72662786D01*
X42618258Y-72662786D01*
X42618108Y-72662787D01*
X42327099Y-72664512D01*
X42327097Y-72664512D01*
X42319030Y-72664560D01*
X42311237Y-72666648D01*
X42311233Y-72666649D01*
X42195501Y-72697665D01*
X42195485Y-72697670D01*
X42191520Y-72698733D01*
X42187717Y-72700308D01*
X42187709Y-72700311D01*
X42157143Y-72712972D01*
X42157131Y-72712977D01*
X42153326Y-72714554D01*
X42149759Y-72716612D01*
X42149751Y-72716617D01*
X42046063Y-72776471D01*
X42046057Y-72776475D01*
X42038983Y-72780559D01*
X42033190Y-72786319D01*
X42033185Y-72786324D01*
X41985115Y-72834133D01*
X41589133Y-73230115D01*
X41541341Y-73278163D01*
X41541337Y-73278167D01*
X41535577Y-73283959D01*
X41531492Y-73291034D01*
X41531490Y-73291037D01*
X41471631Y-73394715D01*
X41471625Y-73394726D01*
X41469572Y-73398283D01*
X41467998Y-73402082D01*
X41467995Y-73402089D01*
X41457840Y-73426605D01*
X41457841Y-73426605D01*
X41453720Y-73436555D01*
X41452654Y-73440531D01*
X41452652Y-73440539D01*
X41421647Y-73556259D01*
X41421646Y-73556263D01*
X41419558Y-73564058D01*
X41417786Y-73863386D01*
X41417786Y-73976614D01*
X41417786Y-73976741D01*
X40640000Y-73976741D01*
X40640000Y-70156614D01*
X41417786Y-70156614D01*
X41419353Y-70790053D01*
X41419536Y-70857833D01*
X41419536Y-70857839D01*
X41419559Y-70865999D01*
X41421671Y-70873882D01*
X41421672Y-70873888D01*
X41452089Y-70987406D01*
X41453721Y-70993497D01*
X41469572Y-71031766D01*
X41471629Y-71035328D01*
X41471632Y-71035335D01*
X41471633Y-71035336D01*
X41535573Y-71146086D01*
X41628914Y-71239427D01*
X41743233Y-71305428D01*
X41771555Y-71317159D01*
X41777699Y-71319704D01*
X41777703Y-71319705D01*
X41781505Y-71321280D01*
X41909002Y-71355441D01*
X41984947Y-71355647D01*
X42618386Y-71357214D01*
X42731614Y-71357214D01*
X43365053Y-71355647D01*
X43365052Y-71355647D01*
X43440999Y-71355441D01*
X43568497Y-71321279D01*
X43606766Y-71305428D01*
X43721086Y-71239427D01*
X43814427Y-71146086D01*
X43880428Y-71031767D01*
X43892159Y-71003445D01*
X43896280Y-70993495D01*
X43930441Y-70865998D01*
X43930647Y-70790053D01*
X43932214Y-70156614D01*
X43932214Y-70043386D01*
X43930647Y-69409947D01*
X43930441Y-69334002D01*
X43896280Y-69206505D01*
X43892159Y-69196555D01*
X43880428Y-69168233D01*
X43814427Y-69053914D01*
X43721086Y-68960573D01*
X43713934Y-68956444D01*
X43713933Y-68956443D01*
X43610335Y-68896632D01*
X43610328Y-68896629D01*
X43606766Y-68894572D01*
X43602954Y-68892993D01*
X43572310Y-68880300D01*
X43572305Y-68880298D01*
X43568497Y-68878721D01*
X43562406Y-68877089D01*
X43448888Y-68846672D01*
X43448882Y-68846671D01*
X43440999Y-68844559D01*
X43432839Y-68844536D01*
X43432833Y-68844536D01*
X43365053Y-68844353D01*
X42731614Y-68842786D01*
X42618386Y-68842786D01*
X41984947Y-68844353D01*
X41917167Y-68844536D01*
X41917160Y-68844536D01*
X41909002Y-68844559D01*
X41901119Y-68846671D01*
X41901112Y-68846672D01*
X41785486Y-68877653D01*
X41785481Y-68877654D01*
X41781505Y-68878720D01*
X41777716Y-68880288D01*
X41777699Y-68880295D01*
X41771555Y-68882841D01*
X41747044Y-68892993D01*
X41747037Y-68892996D01*
X41743233Y-68894572D01*
X41739676Y-68896625D01*
X41739663Y-68896632D01*
X41636066Y-68956443D01*
X41636061Y-68956446D01*
X41628914Y-68960573D01*
X41623075Y-68966411D01*
X41623071Y-68966415D01*
X41541415Y-69048071D01*
X41541411Y-69048075D01*
X41535573Y-69053914D01*
X41531446Y-69061061D01*
X41531443Y-69061066D01*
X41471632Y-69164664D01*
X41471625Y-69164676D01*
X41469572Y-69168234D01*
X41467996Y-69172038D01*
X41467993Y-69172045D01*
X41455300Y-69202689D01*
X41455296Y-69202699D01*
X41453721Y-69206503D01*
X41452654Y-69210484D01*
X41452653Y-69210488D01*
X41421672Y-69326111D01*
X41421670Y-69326118D01*
X41419559Y-69334001D01*
X41419536Y-69342159D01*
X41419536Y-69342166D01*
X41419353Y-69409947D01*
X41417786Y-70043386D01*
X41417786Y-70156614D01*
X40640000Y-70156614D01*
X40640000Y-56705053D01*
X46919353Y-56705053D01*
X46919536Y-56772832D01*
X46919536Y-56772838D01*
X46919559Y-56780998D01*
X46921671Y-56788881D01*
X46921672Y-56788887D01*
X46933655Y-56833609D01*
X46953720Y-56908495D01*
X46955290Y-56912287D01*
X46955295Y-56912300D01*
X46957841Y-56918445D01*
X46969572Y-56946767D01*
X46971628Y-56950329D01*
X46971632Y-56950336D01*
X47031443Y-57053933D01*
X47035573Y-57061086D01*
X47128914Y-57154427D01*
X47243234Y-57220428D01*
X47281503Y-57236279D01*
X47409001Y-57270441D01*
X47484947Y-57270647D01*
X48222145Y-57272559D01*
X48327855Y-57272559D01*
X49065053Y-57270647D01*
X49065052Y-57270647D01*
X49140998Y-57270441D01*
X49268495Y-57236280D01*
X49278445Y-57232159D01*
X49306767Y-57220428D01*
X49421086Y-57154427D01*
X49514427Y-57061086D01*
X49580428Y-56946766D01*
X49596279Y-56908497D01*
X49601400Y-56889383D01*
X49634186Y-56832722D01*
X49690978Y-56800157D01*
X49756443Y-56800482D01*
X49812909Y-56833609D01*
X49834652Y-56855701D01*
X49841509Y-56862668D01*
X49841826Y-56862980D01*
X49841871Y-56863025D01*
X50042833Y-57061086D01*
X50137539Y-57154424D01*
X50251865Y-57220429D01*
X50290117Y-57236274D01*
X50417622Y-57270441D01*
X50762145Y-57272559D01*
X50867530Y-57272559D01*
X50867855Y-57272559D01*
X51212387Y-57270440D01*
X51339895Y-57236269D01*
X51378109Y-57220440D01*
X51492446Y-57154435D01*
X51589185Y-57059094D01*
X52575105Y-57059094D01*
X52581967Y-57070812D01*
X52667211Y-57154804D01*
X52679873Y-57164445D01*
X52785395Y-57225368D01*
X52792777Y-57229008D01*
X52823401Y-57241693D01*
X52831204Y-57244342D01*
X52948844Y-57275865D01*
X52964693Y-57278003D01*
X53301128Y-57280092D01*
X53301675Y-57280094D01*
X53408325Y-57280094D01*
X53408871Y-57280092D01*
X53745311Y-57278002D01*
X53761168Y-57275863D01*
X53878814Y-57244335D01*
X53886596Y-57241694D01*
X53917206Y-57229014D01*
X53924577Y-57225380D01*
X54030106Y-57164459D01*
X54042777Y-57154811D01*
X54128030Y-57070809D01*
X54134890Y-57059094D01*
X54128115Y-57047325D01*
X53366729Y-56285939D01*
X53354999Y-56279167D01*
X53343271Y-56285938D01*
X52581879Y-57047329D01*
X52575105Y-57059094D01*
X51589185Y-57059094D01*
X51788491Y-56862668D01*
X51989918Y-56658003D01*
X52046787Y-56624767D01*
X52112660Y-56624771D01*
X52169530Y-56658016D01*
X52199120Y-56688088D01*
X52210835Y-56694958D01*
X52222604Y-56688184D01*
X52984059Y-55926730D01*
X52990832Y-55914999D01*
X53719167Y-55914999D01*
X53725939Y-55926729D01*
X54487390Y-56688180D01*
X54499164Y-56694957D01*
X54510879Y-56688087D01*
X54594820Y-56602780D01*
X54604436Y-56590143D01*
X54665368Y-56484604D01*
X54669004Y-56477230D01*
X54679160Y-56452713D01*
X54679159Y-56452713D01*
X54681704Y-56446569D01*
X54684346Y-56438785D01*
X54715845Y-56321220D01*
X54717982Y-56305203D01*
X54718223Y-56236582D01*
X54718224Y-56236140D01*
X54718224Y-55593862D01*
X54718223Y-55593418D01*
X54718223Y-55593417D01*
X54717981Y-55524783D01*
X54715843Y-55508760D01*
X54684342Y-55391203D01*
X54681694Y-55383404D01*
X54669013Y-55352790D01*
X54665373Y-55345408D01*
X54604444Y-55239868D01*
X54594828Y-55227231D01*
X54510877Y-55141911D01*
X54499162Y-55135042D01*
X54487391Y-55141817D01*
X53725938Y-55903271D01*
X53719167Y-55914999D01*
X52990832Y-55914999D01*
X52984060Y-55903270D01*
X52222608Y-55141818D01*
X52210835Y-55135042D01*
X52199120Y-55141912D01*
X52169532Y-55171984D01*
X52112662Y-55205230D01*
X52046788Y-55205234D01*
X51989915Y-55171995D01*
X51989904Y-55171984D01*
X51788491Y-54967332D01*
X51589184Y-54770903D01*
X52575106Y-54770903D01*
X52581881Y-54782671D01*
X53343270Y-55544060D01*
X53354999Y-55550832D01*
X53366730Y-55544059D01*
X54128119Y-54782669D01*
X54134892Y-54770903D01*
X54128031Y-54759186D01*
X54042791Y-54675198D01*
X54030125Y-54665553D01*
X53924604Y-54604631D01*
X53917230Y-54600995D01*
X53892713Y-54590840D01*
X53886569Y-54588295D01*
X53878785Y-54585653D01*
X53761136Y-54554131D01*
X53745293Y-54551995D01*
X53408872Y-54549907D01*
X53408325Y-54549906D01*
X53301675Y-54549906D01*
X53301127Y-54549907D01*
X52964704Y-54551995D01*
X52948862Y-54554131D01*
X52831209Y-54585655D01*
X52823429Y-54588296D01*
X52792764Y-54600997D01*
X52785403Y-54604627D01*
X52679873Y-54665554D01*
X52667211Y-54675195D01*
X52581967Y-54759187D01*
X52575106Y-54770903D01*
X51589184Y-54770903D01*
X51492462Y-54675577D01*
X51474402Y-54665150D01*
X51381705Y-54611631D01*
X51381700Y-54611628D01*
X51378138Y-54609572D01*
X51366199Y-54604627D01*
X51349816Y-54597841D01*
X51343671Y-54595296D01*
X51343672Y-54595296D01*
X51339866Y-54593720D01*
X51335885Y-54592653D01*
X51335881Y-54592652D01*
X51220153Y-54561645D01*
X51220151Y-54561644D01*
X51212363Y-54559558D01*
X51204302Y-54559508D01*
X51204299Y-54559508D01*
X50868091Y-54557442D01*
X50867987Y-54557441D01*
X50867855Y-54557441D01*
X50762145Y-54557441D01*
X50762012Y-54557441D01*
X50761908Y-54557442D01*
X50425699Y-54559508D01*
X50425695Y-54559508D01*
X50417636Y-54559558D01*
X50409847Y-54561644D01*
X50409846Y-54561645D01*
X50294116Y-54592653D01*
X50294112Y-54592654D01*
X50290131Y-54593721D01*
X50286327Y-54595296D01*
X50286317Y-54595300D01*
X50261809Y-54605451D01*
X50261809Y-54605452D01*
X50255670Y-54607995D01*
X50251865Y-54609571D01*
X50248314Y-54611620D01*
X50248298Y-54611629D01*
X50144487Y-54671564D01*
X50144483Y-54671566D01*
X50137539Y-54675576D01*
X50131829Y-54681202D01*
X50131823Y-54681208D01*
X49841786Y-54967058D01*
X49841716Y-54967127D01*
X49841509Y-54967332D01*
X49841322Y-54967521D01*
X49841195Y-54967649D01*
X49812909Y-54996390D01*
X49756443Y-55029517D01*
X49690979Y-55029842D01*
X49634187Y-54997278D01*
X49601400Y-54940617D01*
X49596279Y-54921503D01*
X49580428Y-54883234D01*
X49514427Y-54768914D01*
X49421086Y-54675573D01*
X49413933Y-54671443D01*
X49310336Y-54611632D01*
X49310329Y-54611628D01*
X49306767Y-54609572D01*
X49286064Y-54600997D01*
X49278445Y-54597841D01*
X49272300Y-54595295D01*
X49272287Y-54595290D01*
X49268495Y-54593720D01*
X49264509Y-54592652D01*
X49148887Y-54561672D01*
X49148881Y-54561671D01*
X49140998Y-54559559D01*
X49132838Y-54559536D01*
X49132832Y-54559536D01*
X49065053Y-54559353D01*
X48327855Y-54557441D01*
X48222145Y-54557441D01*
X47484947Y-54559353D01*
X47417166Y-54559536D01*
X47417159Y-54559536D01*
X47409001Y-54559559D01*
X47401118Y-54561670D01*
X47401111Y-54561672D01*
X47285488Y-54592653D01*
X47285484Y-54592654D01*
X47281503Y-54593721D01*
X47277699Y-54595296D01*
X47277689Y-54595300D01*
X47247045Y-54607993D01*
X47247041Y-54607995D01*
X47243234Y-54609572D01*
X47239676Y-54611625D01*
X47239664Y-54611632D01*
X47136066Y-54671443D01*
X47136061Y-54671446D01*
X47128914Y-54675573D01*
X47123075Y-54681411D01*
X47123071Y-54681415D01*
X47041415Y-54763071D01*
X47041411Y-54763075D01*
X47035573Y-54768914D01*
X47031446Y-54776061D01*
X47031443Y-54776066D01*
X46971632Y-54879663D01*
X46971625Y-54879676D01*
X46969572Y-54883233D01*
X46967996Y-54887037D01*
X46967993Y-54887044D01*
X46957841Y-54911555D01*
X46955295Y-54917699D01*
X46955288Y-54917716D01*
X46953720Y-54921505D01*
X46952655Y-54925480D01*
X46952653Y-54925486D01*
X46921672Y-55041112D01*
X46921671Y-55041119D01*
X46919559Y-55049002D01*
X46919536Y-55057160D01*
X46919536Y-55057167D01*
X46919353Y-55124947D01*
X46919353Y-56705053D01*
X40640000Y-56705053D01*
X40640000Y-53466000D01*
X40656881Y-53403000D01*
X40703000Y-53356881D01*
X40766000Y-53340000D01*
X55119000Y-53340000D01*
X55182000Y-53356881D01*
G37*
%TD.AperFunction*%
%TD*%
%TA.AperFunction,Conductor*%
%TO.N,GND*%
G36*
X131641227Y-97258772D02*
G01*
X131641224Y-97258775D01*
X131508775Y-97391224D01*
X131508772Y-97391227D01*
X131500000Y-97400000D01*
X131500000Y-97800000D01*
X131700000Y-98050000D01*
X131000000Y-98050000D01*
X131200000Y-97800000D01*
X131200000Y-97400000D01*
X131000000Y-97200000D01*
X131700000Y-97200000D01*
X131641227Y-97258772D01*
G37*
%TD.AperFunction*%
%TD*%
%TA.AperFunction,Conductor*%
%TO.N,GND*%
G36*
X134556288Y-90411885D02*
G01*
X134599631Y-90445297D01*
X134624719Y-90493934D01*
X135083317Y-92236608D01*
X135083318Y-92236611D01*
X135100000Y-92300000D01*
X132200000Y-92300000D01*
X132627036Y-90496961D01*
X132651562Y-90446906D01*
X132695284Y-90412330D01*
X132749644Y-90400000D01*
X134502868Y-90400000D01*
X134556288Y-90411885D01*
G37*
%TD.AperFunction*%
%TD*%
%TA.AperFunction,Conductor*%
%TO.N,GND*%
G36*
X115182000Y-53356881D02*
G01*
X115228119Y-53403000D01*
X115245000Y-53466000D01*
X115245000Y-79249000D01*
X115228119Y-79312000D01*
X115182000Y-79358119D01*
X115119000Y-79375000D01*
X100766000Y-79375000D01*
X100703000Y-79358119D01*
X100656881Y-79312000D01*
X100640000Y-79249000D01*
X100640000Y-73976741D01*
X101417786Y-73976741D01*
X101417787Y-73976893D01*
X101419511Y-74267890D01*
X101419559Y-74275957D01*
X101421647Y-74283749D01*
X101452657Y-74399475D01*
X101452659Y-74399483D01*
X101453726Y-74403462D01*
X101455303Y-74407270D01*
X101455305Y-74407275D01*
X101465442Y-74431749D01*
X101465443Y-74431750D01*
X101469564Y-74441698D01*
X101471621Y-74445262D01*
X101471626Y-74445271D01*
X101531480Y-74548949D01*
X101531482Y-74548951D01*
X101535569Y-74556031D01*
X101541329Y-74561822D01*
X101541332Y-74561826D01*
X101589132Y-74609884D01*
X101589133Y-74609885D01*
X101985115Y-75005867D01*
X102038959Y-75059423D01*
X102153283Y-75125428D01*
X102181605Y-75137159D01*
X102191555Y-75141280D01*
X102319058Y-75175442D01*
X102618386Y-75177214D01*
X102731276Y-75177214D01*
X102731614Y-75177214D01*
X103030943Y-75175442D01*
X103158448Y-75141279D01*
X103186770Y-75129548D01*
X103196714Y-75125429D01*
X103311040Y-75059424D01*
X103364885Y-75005867D01*
X103760867Y-74609885D01*
X103814441Y-74556017D01*
X103880446Y-74441674D01*
X103896267Y-74403480D01*
X103930440Y-74275970D01*
X103932214Y-73976614D01*
X103932214Y-73863386D01*
X103930442Y-73564058D01*
X103896280Y-73436555D01*
X103892159Y-73426605D01*
X103880428Y-73398283D01*
X103814423Y-73283959D01*
X103760867Y-73230115D01*
X103364885Y-72834133D01*
X103311040Y-72780576D01*
X103303965Y-72776491D01*
X103303962Y-72776489D01*
X103200283Y-72716631D01*
X103200276Y-72716627D01*
X103196714Y-72714571D01*
X103192908Y-72712994D01*
X103192901Y-72712991D01*
X103162277Y-72700306D01*
X103162273Y-72700304D01*
X103158462Y-72698726D01*
X103154478Y-72697658D01*
X103154474Y-72697657D01*
X103038749Y-72666647D01*
X103030957Y-72664559D01*
X103022891Y-72664511D01*
X103022890Y-72664511D01*
X102731893Y-72662787D01*
X102731741Y-72662786D01*
X102731614Y-72662786D01*
X102618386Y-72662786D01*
X102618258Y-72662786D01*
X102618108Y-72662787D01*
X102327099Y-72664512D01*
X102327097Y-72664512D01*
X102319030Y-72664560D01*
X102311237Y-72666648D01*
X102311233Y-72666649D01*
X102195501Y-72697665D01*
X102195485Y-72697670D01*
X102191520Y-72698733D01*
X102187717Y-72700308D01*
X102187709Y-72700311D01*
X102157143Y-72712972D01*
X102157131Y-72712977D01*
X102153326Y-72714554D01*
X102149759Y-72716612D01*
X102149751Y-72716617D01*
X102046063Y-72776471D01*
X102046057Y-72776475D01*
X102038983Y-72780559D01*
X102033190Y-72786319D01*
X102033185Y-72786324D01*
X101985115Y-72834133D01*
X101589133Y-73230115D01*
X101541341Y-73278163D01*
X101541337Y-73278167D01*
X101535577Y-73283959D01*
X101531492Y-73291034D01*
X101531490Y-73291037D01*
X101471631Y-73394715D01*
X101471625Y-73394726D01*
X101469572Y-73398283D01*
X101467998Y-73402082D01*
X101467995Y-73402089D01*
X101457840Y-73426605D01*
X101457841Y-73426605D01*
X101453720Y-73436555D01*
X101452654Y-73440531D01*
X101452652Y-73440539D01*
X101421647Y-73556259D01*
X101421646Y-73556263D01*
X101419558Y-73564058D01*
X101417786Y-73863386D01*
X101417786Y-73976614D01*
X101417786Y-73976741D01*
X100640000Y-73976741D01*
X100640000Y-70156614D01*
X101417786Y-70156614D01*
X101419353Y-70790053D01*
X101419536Y-70857833D01*
X101419536Y-70857839D01*
X101419559Y-70865999D01*
X101421671Y-70873882D01*
X101421672Y-70873888D01*
X101452089Y-70987406D01*
X101453721Y-70993497D01*
X101469572Y-71031766D01*
X101471629Y-71035328D01*
X101471632Y-71035335D01*
X101471633Y-71035336D01*
X101535573Y-71146086D01*
X101628914Y-71239427D01*
X101743233Y-71305428D01*
X101771555Y-71317159D01*
X101777699Y-71319704D01*
X101777703Y-71319705D01*
X101781505Y-71321280D01*
X101909002Y-71355441D01*
X101984947Y-71355647D01*
X102618386Y-71357214D01*
X102731614Y-71357214D01*
X103365053Y-71355647D01*
X103365052Y-71355647D01*
X103440999Y-71355441D01*
X103568497Y-71321279D01*
X103606766Y-71305428D01*
X103721086Y-71239427D01*
X103814427Y-71146086D01*
X103880428Y-71031767D01*
X103892159Y-71003445D01*
X103896280Y-70993495D01*
X103930441Y-70865998D01*
X103930647Y-70790053D01*
X103932214Y-70156614D01*
X103932214Y-70043386D01*
X103930647Y-69409947D01*
X103930441Y-69334002D01*
X103896280Y-69206505D01*
X103892159Y-69196555D01*
X103880428Y-69168233D01*
X103814427Y-69053914D01*
X103721086Y-68960573D01*
X103713934Y-68956444D01*
X103713933Y-68956443D01*
X103610335Y-68896632D01*
X103610328Y-68896629D01*
X103606766Y-68894572D01*
X103602954Y-68892993D01*
X103572310Y-68880300D01*
X103572305Y-68880298D01*
X103568497Y-68878721D01*
X103562406Y-68877089D01*
X103448888Y-68846672D01*
X103448882Y-68846671D01*
X103440999Y-68844559D01*
X103432839Y-68844536D01*
X103432833Y-68844536D01*
X103365053Y-68844353D01*
X102731614Y-68842786D01*
X102618386Y-68842786D01*
X101984947Y-68844353D01*
X101917167Y-68844536D01*
X101917160Y-68844536D01*
X101909002Y-68844559D01*
X101901119Y-68846671D01*
X101901112Y-68846672D01*
X101785486Y-68877653D01*
X101785481Y-68877654D01*
X101781505Y-68878720D01*
X101777716Y-68880288D01*
X101777699Y-68880295D01*
X101771555Y-68882841D01*
X101747044Y-68892993D01*
X101747037Y-68892996D01*
X101743233Y-68894572D01*
X101739676Y-68896625D01*
X101739663Y-68896632D01*
X101636066Y-68956443D01*
X101636061Y-68956446D01*
X101628914Y-68960573D01*
X101623075Y-68966411D01*
X101623071Y-68966415D01*
X101541415Y-69048071D01*
X101541411Y-69048075D01*
X101535573Y-69053914D01*
X101531446Y-69061061D01*
X101531443Y-69061066D01*
X101471632Y-69164664D01*
X101471625Y-69164676D01*
X101469572Y-69168234D01*
X101467996Y-69172038D01*
X101467993Y-69172045D01*
X101455300Y-69202689D01*
X101455296Y-69202699D01*
X101453721Y-69206503D01*
X101452654Y-69210484D01*
X101452653Y-69210488D01*
X101421672Y-69326111D01*
X101421670Y-69326118D01*
X101419559Y-69334001D01*
X101419536Y-69342159D01*
X101419536Y-69342166D01*
X101419353Y-69409947D01*
X101417786Y-70043386D01*
X101417786Y-70156614D01*
X100640000Y-70156614D01*
X100640000Y-56705053D01*
X106919353Y-56705053D01*
X106919536Y-56772832D01*
X106919536Y-56772838D01*
X106919559Y-56780998D01*
X106921671Y-56788881D01*
X106921672Y-56788887D01*
X106933655Y-56833609D01*
X106953720Y-56908495D01*
X106955290Y-56912287D01*
X106955295Y-56912300D01*
X106957841Y-56918445D01*
X106969572Y-56946767D01*
X106971628Y-56950329D01*
X106971632Y-56950336D01*
X107031443Y-57053933D01*
X107035573Y-57061086D01*
X107128914Y-57154427D01*
X107243234Y-57220428D01*
X107281503Y-57236279D01*
X107409001Y-57270441D01*
X107484947Y-57270647D01*
X108222145Y-57272559D01*
X108327855Y-57272559D01*
X109065053Y-57270647D01*
X109065052Y-57270647D01*
X109140998Y-57270441D01*
X109268495Y-57236280D01*
X109278445Y-57232159D01*
X109306767Y-57220428D01*
X109421086Y-57154427D01*
X109514427Y-57061086D01*
X109580428Y-56946766D01*
X109596279Y-56908497D01*
X109601400Y-56889383D01*
X109634186Y-56832722D01*
X109690978Y-56800157D01*
X109756443Y-56800482D01*
X109812909Y-56833609D01*
X109834652Y-56855701D01*
X109841509Y-56862668D01*
X109841826Y-56862980D01*
X109841871Y-56863025D01*
X110042833Y-57061086D01*
X110137539Y-57154424D01*
X110251865Y-57220429D01*
X110290117Y-57236274D01*
X110417622Y-57270441D01*
X110762145Y-57272559D01*
X110867530Y-57272559D01*
X110867855Y-57272559D01*
X111212387Y-57270440D01*
X111339895Y-57236269D01*
X111378109Y-57220440D01*
X111492446Y-57154435D01*
X111589185Y-57059094D01*
X112575105Y-57059094D01*
X112581967Y-57070812D01*
X112667211Y-57154804D01*
X112679873Y-57164445D01*
X112785395Y-57225368D01*
X112792777Y-57229008D01*
X112823401Y-57241693D01*
X112831204Y-57244342D01*
X112948844Y-57275865D01*
X112964693Y-57278003D01*
X113301128Y-57280092D01*
X113301675Y-57280094D01*
X113408325Y-57280094D01*
X113408871Y-57280092D01*
X113745311Y-57278002D01*
X113761168Y-57275863D01*
X113878814Y-57244335D01*
X113886596Y-57241694D01*
X113917206Y-57229014D01*
X113924577Y-57225380D01*
X114030106Y-57164459D01*
X114042777Y-57154811D01*
X114128030Y-57070809D01*
X114134890Y-57059094D01*
X114128115Y-57047325D01*
X113366729Y-56285939D01*
X113354999Y-56279167D01*
X113343271Y-56285938D01*
X112581879Y-57047329D01*
X112575105Y-57059094D01*
X111589185Y-57059094D01*
X111788491Y-56862668D01*
X111989918Y-56658003D01*
X112046787Y-56624767D01*
X112112660Y-56624771D01*
X112169530Y-56658016D01*
X112199120Y-56688088D01*
X112210835Y-56694958D01*
X112222604Y-56688184D01*
X112984059Y-55926730D01*
X112990832Y-55914999D01*
X113719167Y-55914999D01*
X113725939Y-55926729D01*
X114487390Y-56688180D01*
X114499164Y-56694957D01*
X114510879Y-56688087D01*
X114594820Y-56602780D01*
X114604436Y-56590143D01*
X114665368Y-56484604D01*
X114669004Y-56477230D01*
X114679160Y-56452713D01*
X114679159Y-56452713D01*
X114681704Y-56446569D01*
X114684346Y-56438785D01*
X114715845Y-56321220D01*
X114717982Y-56305203D01*
X114718223Y-56236582D01*
X114718224Y-56236140D01*
X114718224Y-55593862D01*
X114718223Y-55593418D01*
X114718223Y-55593417D01*
X114717981Y-55524783D01*
X114715843Y-55508760D01*
X114684342Y-55391203D01*
X114681694Y-55383404D01*
X114669013Y-55352790D01*
X114665373Y-55345408D01*
X114604444Y-55239868D01*
X114594828Y-55227231D01*
X114510877Y-55141911D01*
X114499162Y-55135042D01*
X114487391Y-55141817D01*
X113725938Y-55903271D01*
X113719167Y-55914999D01*
X112990832Y-55914999D01*
X112984060Y-55903270D01*
X112222608Y-55141818D01*
X112210835Y-55135042D01*
X112199120Y-55141912D01*
X112169532Y-55171984D01*
X112112662Y-55205230D01*
X112046788Y-55205234D01*
X111989915Y-55171995D01*
X111989904Y-55171984D01*
X111788491Y-54967332D01*
X111589184Y-54770903D01*
X112575106Y-54770903D01*
X112581881Y-54782671D01*
X113343270Y-55544060D01*
X113354999Y-55550832D01*
X113366730Y-55544059D01*
X114128119Y-54782669D01*
X114134892Y-54770903D01*
X114128031Y-54759186D01*
X114042791Y-54675198D01*
X114030125Y-54665553D01*
X113924604Y-54604631D01*
X113917230Y-54600995D01*
X113892713Y-54590840D01*
X113886569Y-54588295D01*
X113878785Y-54585653D01*
X113761136Y-54554131D01*
X113745293Y-54551995D01*
X113408872Y-54549907D01*
X113408325Y-54549906D01*
X113301675Y-54549906D01*
X113301127Y-54549907D01*
X112964704Y-54551995D01*
X112948862Y-54554131D01*
X112831209Y-54585655D01*
X112823429Y-54588296D01*
X112792764Y-54600997D01*
X112785403Y-54604627D01*
X112679873Y-54665554D01*
X112667211Y-54675195D01*
X112581967Y-54759187D01*
X112575106Y-54770903D01*
X111589184Y-54770903D01*
X111492462Y-54675577D01*
X111474402Y-54665150D01*
X111381705Y-54611631D01*
X111381700Y-54611628D01*
X111378138Y-54609572D01*
X111366199Y-54604627D01*
X111349816Y-54597841D01*
X111343671Y-54595296D01*
X111343672Y-54595296D01*
X111339866Y-54593720D01*
X111335885Y-54592653D01*
X111335881Y-54592652D01*
X111220153Y-54561645D01*
X111220151Y-54561644D01*
X111212363Y-54559558D01*
X111204302Y-54559508D01*
X111204299Y-54559508D01*
X110868091Y-54557442D01*
X110867987Y-54557441D01*
X110867855Y-54557441D01*
X110762145Y-54557441D01*
X110762012Y-54557441D01*
X110761908Y-54557442D01*
X110425699Y-54559508D01*
X110425695Y-54559508D01*
X110417636Y-54559558D01*
X110409847Y-54561644D01*
X110409846Y-54561645D01*
X110294116Y-54592653D01*
X110294112Y-54592654D01*
X110290131Y-54593721D01*
X110286327Y-54595296D01*
X110286317Y-54595300D01*
X110261809Y-54605451D01*
X110261809Y-54605452D01*
X110255670Y-54607995D01*
X110251865Y-54609571D01*
X110248314Y-54611620D01*
X110248298Y-54611629D01*
X110144487Y-54671564D01*
X110144483Y-54671566D01*
X110137539Y-54675576D01*
X110131829Y-54681202D01*
X110131823Y-54681208D01*
X109841786Y-54967058D01*
X109841716Y-54967127D01*
X109841509Y-54967332D01*
X109841322Y-54967521D01*
X109841195Y-54967649D01*
X109812909Y-54996390D01*
X109756443Y-55029517D01*
X109690979Y-55029842D01*
X109634187Y-54997278D01*
X109601400Y-54940617D01*
X109596279Y-54921503D01*
X109580428Y-54883234D01*
X109514427Y-54768914D01*
X109421086Y-54675573D01*
X109413933Y-54671443D01*
X109310336Y-54611632D01*
X109310329Y-54611628D01*
X109306767Y-54609572D01*
X109286064Y-54600997D01*
X109278445Y-54597841D01*
X109272300Y-54595295D01*
X109272287Y-54595290D01*
X109268495Y-54593720D01*
X109264509Y-54592652D01*
X109148887Y-54561672D01*
X109148881Y-54561671D01*
X109140998Y-54559559D01*
X109132838Y-54559536D01*
X109132832Y-54559536D01*
X109065053Y-54559353D01*
X108327855Y-54557441D01*
X108222145Y-54557441D01*
X107484947Y-54559353D01*
X107417166Y-54559536D01*
X107417159Y-54559536D01*
X107409001Y-54559559D01*
X107401118Y-54561670D01*
X107401111Y-54561672D01*
X107285488Y-54592653D01*
X107285484Y-54592654D01*
X107281503Y-54593721D01*
X107277699Y-54595296D01*
X107277689Y-54595300D01*
X107247045Y-54607993D01*
X107247041Y-54607995D01*
X107243234Y-54609572D01*
X107239676Y-54611625D01*
X107239664Y-54611632D01*
X107136066Y-54671443D01*
X107136061Y-54671446D01*
X107128914Y-54675573D01*
X107123075Y-54681411D01*
X107123071Y-54681415D01*
X107041415Y-54763071D01*
X107041411Y-54763075D01*
X107035573Y-54768914D01*
X107031446Y-54776061D01*
X107031443Y-54776066D01*
X106971632Y-54879663D01*
X106971625Y-54879676D01*
X106969572Y-54883233D01*
X106967996Y-54887037D01*
X106967993Y-54887044D01*
X106957841Y-54911555D01*
X106955295Y-54917699D01*
X106955288Y-54917716D01*
X106953720Y-54921505D01*
X106952655Y-54925480D01*
X106952653Y-54925486D01*
X106921672Y-55041112D01*
X106921671Y-55041119D01*
X106919559Y-55049002D01*
X106919536Y-55057160D01*
X106919536Y-55057167D01*
X106919353Y-55124947D01*
X106919353Y-56705053D01*
X100640000Y-56705053D01*
X100640000Y-53466000D01*
X100656881Y-53403000D01*
X100703000Y-53356881D01*
X100766000Y-53340000D01*
X115119000Y-53340000D01*
X115182000Y-53356881D01*
G37*
%TD.AperFunction*%
%TD*%
%TA.AperFunction,Conductor*%
%TO.N,+48V*%
G36*
X119747674Y-88500000D02*
G01*
X119744726Y-88514081D01*
X119744726Y-88514083D01*
X119370969Y-90299813D01*
X119347091Y-90351367D01*
X119302993Y-90387191D01*
X119247641Y-90400000D01*
X117500060Y-90400000D01*
X117445546Y-90387597D01*
X117401764Y-90352828D01*
X117377335Y-90302541D01*
X116961346Y-88513786D01*
X116958140Y-88500000D01*
X116900000Y-88250000D01*
X119800000Y-88250000D01*
X119747674Y-88500000D01*
G37*
%TD.AperFunction*%
%TD*%
%TA.AperFunction,Conductor*%
%TO.N,GND*%
G36*
X91641227Y-97258772D02*
G01*
X91641224Y-97258775D01*
X91508775Y-97391224D01*
X91508772Y-97391227D01*
X91500000Y-97400000D01*
X91500000Y-97800000D01*
X91700000Y-98050000D01*
X91000000Y-98050000D01*
X91200000Y-97800000D01*
X91200000Y-97400000D01*
X91000000Y-97200000D01*
X91700000Y-97200000D01*
X91641227Y-97258772D01*
G37*
%TD.AperFunction*%
%TD*%
%TA.AperFunction,Conductor*%
%TO.N,+48V*%
G36*
X145937000Y-58016881D02*
G01*
X145983119Y-58063000D01*
X146000000Y-58126000D01*
X146000000Y-88374000D01*
X145983119Y-88437000D01*
X145937000Y-88483119D01*
X145874000Y-88500000D01*
X50500000Y-88500000D01*
X50490164Y-88503361D01*
X50490163Y-88503362D01*
X47594070Y-89493228D01*
X47553319Y-89500000D01*
X39626000Y-89500000D01*
X39563000Y-89483119D01*
X39516881Y-89437000D01*
X39500000Y-89374000D01*
X39500000Y-82626000D01*
X39516881Y-82563000D01*
X39563000Y-82516881D01*
X39626000Y-82500000D01*
X47553319Y-82500000D01*
X47594070Y-82506772D01*
X50500000Y-83500000D01*
X50510395Y-83500000D01*
X139983410Y-83500000D01*
X140000000Y-83500000D01*
X140000000Y-58126000D01*
X140016881Y-58063000D01*
X140063000Y-58016881D01*
X140126000Y-58000000D01*
X145874000Y-58000000D01*
X145937000Y-58016881D01*
G37*
%TD.AperFunction*%
%TD*%
%TA.AperFunction,Conductor*%
%TO.N,/PHASE_B_OUT*%
G36*
X97437000Y-53016881D02*
G01*
X97483119Y-53063000D01*
X97500000Y-53126000D01*
X97500000Y-69874000D01*
X97483119Y-69937000D01*
X97437000Y-69983119D01*
X97374000Y-70000000D01*
X90626000Y-70000000D01*
X90563000Y-69983119D01*
X90516881Y-69937000D01*
X90500000Y-69874000D01*
X90500000Y-53126000D01*
X90516881Y-53063000D01*
X90563000Y-53016881D01*
X90626000Y-53000000D01*
X97374000Y-53000000D01*
X97437000Y-53016881D01*
G37*
%TD.AperFunction*%
%TD*%
%TA.AperFunction,Conductor*%
%TO.N,GND*%
G36*
X71641227Y-97258772D02*
G01*
X71641224Y-97258775D01*
X71508775Y-97391224D01*
X71508772Y-97391227D01*
X71500000Y-97400000D01*
X71500000Y-97800000D01*
X71700000Y-98050000D01*
X71000000Y-98050000D01*
X71200000Y-97800000D01*
X71200000Y-97400000D01*
X71000000Y-97200000D01*
X71700000Y-97200000D01*
X71641227Y-97258772D01*
G37*
%TD.AperFunction*%
%TD*%
%TA.AperFunction,Conductor*%
%TO.N,GND*%
G36*
X101641227Y-97258772D02*
G01*
X101641224Y-97258775D01*
X101508775Y-97391224D01*
X101508772Y-97391227D01*
X101500000Y-97400000D01*
X101500000Y-97800000D01*
X101700000Y-98050000D01*
X101000000Y-98050000D01*
X101200000Y-97800000D01*
X101200000Y-97400000D01*
X101000000Y-97200000D01*
X101700000Y-97200000D01*
X101641227Y-97258772D01*
G37*
%TD.AperFunction*%
%TD*%
%TA.AperFunction,Conductor*%
%TO.N,GND*%
G36*
X152937000Y-58016881D02*
G01*
X152983119Y-58063000D01*
X153000000Y-58126000D01*
X153000000Y-126874000D01*
X152983119Y-126937000D01*
X152937000Y-126983119D01*
X152874000Y-127000000D01*
X147126000Y-127000000D01*
X147063000Y-126983119D01*
X147016881Y-126937000D01*
X147000000Y-126874000D01*
X147000000Y-97266590D01*
X147000000Y-97250000D01*
X146983410Y-97250000D01*
X137712410Y-97250000D01*
X137100000Y-97250000D01*
X137087590Y-97250000D01*
X131662410Y-97250000D01*
X131650000Y-97250000D01*
X131050000Y-97250000D01*
X131037590Y-97250000D01*
X121662410Y-97250000D01*
X121650000Y-97250000D01*
X121050000Y-97250000D01*
X121037590Y-97250000D01*
X111662410Y-97250000D01*
X111650000Y-97250000D01*
X111050000Y-97250000D01*
X111037590Y-97250000D01*
X101662410Y-97250000D01*
X101650000Y-97250000D01*
X101050000Y-97250000D01*
X101037590Y-97250000D01*
X91662410Y-97250000D01*
X91650000Y-97250000D01*
X91050000Y-97250000D01*
X91037590Y-97250000D01*
X81662410Y-97250000D01*
X81650000Y-97250000D01*
X81050000Y-97250000D01*
X81037590Y-97250000D01*
X71662410Y-97250000D01*
X71650000Y-97250000D01*
X71050000Y-97250000D01*
X71037590Y-97250000D01*
X61662410Y-97250000D01*
X61650000Y-97250000D01*
X61050000Y-97250000D01*
X61037590Y-97250000D01*
X51662410Y-97250000D01*
X51650000Y-97250000D01*
X51050000Y-97250000D01*
X51037590Y-97250000D01*
X49389590Y-97250000D01*
X49373000Y-97250000D01*
X49373000Y-100544053D01*
X49373000Y-100556227D01*
X49373000Y-103374000D01*
X49356119Y-103437000D01*
X49310000Y-103483119D01*
X49247000Y-103500000D01*
X39626000Y-103500000D01*
X39563000Y-103483119D01*
X39516881Y-103437000D01*
X39500000Y-103374000D01*
X39500000Y-92376000D01*
X39516881Y-92313000D01*
X39563000Y-92266881D01*
X39626000Y-92250000D01*
X72197731Y-92250000D01*
X72211842Y-92250000D01*
X147000000Y-92250000D01*
X147000000Y-58126000D01*
X147016881Y-58063000D01*
X147063000Y-58016881D01*
X147126000Y-58000000D01*
X152874000Y-58000000D01*
X152937000Y-58016881D01*
G37*
%TD.AperFunction*%
%TD*%
%TA.AperFunction,Conductor*%
%TO.N,/PHASE_C_OUT*%
G36*
X127437000Y-53016881D02*
G01*
X127483119Y-53063000D01*
X127500000Y-53126000D01*
X127500000Y-69874000D01*
X127483119Y-69937000D01*
X127437000Y-69983119D01*
X127374000Y-70000000D01*
X120626000Y-70000000D01*
X120563000Y-69983119D01*
X120516881Y-69937000D01*
X120500000Y-69874000D01*
X120500000Y-53126000D01*
X120516881Y-53063000D01*
X120563000Y-53016881D01*
X120626000Y-53000000D01*
X127374000Y-53000000D01*
X127437000Y-53016881D01*
G37*
%TD.AperFunction*%
%TD*%
%TA.AperFunction,Conductor*%
%TO.N,GND*%
G36*
X50300000Y-100600000D02*
G01*
X50100000Y-100400000D01*
X50087590Y-100400000D01*
X49713119Y-100400000D01*
X49700000Y-100400000D01*
X49687994Y-100405288D01*
X49687993Y-100405289D01*
X49384140Y-100539145D01*
X49384138Y-100539146D01*
X49246000Y-100600000D01*
X49246000Y-99900000D01*
X49700000Y-100100000D01*
X49713119Y-100100000D01*
X50087590Y-100100000D01*
X50100000Y-100100000D01*
X50300000Y-99900000D01*
X50300000Y-100600000D01*
G37*
%TD.AperFunction*%
%TD*%
%TA.AperFunction,Conductor*%
%TO.N,/PHASE_A_OUT*%
G36*
X67437000Y-53016881D02*
G01*
X67483119Y-53063000D01*
X67500000Y-53126000D01*
X67500000Y-69874000D01*
X67483119Y-69937000D01*
X67437000Y-69983119D01*
X67374000Y-70000000D01*
X60626000Y-70000000D01*
X60563000Y-69983119D01*
X60516881Y-69937000D01*
X60500000Y-69874000D01*
X60500000Y-53126000D01*
X60516881Y-53063000D01*
X60563000Y-53016881D01*
X60626000Y-53000000D01*
X67374000Y-53000000D01*
X67437000Y-53016881D01*
G37*
%TD.AperFunction*%
%TD*%
%TA.AperFunction,Conductor*%
%TO.N,GND*%
G36*
X104556288Y-90411885D02*
G01*
X104599631Y-90445297D01*
X104624719Y-90493934D01*
X105083317Y-92236608D01*
X105083318Y-92236611D01*
X105100000Y-92300000D01*
X102200000Y-92300000D01*
X102627036Y-90496961D01*
X102651562Y-90446906D01*
X102695284Y-90412330D01*
X102749644Y-90400000D01*
X104502868Y-90400000D01*
X104556288Y-90411885D01*
G37*
%TD.AperFunction*%
%TD*%
%TA.AperFunction,Conductor*%
%TO.N,GND*%
G36*
X81641227Y-97258772D02*
G01*
X81641224Y-97258775D01*
X81508775Y-97391224D01*
X81508772Y-97391227D01*
X81500000Y-97400000D01*
X81500000Y-97800000D01*
X81700000Y-98050000D01*
X81000000Y-98050000D01*
X81200000Y-97800000D01*
X81200000Y-97400000D01*
X81000000Y-97200000D01*
X81700000Y-97200000D01*
X81641227Y-97258772D01*
G37*
%TD.AperFunction*%
%TD*%
%TA.AperFunction,Conductor*%
%TO.N,GND*%
G36*
X50292000Y-118872000D02*
G01*
X45844000Y-118872000D01*
X45782000Y-118855387D01*
X45736613Y-118810000D01*
X45720000Y-118748000D01*
X45720000Y-115186000D01*
X45736613Y-115124000D01*
X45782000Y-115078613D01*
X45844000Y-115062000D01*
X50233674Y-115062000D01*
X50292000Y-115062000D01*
X50292000Y-118872000D01*
G37*
%TD.AperFunction*%
%TD*%
%TA.AperFunction,Conductor*%
%TO.N,GND*%
G36*
X121641227Y-97258772D02*
G01*
X121641224Y-97258775D01*
X121508775Y-97391224D01*
X121508772Y-97391227D01*
X121500000Y-97400000D01*
X121500000Y-97800000D01*
X121700000Y-98050000D01*
X121000000Y-98050000D01*
X121200000Y-97800000D01*
X121200000Y-97400000D01*
X121000000Y-97200000D01*
X121700000Y-97200000D01*
X121641227Y-97258772D01*
G37*
%TD.AperFunction*%
%TD*%
%TA.AperFunction,Conductor*%
%TO.N,GND*%
G36*
X74556288Y-90411885D02*
G01*
X74599631Y-90445297D01*
X74624719Y-90493934D01*
X75083317Y-92236608D01*
X75083318Y-92236611D01*
X75100000Y-92300000D01*
X72200000Y-92300000D01*
X72627036Y-90496961D01*
X72651562Y-90446906D01*
X72695284Y-90412330D01*
X72749644Y-90400000D01*
X74502868Y-90400000D01*
X74556288Y-90411885D01*
G37*
%TD.AperFunction*%
%TD*%
%TA.AperFunction,Conductor*%
%TO.N,+48V*%
G36*
X59747674Y-88500000D02*
G01*
X59744726Y-88514081D01*
X59744726Y-88514083D01*
X59370969Y-90299813D01*
X59347091Y-90351367D01*
X59302993Y-90387191D01*
X59247641Y-90400000D01*
X57500060Y-90400000D01*
X57445546Y-90387597D01*
X57401764Y-90352828D01*
X57377335Y-90302541D01*
X56961346Y-88513786D01*
X56958140Y-88500000D01*
X56900000Y-88250000D01*
X59800000Y-88250000D01*
X59747674Y-88500000D01*
G37*
%TD.AperFunction*%
%TD*%
%TA.AperFunction,Conductor*%
%TO.N,GND*%
G36*
X111641227Y-97258772D02*
G01*
X111641224Y-97258775D01*
X111508775Y-97391224D01*
X111508772Y-97391227D01*
X111500000Y-97400000D01*
X111500000Y-97800000D01*
X111700000Y-98050000D01*
X111000000Y-98050000D01*
X111200000Y-97800000D01*
X111200000Y-97400000D01*
X111000000Y-97200000D01*
X111700000Y-97200000D01*
X111641227Y-97258772D01*
G37*
%TD.AperFunction*%
%TD*%
%TA.AperFunction,Conductor*%
%TO.N,GND*%
G36*
X61641227Y-97258772D02*
G01*
X61641224Y-97258775D01*
X61508775Y-97391224D01*
X61508772Y-97391227D01*
X61500000Y-97400000D01*
X61500000Y-97800000D01*
X61700000Y-98050000D01*
X61000000Y-98050000D01*
X61200000Y-97800000D01*
X61200000Y-97400000D01*
X61000000Y-97200000D01*
X61700000Y-97200000D01*
X61641227Y-97258772D01*
G37*
%TD.AperFunction*%
%TD*%
%TA.AperFunction,Conductor*%
%TO.N,GND*%
G36*
X51641227Y-97258772D02*
G01*
X51641224Y-97258775D01*
X51508775Y-97391224D01*
X51508772Y-97391227D01*
X51500000Y-97400000D01*
X51500000Y-97800000D01*
X51700000Y-98050000D01*
X51000000Y-98050000D01*
X51200000Y-97800000D01*
X51200000Y-97400000D01*
X51000000Y-97200000D01*
X51700000Y-97200000D01*
X51641227Y-97258772D01*
G37*
%TD.AperFunction*%
%TD*%
%TA.AperFunction,Conductor*%
%TO.N,GND*%
G36*
X137737490Y-98033832D02*
G01*
X137750000Y-98088568D01*
X137750000Y-132624360D01*
X137733179Y-132687256D01*
X137687208Y-132733359D01*
X137624360Y-132750358D01*
X50376359Y-132999638D01*
X50313208Y-132982879D01*
X50266941Y-132936744D01*
X50250000Y-132873640D01*
X50250000Y-127383243D01*
X76319500Y-127383243D01*
X76319501Y-127386864D01*
X76322415Y-127411991D01*
X76326242Y-127420660D01*
X76326243Y-127420661D01*
X76326243Y-127420662D01*
X76367794Y-127514765D01*
X76447235Y-127594206D01*
X76550009Y-127639585D01*
X76575135Y-127642500D01*
X78364864Y-127642499D01*
X78389991Y-127639585D01*
X78492765Y-127594206D01*
X78572206Y-127514765D01*
X78617585Y-127411991D01*
X78620500Y-127386865D01*
X78620499Y-126691312D01*
X78636422Y-126630003D01*
X78680168Y-126584188D01*
X78740678Y-126565450D01*
X78802660Y-126578524D01*
X78850447Y-126620106D01*
X78871961Y-126679687D01*
X78873705Y-126698505D01*
X78873707Y-126698514D01*
X78874244Y-126704310D01*
X78932595Y-126909389D01*
X78935186Y-126914593D01*
X78935189Y-126914600D01*
X79025037Y-127095040D01*
X79027634Y-127100255D01*
X79031142Y-127104900D01*
X79031145Y-127104905D01*
X79140751Y-127250045D01*
X79156128Y-127270407D01*
X79160430Y-127274329D01*
X79160433Y-127274332D01*
X79309394Y-127410129D01*
X79309398Y-127410132D01*
X79313698Y-127414052D01*
X79435193Y-127489278D01*
X79476354Y-127514765D01*
X79494981Y-127526298D01*
X79500411Y-127528401D01*
X79500414Y-127528403D01*
X79572229Y-127556223D01*
X79693802Y-127603321D01*
X79903390Y-127642500D01*
X80110783Y-127642500D01*
X80116610Y-127642500D01*
X80326198Y-127603321D01*
X80525019Y-127526298D01*
X80706302Y-127414052D01*
X80863872Y-127270407D01*
X80992366Y-127100255D01*
X81087405Y-126909389D01*
X81145756Y-126704310D01*
X81154536Y-126609546D01*
X81174966Y-126551573D01*
X81220390Y-126510164D01*
X81280000Y-126495171D01*
X81339610Y-126510164D01*
X81385034Y-126551573D01*
X81405463Y-126609546D01*
X81413706Y-126698514D01*
X81413707Y-126698523D01*
X81414244Y-126704310D01*
X81472595Y-126909389D01*
X81475186Y-126914593D01*
X81475189Y-126914600D01*
X81565037Y-127095040D01*
X81567634Y-127100255D01*
X81571142Y-127104900D01*
X81571145Y-127104905D01*
X81680751Y-127250045D01*
X81696128Y-127270407D01*
X81700430Y-127274329D01*
X81700433Y-127274332D01*
X81849394Y-127410129D01*
X81849398Y-127410132D01*
X81853698Y-127414052D01*
X81975193Y-127489278D01*
X82016354Y-127514765D01*
X82034981Y-127526298D01*
X82040411Y-127528401D01*
X82040414Y-127528403D01*
X82112229Y-127556223D01*
X82233802Y-127603321D01*
X82443390Y-127642500D01*
X82650783Y-127642500D01*
X82656610Y-127642500D01*
X82866198Y-127603321D01*
X83065019Y-127526298D01*
X83246302Y-127414052D01*
X83403872Y-127270407D01*
X83532366Y-127100255D01*
X83627405Y-126909389D01*
X83685756Y-126704310D01*
X83694536Y-126609546D01*
X83714966Y-126551573D01*
X83760390Y-126510164D01*
X83820000Y-126495171D01*
X83879610Y-126510164D01*
X83925034Y-126551573D01*
X83945463Y-126609546D01*
X83953706Y-126698514D01*
X83953707Y-126698523D01*
X83954244Y-126704310D01*
X84012595Y-126909389D01*
X84015186Y-126914593D01*
X84015189Y-126914600D01*
X84105037Y-127095040D01*
X84107634Y-127100255D01*
X84111142Y-127104900D01*
X84111145Y-127104905D01*
X84220751Y-127250045D01*
X84236128Y-127270407D01*
X84240430Y-127274329D01*
X84240433Y-127274332D01*
X84389394Y-127410129D01*
X84389398Y-127410132D01*
X84393698Y-127414052D01*
X84515193Y-127489278D01*
X84556354Y-127514765D01*
X84574981Y-127526298D01*
X84580411Y-127528401D01*
X84580414Y-127528403D01*
X84652229Y-127556223D01*
X84773802Y-127603321D01*
X84983390Y-127642500D01*
X85190783Y-127642500D01*
X85196610Y-127642500D01*
X85406198Y-127603321D01*
X85605019Y-127526298D01*
X85786302Y-127414052D01*
X85943872Y-127270407D01*
X86072366Y-127100255D01*
X86167405Y-126909389D01*
X86225756Y-126704310D01*
X86234536Y-126609546D01*
X86254966Y-126551573D01*
X86300390Y-126510164D01*
X86360000Y-126495171D01*
X86419610Y-126510164D01*
X86465034Y-126551573D01*
X86485463Y-126609546D01*
X86493706Y-126698514D01*
X86493707Y-126698523D01*
X86494244Y-126704310D01*
X86552595Y-126909389D01*
X86555186Y-126914593D01*
X86555189Y-126914600D01*
X86645037Y-127095040D01*
X86647634Y-127100255D01*
X86651142Y-127104900D01*
X86651145Y-127104905D01*
X86760751Y-127250045D01*
X86776128Y-127270407D01*
X86780430Y-127274329D01*
X86780433Y-127274332D01*
X86929394Y-127410129D01*
X86929398Y-127410132D01*
X86933698Y-127414052D01*
X87055193Y-127489278D01*
X87096354Y-127514765D01*
X87114981Y-127526298D01*
X87120411Y-127528401D01*
X87120414Y-127528403D01*
X87192229Y-127556223D01*
X87313802Y-127603321D01*
X87523390Y-127642500D01*
X87730783Y-127642500D01*
X87736610Y-127642500D01*
X87946198Y-127603321D01*
X88145019Y-127526298D01*
X88326302Y-127414052D01*
X88483872Y-127270407D01*
X88612366Y-127100255D01*
X88707405Y-126909389D01*
X88765756Y-126704310D01*
X88774536Y-126609546D01*
X88794966Y-126551573D01*
X88840390Y-126510164D01*
X88900000Y-126495171D01*
X88959610Y-126510164D01*
X89005034Y-126551573D01*
X89025463Y-126609546D01*
X89033706Y-126698514D01*
X89033707Y-126698523D01*
X89034244Y-126704310D01*
X89092595Y-126909389D01*
X89095186Y-126914593D01*
X89095189Y-126914600D01*
X89185037Y-127095040D01*
X89187634Y-127100255D01*
X89191142Y-127104900D01*
X89191145Y-127104905D01*
X89300751Y-127250045D01*
X89316128Y-127270407D01*
X89320430Y-127274329D01*
X89320433Y-127274332D01*
X89469394Y-127410129D01*
X89469398Y-127410132D01*
X89473698Y-127414052D01*
X89595193Y-127489278D01*
X89636354Y-127514765D01*
X89654981Y-127526298D01*
X89660411Y-127528401D01*
X89660414Y-127528403D01*
X89732229Y-127556223D01*
X89853802Y-127603321D01*
X90063390Y-127642500D01*
X90270783Y-127642500D01*
X90276610Y-127642500D01*
X90486198Y-127603321D01*
X90685019Y-127526298D01*
X90866302Y-127414052D01*
X91023872Y-127270407D01*
X91152366Y-127100255D01*
X91247405Y-126909389D01*
X91305756Y-126704310D01*
X91314536Y-126609546D01*
X91334966Y-126551573D01*
X91380390Y-126510164D01*
X91440000Y-126495171D01*
X91499610Y-126510164D01*
X91545034Y-126551573D01*
X91565463Y-126609546D01*
X91573706Y-126698514D01*
X91573707Y-126698523D01*
X91574244Y-126704310D01*
X91632595Y-126909389D01*
X91635186Y-126914593D01*
X91635189Y-126914600D01*
X91725037Y-127095040D01*
X91727634Y-127100255D01*
X91731142Y-127104900D01*
X91731145Y-127104905D01*
X91840751Y-127250045D01*
X91856128Y-127270407D01*
X91860430Y-127274329D01*
X91860433Y-127274332D01*
X92009394Y-127410129D01*
X92009398Y-127410132D01*
X92013698Y-127414052D01*
X92135193Y-127489278D01*
X92176354Y-127514765D01*
X92194981Y-127526298D01*
X92200411Y-127528401D01*
X92200414Y-127528403D01*
X92272229Y-127556223D01*
X92393802Y-127603321D01*
X92603390Y-127642500D01*
X92810783Y-127642500D01*
X92816610Y-127642500D01*
X93026198Y-127603321D01*
X93225019Y-127526298D01*
X93406302Y-127414052D01*
X93563872Y-127270407D01*
X93692366Y-127100255D01*
X93787405Y-126909389D01*
X93845756Y-126704310D01*
X93854536Y-126609546D01*
X93874966Y-126551573D01*
X93920390Y-126510164D01*
X93980000Y-126495171D01*
X94039610Y-126510164D01*
X94085034Y-126551573D01*
X94105463Y-126609546D01*
X94113706Y-126698514D01*
X94113707Y-126698523D01*
X94114244Y-126704310D01*
X94172595Y-126909389D01*
X94175186Y-126914593D01*
X94175189Y-126914600D01*
X94265037Y-127095040D01*
X94267634Y-127100255D01*
X94271142Y-127104900D01*
X94271145Y-127104905D01*
X94380751Y-127250045D01*
X94396128Y-127270407D01*
X94400430Y-127274329D01*
X94400433Y-127274332D01*
X94549394Y-127410129D01*
X94549398Y-127410132D01*
X94553698Y-127414052D01*
X94675193Y-127489278D01*
X94716354Y-127514765D01*
X94734981Y-127526298D01*
X94740411Y-127528401D01*
X94740414Y-127528403D01*
X94812229Y-127556223D01*
X94933802Y-127603321D01*
X95143390Y-127642500D01*
X95350783Y-127642500D01*
X95356610Y-127642500D01*
X95566198Y-127603321D01*
X95765019Y-127526298D01*
X95946302Y-127414052D01*
X96103872Y-127270407D01*
X96232366Y-127100255D01*
X96327405Y-126909389D01*
X96385756Y-126704310D01*
X96394536Y-126609546D01*
X96414966Y-126551573D01*
X96460390Y-126510164D01*
X96520000Y-126495171D01*
X96579610Y-126510164D01*
X96625034Y-126551573D01*
X96645463Y-126609546D01*
X96653706Y-126698514D01*
X96653707Y-126698523D01*
X96654244Y-126704310D01*
X96712595Y-126909389D01*
X96715186Y-126914593D01*
X96715189Y-126914600D01*
X96805037Y-127095040D01*
X96807634Y-127100255D01*
X96811142Y-127104900D01*
X96811145Y-127104905D01*
X96920751Y-127250045D01*
X96936128Y-127270407D01*
X96940430Y-127274329D01*
X96940433Y-127274332D01*
X97089394Y-127410129D01*
X97089398Y-127410132D01*
X97093698Y-127414052D01*
X97215193Y-127489278D01*
X97256354Y-127514765D01*
X97274981Y-127526298D01*
X97280411Y-127528401D01*
X97280414Y-127528403D01*
X97352229Y-127556223D01*
X97473802Y-127603321D01*
X97683390Y-127642500D01*
X97890783Y-127642500D01*
X97896610Y-127642500D01*
X98106198Y-127603321D01*
X98305019Y-127526298D01*
X98486302Y-127414052D01*
X98643872Y-127270407D01*
X98772366Y-127100255D01*
X98867405Y-126909389D01*
X98925756Y-126704310D01*
X98934536Y-126609546D01*
X98954966Y-126551573D01*
X99000390Y-126510164D01*
X99060000Y-126495171D01*
X99119610Y-126510164D01*
X99165034Y-126551573D01*
X99185463Y-126609546D01*
X99193706Y-126698514D01*
X99193707Y-126698523D01*
X99194244Y-126704310D01*
X99252595Y-126909389D01*
X99255186Y-126914593D01*
X99255189Y-126914600D01*
X99345037Y-127095040D01*
X99347634Y-127100255D01*
X99351142Y-127104900D01*
X99351145Y-127104905D01*
X99460751Y-127250045D01*
X99476128Y-127270407D01*
X99480430Y-127274329D01*
X99480433Y-127274332D01*
X99629394Y-127410129D01*
X99629398Y-127410132D01*
X99633698Y-127414052D01*
X99755193Y-127489278D01*
X99796354Y-127514765D01*
X99814981Y-127526298D01*
X99820411Y-127528401D01*
X99820414Y-127528403D01*
X99892229Y-127556223D01*
X100013802Y-127603321D01*
X100223390Y-127642500D01*
X100430783Y-127642500D01*
X100436610Y-127642500D01*
X100646198Y-127603321D01*
X100845019Y-127526298D01*
X101026302Y-127414052D01*
X101183872Y-127270407D01*
X101312366Y-127100255D01*
X101407405Y-126909389D01*
X101465756Y-126704310D01*
X101485429Y-126492000D01*
X101465756Y-126279690D01*
X101407405Y-126074611D01*
X101312366Y-125883745D01*
X101287260Y-125850500D01*
X101230346Y-125775134D01*
X101183872Y-125713593D01*
X101179568Y-125709670D01*
X101179566Y-125709667D01*
X101030605Y-125573870D01*
X101030600Y-125573866D01*
X101026302Y-125569948D01*
X100985415Y-125544632D01*
X100849975Y-125460770D01*
X100849969Y-125460767D01*
X100845019Y-125457702D01*
X100839592Y-125455599D01*
X100839585Y-125455596D01*
X100651627Y-125382782D01*
X100651625Y-125382781D01*
X100646198Y-125380679D01*
X100640476Y-125379609D01*
X100640475Y-125379609D01*
X100442335Y-125342570D01*
X100442332Y-125342569D01*
X100436610Y-125341500D01*
X100223390Y-125341500D01*
X100217668Y-125342569D01*
X100217664Y-125342570D01*
X100019524Y-125379609D01*
X100019520Y-125379610D01*
X100013802Y-125380679D01*
X100008377Y-125382780D01*
X100008372Y-125382782D01*
X99820414Y-125455596D01*
X99820402Y-125455601D01*
X99814981Y-125457702D01*
X99810034Y-125460764D01*
X99810024Y-125460770D01*
X99638649Y-125566882D01*
X99638645Y-125566884D01*
X99633698Y-125569948D01*
X99629404Y-125573862D01*
X99629394Y-125573870D01*
X99480433Y-125709667D01*
X99480425Y-125709675D01*
X99476128Y-125713593D01*
X99472619Y-125718239D01*
X99472615Y-125718244D01*
X99351145Y-125879094D01*
X99351139Y-125879103D01*
X99347634Y-125883745D01*
X99345040Y-125888952D01*
X99345037Y-125888959D01*
X99255189Y-126069399D01*
X99255184Y-126069410D01*
X99252595Y-126074611D01*
X99251003Y-126080204D01*
X99251001Y-126080211D01*
X99195837Y-126274090D01*
X99194244Y-126279690D01*
X99193707Y-126285482D01*
X99193707Y-126285484D01*
X99185463Y-126374454D01*
X99165034Y-126432426D01*
X99119610Y-126473835D01*
X99060000Y-126488828D01*
X99000390Y-126473835D01*
X98954966Y-126432426D01*
X98934537Y-126374454D01*
X98934452Y-126373542D01*
X98925756Y-126279690D01*
X98867405Y-126074611D01*
X98772366Y-125883745D01*
X98747260Y-125850500D01*
X98690346Y-125775134D01*
X98643872Y-125713593D01*
X98639568Y-125709670D01*
X98639566Y-125709667D01*
X98490605Y-125573870D01*
X98490600Y-125573866D01*
X98486302Y-125569948D01*
X98445415Y-125544632D01*
X98309975Y-125460770D01*
X98309969Y-125460767D01*
X98305019Y-125457702D01*
X98299592Y-125455599D01*
X98299585Y-125455596D01*
X98111627Y-125382782D01*
X98111625Y-125382781D01*
X98106198Y-125380679D01*
X98100476Y-125379609D01*
X98100475Y-125379609D01*
X97902335Y-125342570D01*
X97902332Y-125342569D01*
X97896610Y-125341500D01*
X97683390Y-125341500D01*
X97677668Y-125342569D01*
X97677664Y-125342570D01*
X97479524Y-125379609D01*
X97479520Y-125379610D01*
X97473802Y-125380679D01*
X97468377Y-125382780D01*
X97468372Y-125382782D01*
X97280414Y-125455596D01*
X97280402Y-125455601D01*
X97274981Y-125457702D01*
X97270034Y-125460764D01*
X97270024Y-125460770D01*
X97098649Y-125566882D01*
X97098645Y-125566884D01*
X97093698Y-125569948D01*
X97089404Y-125573862D01*
X97089394Y-125573870D01*
X96940433Y-125709667D01*
X96940425Y-125709675D01*
X96936128Y-125713593D01*
X96932619Y-125718239D01*
X96932615Y-125718244D01*
X96811145Y-125879094D01*
X96811139Y-125879103D01*
X96807634Y-125883745D01*
X96805040Y-125888952D01*
X96805037Y-125888959D01*
X96715189Y-126069399D01*
X96715184Y-126069410D01*
X96712595Y-126074611D01*
X96711003Y-126080204D01*
X96711001Y-126080211D01*
X96655837Y-126274090D01*
X96654244Y-126279690D01*
X96653707Y-126285482D01*
X96653707Y-126285484D01*
X96645463Y-126374454D01*
X96625034Y-126432426D01*
X96579610Y-126473835D01*
X96520000Y-126488828D01*
X96460390Y-126473835D01*
X96414966Y-126432426D01*
X96394537Y-126374454D01*
X96394452Y-126373542D01*
X96385756Y-126279690D01*
X96327405Y-126074611D01*
X96232366Y-125883745D01*
X96207260Y-125850500D01*
X96150346Y-125775134D01*
X96103872Y-125713593D01*
X96099568Y-125709670D01*
X96099566Y-125709667D01*
X95950605Y-125573870D01*
X95950600Y-125573866D01*
X95946302Y-125569948D01*
X95905415Y-125544632D01*
X95769975Y-125460770D01*
X95769969Y-125460767D01*
X95765019Y-125457702D01*
X95759592Y-125455599D01*
X95759585Y-125455596D01*
X95571627Y-125382782D01*
X95571625Y-125382781D01*
X95566198Y-125380679D01*
X95560476Y-125379609D01*
X95560475Y-125379609D01*
X95362335Y-125342570D01*
X95362332Y-125342569D01*
X95356610Y-125341500D01*
X95143390Y-125341500D01*
X95137668Y-125342569D01*
X95137664Y-125342570D01*
X94939524Y-125379609D01*
X94939520Y-125379610D01*
X94933802Y-125380679D01*
X94928377Y-125382780D01*
X94928372Y-125382782D01*
X94740414Y-125455596D01*
X94740402Y-125455601D01*
X94734981Y-125457702D01*
X94730034Y-125460764D01*
X94730024Y-125460770D01*
X94558649Y-125566882D01*
X94558645Y-125566884D01*
X94553698Y-125569948D01*
X94549404Y-125573862D01*
X94549394Y-125573870D01*
X94400433Y-125709667D01*
X94400425Y-125709675D01*
X94396128Y-125713593D01*
X94392619Y-125718239D01*
X94392615Y-125718244D01*
X94271145Y-125879094D01*
X94271139Y-125879103D01*
X94267634Y-125883745D01*
X94265040Y-125888952D01*
X94265037Y-125888959D01*
X94175189Y-126069399D01*
X94175184Y-126069410D01*
X94172595Y-126074611D01*
X94171003Y-126080204D01*
X94171001Y-126080211D01*
X94115837Y-126274090D01*
X94114244Y-126279690D01*
X94113707Y-126285482D01*
X94113707Y-126285484D01*
X94105463Y-126374454D01*
X94085034Y-126432426D01*
X94039610Y-126473835D01*
X93980000Y-126488828D01*
X93920390Y-126473835D01*
X93874966Y-126432426D01*
X93854537Y-126374454D01*
X93854452Y-126373542D01*
X93845756Y-126279690D01*
X93787405Y-126074611D01*
X93692366Y-125883745D01*
X93667260Y-125850500D01*
X93610346Y-125775134D01*
X93563872Y-125713593D01*
X93559568Y-125709670D01*
X93559566Y-125709667D01*
X93410605Y-125573870D01*
X93410600Y-125573866D01*
X93406302Y-125569948D01*
X93365415Y-125544632D01*
X93229975Y-125460770D01*
X93229969Y-125460767D01*
X93225019Y-125457702D01*
X93219592Y-125455599D01*
X93219585Y-125455596D01*
X93031627Y-125382782D01*
X93031625Y-125382781D01*
X93026198Y-125380679D01*
X93020476Y-125379609D01*
X93020475Y-125379609D01*
X92822335Y-125342570D01*
X92822332Y-125342569D01*
X92816610Y-125341500D01*
X92603390Y-125341500D01*
X92597668Y-125342569D01*
X92597664Y-125342570D01*
X92399524Y-125379609D01*
X92399520Y-125379610D01*
X92393802Y-125380679D01*
X92388377Y-125382780D01*
X92388372Y-125382782D01*
X92200414Y-125455596D01*
X92200402Y-125455601D01*
X92194981Y-125457702D01*
X92190034Y-125460764D01*
X92190024Y-125460770D01*
X92018649Y-125566882D01*
X92018645Y-125566884D01*
X92013698Y-125569948D01*
X92009404Y-125573862D01*
X92009394Y-125573870D01*
X91860433Y-125709667D01*
X91860425Y-125709675D01*
X91856128Y-125713593D01*
X91852619Y-125718239D01*
X91852615Y-125718244D01*
X91731145Y-125879094D01*
X91731139Y-125879103D01*
X91727634Y-125883745D01*
X91725040Y-125888952D01*
X91725037Y-125888959D01*
X91635189Y-126069399D01*
X91635184Y-126069410D01*
X91632595Y-126074611D01*
X91631003Y-126080204D01*
X91631001Y-126080211D01*
X91575837Y-126274090D01*
X91574244Y-126279690D01*
X91573707Y-126285482D01*
X91573707Y-126285484D01*
X91565463Y-126374454D01*
X91545034Y-126432426D01*
X91499610Y-126473835D01*
X91440000Y-126488828D01*
X91380390Y-126473835D01*
X91334966Y-126432426D01*
X91314537Y-126374454D01*
X91314452Y-126373542D01*
X91305756Y-126279690D01*
X91247405Y-126074611D01*
X91152366Y-125883745D01*
X91127260Y-125850500D01*
X91070346Y-125775134D01*
X91023872Y-125713593D01*
X91019568Y-125709670D01*
X91019566Y-125709667D01*
X90870605Y-125573870D01*
X90870600Y-125573866D01*
X90866302Y-125569948D01*
X90825415Y-125544632D01*
X90689975Y-125460770D01*
X90689969Y-125460767D01*
X90685019Y-125457702D01*
X90679592Y-125455599D01*
X90679585Y-125455596D01*
X90491627Y-125382782D01*
X90491625Y-125382781D01*
X90486198Y-125380679D01*
X90480476Y-125379609D01*
X90480475Y-125379609D01*
X90282335Y-125342570D01*
X90282332Y-125342569D01*
X90276610Y-125341500D01*
X90063390Y-125341500D01*
X90057668Y-125342569D01*
X90057664Y-125342570D01*
X89859524Y-125379609D01*
X89859520Y-125379610D01*
X89853802Y-125380679D01*
X89848377Y-125382780D01*
X89848372Y-125382782D01*
X89660414Y-125455596D01*
X89660402Y-125455601D01*
X89654981Y-125457702D01*
X89650034Y-125460764D01*
X89650024Y-125460770D01*
X89478649Y-125566882D01*
X89478645Y-125566884D01*
X89473698Y-125569948D01*
X89469404Y-125573862D01*
X89469394Y-125573870D01*
X89320433Y-125709667D01*
X89320425Y-125709675D01*
X89316128Y-125713593D01*
X89312619Y-125718239D01*
X89312615Y-125718244D01*
X89191145Y-125879094D01*
X89191139Y-125879103D01*
X89187634Y-125883745D01*
X89185040Y-125888952D01*
X89185037Y-125888959D01*
X89095189Y-126069399D01*
X89095184Y-126069410D01*
X89092595Y-126074611D01*
X89091003Y-126080204D01*
X89091001Y-126080211D01*
X89035837Y-126274090D01*
X89034244Y-126279690D01*
X89033707Y-126285482D01*
X89033707Y-126285484D01*
X89025463Y-126374454D01*
X89005034Y-126432426D01*
X88959610Y-126473835D01*
X88900000Y-126488828D01*
X88840390Y-126473835D01*
X88794966Y-126432426D01*
X88774537Y-126374454D01*
X88774452Y-126373542D01*
X88765756Y-126279690D01*
X88707405Y-126074611D01*
X88612366Y-125883745D01*
X88587260Y-125850500D01*
X88530346Y-125775134D01*
X88483872Y-125713593D01*
X88479568Y-125709670D01*
X88479566Y-125709667D01*
X88330605Y-125573870D01*
X88330600Y-125573866D01*
X88326302Y-125569948D01*
X88285415Y-125544632D01*
X88149975Y-125460770D01*
X88149969Y-125460767D01*
X88145019Y-125457702D01*
X88139592Y-125455599D01*
X88139585Y-125455596D01*
X87951627Y-125382782D01*
X87951625Y-125382781D01*
X87946198Y-125380679D01*
X87940476Y-125379609D01*
X87940475Y-125379609D01*
X87742335Y-125342570D01*
X87742332Y-125342569D01*
X87736610Y-125341500D01*
X87523390Y-125341500D01*
X87517668Y-125342569D01*
X87517664Y-125342570D01*
X87319524Y-125379609D01*
X87319520Y-125379610D01*
X87313802Y-125380679D01*
X87308377Y-125382780D01*
X87308372Y-125382782D01*
X87120414Y-125455596D01*
X87120402Y-125455601D01*
X87114981Y-125457702D01*
X87110034Y-125460764D01*
X87110024Y-125460770D01*
X86938649Y-125566882D01*
X86938645Y-125566884D01*
X86933698Y-125569948D01*
X86929404Y-125573862D01*
X86929394Y-125573870D01*
X86780433Y-125709667D01*
X86780425Y-125709675D01*
X86776128Y-125713593D01*
X86772619Y-125718239D01*
X86772615Y-125718244D01*
X86651145Y-125879094D01*
X86651139Y-125879103D01*
X86647634Y-125883745D01*
X86645040Y-125888952D01*
X86645037Y-125888959D01*
X86555189Y-126069399D01*
X86555184Y-126069410D01*
X86552595Y-126074611D01*
X86551003Y-126080204D01*
X86551001Y-126080211D01*
X86495837Y-126274090D01*
X86494244Y-126279690D01*
X86493707Y-126285482D01*
X86493707Y-126285484D01*
X86485463Y-126374454D01*
X86465034Y-126432426D01*
X86419610Y-126473835D01*
X86360000Y-126488828D01*
X86300390Y-126473835D01*
X86254966Y-126432426D01*
X86234537Y-126374454D01*
X86234452Y-126373542D01*
X86225756Y-126279690D01*
X86167405Y-126074611D01*
X86072366Y-125883745D01*
X86047260Y-125850500D01*
X85990346Y-125775134D01*
X85943872Y-125713593D01*
X85939568Y-125709670D01*
X85939566Y-125709667D01*
X85790605Y-125573870D01*
X85790600Y-125573866D01*
X85786302Y-125569948D01*
X85745415Y-125544632D01*
X85609975Y-125460770D01*
X85609969Y-125460767D01*
X85605019Y-125457702D01*
X85599592Y-125455599D01*
X85599585Y-125455596D01*
X85411627Y-125382782D01*
X85411625Y-125382781D01*
X85406198Y-125380679D01*
X85400476Y-125379609D01*
X85400475Y-125379609D01*
X85202335Y-125342570D01*
X85202332Y-125342569D01*
X85196610Y-125341500D01*
X84983390Y-125341500D01*
X84977668Y-125342569D01*
X84977664Y-125342570D01*
X84779524Y-125379609D01*
X84779520Y-125379610D01*
X84773802Y-125380679D01*
X84768377Y-125382780D01*
X84768372Y-125382782D01*
X84580414Y-125455596D01*
X84580402Y-125455601D01*
X84574981Y-125457702D01*
X84570034Y-125460764D01*
X84570024Y-125460770D01*
X84398649Y-125566882D01*
X84398645Y-125566884D01*
X84393698Y-125569948D01*
X84389404Y-125573862D01*
X84389394Y-125573870D01*
X84240433Y-125709667D01*
X84240425Y-125709675D01*
X84236128Y-125713593D01*
X84232619Y-125718239D01*
X84232615Y-125718244D01*
X84111145Y-125879094D01*
X84111139Y-125879103D01*
X84107634Y-125883745D01*
X84105040Y-125888952D01*
X84105037Y-125888959D01*
X84015189Y-126069399D01*
X84015184Y-126069410D01*
X84012595Y-126074611D01*
X84011003Y-126080204D01*
X84011001Y-126080211D01*
X83955837Y-126274090D01*
X83954244Y-126279690D01*
X83953707Y-126285482D01*
X83953707Y-126285484D01*
X83945463Y-126374454D01*
X83925034Y-126432426D01*
X83879610Y-126473835D01*
X83820000Y-126488828D01*
X83760390Y-126473835D01*
X83714966Y-126432426D01*
X83694537Y-126374454D01*
X83694452Y-126373542D01*
X83685756Y-126279690D01*
X83627405Y-126074611D01*
X83532366Y-125883745D01*
X83507260Y-125850500D01*
X83450346Y-125775134D01*
X83403872Y-125713593D01*
X83399568Y-125709670D01*
X83399566Y-125709667D01*
X83250605Y-125573870D01*
X83250600Y-125573866D01*
X83246302Y-125569948D01*
X83205415Y-125544632D01*
X83069975Y-125460770D01*
X83069969Y-125460767D01*
X83065019Y-125457702D01*
X83059592Y-125455599D01*
X83059585Y-125455596D01*
X82871627Y-125382782D01*
X82871625Y-125382781D01*
X82866198Y-125380679D01*
X82860476Y-125379609D01*
X82860475Y-125379609D01*
X82662335Y-125342570D01*
X82662332Y-125342569D01*
X82656610Y-125341500D01*
X82443390Y-125341500D01*
X82437668Y-125342569D01*
X82437664Y-125342570D01*
X82239524Y-125379609D01*
X82239520Y-125379610D01*
X82233802Y-125380679D01*
X82228377Y-125382780D01*
X82228372Y-125382782D01*
X82040414Y-125455596D01*
X82040402Y-125455601D01*
X82034981Y-125457702D01*
X82030034Y-125460764D01*
X82030024Y-125460770D01*
X81858649Y-125566882D01*
X81858645Y-125566884D01*
X81853698Y-125569948D01*
X81849404Y-125573862D01*
X81849394Y-125573870D01*
X81700433Y-125709667D01*
X81700425Y-125709675D01*
X81696128Y-125713593D01*
X81692619Y-125718239D01*
X81692615Y-125718244D01*
X81571145Y-125879094D01*
X81571139Y-125879103D01*
X81567634Y-125883745D01*
X81565040Y-125888952D01*
X81565037Y-125888959D01*
X81475189Y-126069399D01*
X81475184Y-126069410D01*
X81472595Y-126074611D01*
X81471003Y-126080204D01*
X81471001Y-126080211D01*
X81415837Y-126274090D01*
X81414244Y-126279690D01*
X81413707Y-126285482D01*
X81413707Y-126285484D01*
X81405463Y-126374454D01*
X81385034Y-126432426D01*
X81339610Y-126473835D01*
X81280000Y-126488828D01*
X81220390Y-126473835D01*
X81174966Y-126432426D01*
X81154537Y-126374454D01*
X81154452Y-126373542D01*
X81145756Y-126279690D01*
X81087405Y-126074611D01*
X80992366Y-125883745D01*
X80967260Y-125850500D01*
X80910346Y-125775134D01*
X80863872Y-125713593D01*
X80859568Y-125709670D01*
X80859566Y-125709667D01*
X80710605Y-125573870D01*
X80710600Y-125573866D01*
X80706302Y-125569948D01*
X80665415Y-125544632D01*
X80529975Y-125460770D01*
X80529969Y-125460767D01*
X80525019Y-125457702D01*
X80519592Y-125455599D01*
X80519585Y-125455596D01*
X80331627Y-125382782D01*
X80331625Y-125382781D01*
X80326198Y-125380679D01*
X80320476Y-125379609D01*
X80320475Y-125379609D01*
X80122335Y-125342570D01*
X80122332Y-125342569D01*
X80116610Y-125341500D01*
X79903390Y-125341500D01*
X79897668Y-125342569D01*
X79897664Y-125342570D01*
X79699524Y-125379609D01*
X79699520Y-125379610D01*
X79693802Y-125380679D01*
X79688377Y-125382780D01*
X79688372Y-125382782D01*
X79500414Y-125455596D01*
X79500402Y-125455601D01*
X79494981Y-125457702D01*
X79490034Y-125460764D01*
X79490024Y-125460770D01*
X79318649Y-125566882D01*
X79318645Y-125566884D01*
X79313698Y-125569948D01*
X79309404Y-125573862D01*
X79309394Y-125573870D01*
X79160433Y-125709667D01*
X79160425Y-125709675D01*
X79156128Y-125713593D01*
X79152619Y-125718239D01*
X79152615Y-125718244D01*
X79031145Y-125879094D01*
X79031139Y-125879103D01*
X79027634Y-125883745D01*
X79025040Y-125888952D01*
X79025037Y-125888959D01*
X78935189Y-126069399D01*
X78935184Y-126069410D01*
X78932595Y-126074611D01*
X78931003Y-126080204D01*
X78931001Y-126080211D01*
X78875837Y-126274090D01*
X78874244Y-126279690D01*
X78873707Y-126285481D01*
X78873705Y-126285494D01*
X78871961Y-126304315D01*
X78850448Y-126363895D01*
X78802661Y-126405478D01*
X78740679Y-126418553D01*
X78680168Y-126399814D01*
X78636422Y-126353999D01*
X78620499Y-126292687D01*
X78620499Y-125600774D01*
X78620499Y-125600768D01*
X78620499Y-125597136D01*
X78617585Y-125572009D01*
X78572206Y-125469235D01*
X78492765Y-125389794D01*
X78482084Y-125385078D01*
X78482083Y-125385077D01*
X78398662Y-125348243D01*
X78398658Y-125348242D01*
X78389991Y-125344415D01*
X78380580Y-125343323D01*
X78380576Y-125343322D01*
X78368469Y-125341918D01*
X78368466Y-125341917D01*
X78364865Y-125341500D01*
X78361231Y-125341500D01*
X76578773Y-125341500D01*
X76578755Y-125341500D01*
X76575136Y-125341501D01*
X76571526Y-125341919D01*
X76571520Y-125341920D01*
X76559424Y-125343323D01*
X76559423Y-125343323D01*
X76550009Y-125344415D01*
X76541341Y-125348242D01*
X76541338Y-125348243D01*
X76457916Y-125385077D01*
X76457912Y-125385079D01*
X76447235Y-125389794D01*
X76438980Y-125398048D01*
X76438977Y-125398051D01*
X76376051Y-125460977D01*
X76376048Y-125460980D01*
X76367794Y-125469235D01*
X76363079Y-125479912D01*
X76363077Y-125479916D01*
X76326243Y-125563337D01*
X76326241Y-125563343D01*
X76322415Y-125572009D01*
X76321323Y-125581417D01*
X76321322Y-125581423D01*
X76319919Y-125593520D01*
X76319500Y-125597135D01*
X76319500Y-125600767D01*
X76319500Y-125600768D01*
X76319500Y-127383226D01*
X76319500Y-127383243D01*
X50250000Y-127383243D01*
X50250000Y-124067765D01*
X53145788Y-124067765D01*
X53146290Y-124072332D01*
X53146291Y-124072344D01*
X53174910Y-124332444D01*
X53174911Y-124332453D01*
X53175414Y-124337018D01*
X53176576Y-124341463D01*
X53176577Y-124341468D01*
X53187880Y-124384701D01*
X53243928Y-124599088D01*
X53245725Y-124603318D01*
X53245728Y-124603325D01*
X53319439Y-124776780D01*
X53349870Y-124848390D01*
X53490982Y-125079610D01*
X53664255Y-125287820D01*
X53725360Y-125342570D01*
X53862561Y-125465503D01*
X53862565Y-125465506D01*
X53865998Y-125468582D01*
X54091910Y-125618044D01*
X54337176Y-125733020D01*
X54596569Y-125811060D01*
X54864561Y-125850500D01*
X55065330Y-125850500D01*
X55067631Y-125850500D01*
X55270156Y-125835677D01*
X55534553Y-125776780D01*
X55787558Y-125680014D01*
X56023777Y-125547441D01*
X56238177Y-125381888D01*
X56426186Y-125186881D01*
X56583799Y-124966579D01*
X56707656Y-124725675D01*
X56795118Y-124469305D01*
X56844319Y-124202933D01*
X56854212Y-123932235D01*
X56824586Y-123662982D01*
X56756072Y-123400912D01*
X56650130Y-123151610D01*
X56598960Y-123067765D01*
X131145788Y-123067765D01*
X131146290Y-123072332D01*
X131146291Y-123072344D01*
X131174910Y-123332444D01*
X131174911Y-123332453D01*
X131175414Y-123337018D01*
X131176576Y-123341463D01*
X131176577Y-123341468D01*
X131242763Y-123594632D01*
X131243928Y-123599088D01*
X131245725Y-123603318D01*
X131245728Y-123603325D01*
X131271080Y-123662982D01*
X131349870Y-123848390D01*
X131352265Y-123852315D01*
X131352266Y-123852316D01*
X131486547Y-124072344D01*
X131490982Y-124079610D01*
X131664255Y-124287820D01*
X131724130Y-124341468D01*
X131862561Y-124465503D01*
X131862565Y-124465506D01*
X131865998Y-124468582D01*
X132091910Y-124618044D01*
X132337176Y-124733020D01*
X132596569Y-124811060D01*
X132864561Y-124850500D01*
X133065330Y-124850500D01*
X133067631Y-124850500D01*
X133270156Y-124835677D01*
X133534553Y-124776780D01*
X133787558Y-124680014D01*
X134023777Y-124547441D01*
X134238177Y-124381888D01*
X134426186Y-124186881D01*
X134583799Y-123966579D01*
X134707656Y-123725675D01*
X134795118Y-123469305D01*
X134844319Y-123202933D01*
X134854212Y-122932235D01*
X134824586Y-122662982D01*
X134756072Y-122400912D01*
X134650130Y-122151610D01*
X134509018Y-121920390D01*
X134335745Y-121712180D01*
X134260137Y-121644435D01*
X134137438Y-121534496D01*
X134137432Y-121534491D01*
X134134002Y-121531418D01*
X133908090Y-121381956D01*
X133662824Y-121266980D01*
X133658420Y-121265655D01*
X133407843Y-121190267D01*
X133407838Y-121190265D01*
X133403431Y-121188940D01*
X133398874Y-121188269D01*
X133398868Y-121188268D01*
X133140000Y-121150171D01*
X133139996Y-121150170D01*
X133135439Y-121149500D01*
X132932369Y-121149500D01*
X132930098Y-121149666D01*
X132930076Y-121149667D01*
X132734438Y-121163986D01*
X132734427Y-121163987D01*
X132729844Y-121164323D01*
X132725353Y-121165323D01*
X132725349Y-121165324D01*
X132469939Y-121222219D01*
X132469934Y-121222220D01*
X132465447Y-121223220D01*
X132461149Y-121224863D01*
X132461145Y-121224865D01*
X132216746Y-121318339D01*
X132216735Y-121318343D01*
X132212442Y-121319986D01*
X132208434Y-121322235D01*
X132208422Y-121322241D01*
X131980232Y-121450308D01*
X131980221Y-121450314D01*
X131976223Y-121452559D01*
X131972589Y-121455364D01*
X131972586Y-121455367D01*
X131765466Y-121615298D01*
X131765458Y-121615305D01*
X131761823Y-121618112D01*
X131758632Y-121621421D01*
X131758625Y-121621428D01*
X131577011Y-121809802D01*
X131577004Y-121809809D01*
X131573814Y-121813119D01*
X131571136Y-121816861D01*
X131571131Y-121816868D01*
X131418885Y-122029668D01*
X131418878Y-122029677D01*
X131416201Y-122033421D01*
X131414097Y-122037512D01*
X131414091Y-122037523D01*
X131294453Y-122270222D01*
X131292344Y-122274325D01*
X131290856Y-122278684D01*
X131290854Y-122278691D01*
X131206371Y-122526327D01*
X131206367Y-122526341D01*
X131204882Y-122530695D01*
X131204044Y-122535228D01*
X131204044Y-122535231D01*
X131156517Y-122792537D01*
X131156515Y-122792546D01*
X131155681Y-122797067D01*
X131155513Y-122801656D01*
X131155512Y-122801668D01*
X131147180Y-123029668D01*
X131145788Y-123067765D01*
X56598960Y-123067765D01*
X56509018Y-122920390D01*
X56335745Y-122712180D01*
X56260137Y-122644435D01*
X56137438Y-122534496D01*
X56137432Y-122534491D01*
X56134002Y-122531418D01*
X55936742Y-122400912D01*
X55911925Y-122384493D01*
X55911922Y-122384491D01*
X55908090Y-122381956D01*
X55662824Y-122266980D01*
X55658420Y-122265655D01*
X55407843Y-122190267D01*
X55407838Y-122190265D01*
X55403431Y-122188940D01*
X55398874Y-122188269D01*
X55398868Y-122188268D01*
X55140000Y-122150171D01*
X55139996Y-122150170D01*
X55135439Y-122149500D01*
X54932369Y-122149500D01*
X54930098Y-122149666D01*
X54930076Y-122149667D01*
X54734438Y-122163986D01*
X54734427Y-122163987D01*
X54729844Y-122164323D01*
X54725353Y-122165323D01*
X54725349Y-122165324D01*
X54469939Y-122222219D01*
X54469934Y-122222220D01*
X54465447Y-122223220D01*
X54461149Y-122224863D01*
X54461145Y-122224865D01*
X54216746Y-122318339D01*
X54216735Y-122318343D01*
X54212442Y-122319986D01*
X54208434Y-122322235D01*
X54208422Y-122322241D01*
X53980232Y-122450308D01*
X53980221Y-122450314D01*
X53976223Y-122452559D01*
X53972589Y-122455364D01*
X53972586Y-122455367D01*
X53765466Y-122615298D01*
X53765458Y-122615305D01*
X53761823Y-122618112D01*
X53758632Y-122621421D01*
X53758625Y-122621428D01*
X53577011Y-122809802D01*
X53577004Y-122809809D01*
X53573814Y-122813119D01*
X53571136Y-122816861D01*
X53571131Y-122816868D01*
X53418885Y-123029668D01*
X53418878Y-123029677D01*
X53416201Y-123033421D01*
X53414097Y-123037512D01*
X53414091Y-123037523D01*
X53294453Y-123270222D01*
X53292344Y-123274325D01*
X53290856Y-123278684D01*
X53290854Y-123278691D01*
X53206371Y-123526327D01*
X53206367Y-123526341D01*
X53204882Y-123530695D01*
X53204044Y-123535228D01*
X53204044Y-123535231D01*
X53156517Y-123792537D01*
X53156515Y-123792546D01*
X53155681Y-123797067D01*
X53155513Y-123801656D01*
X53155512Y-123801668D01*
X53145956Y-124063161D01*
X53145788Y-124067765D01*
X50250000Y-124067765D01*
X50250000Y-121666000D01*
X70822435Y-121666000D01*
X70823227Y-121673029D01*
X70839433Y-121816868D01*
X70842632Y-121845255D01*
X70844967Y-121851928D01*
X70844968Y-121851932D01*
X70899873Y-122008842D01*
X70899875Y-122008846D01*
X70902211Y-122015522D01*
X70905973Y-122021510D01*
X70905975Y-122021513D01*
X70990381Y-122155845D01*
X70998184Y-122168262D01*
X71125738Y-122295816D01*
X71278478Y-122391789D01*
X71448745Y-122451368D01*
X71628000Y-122471565D01*
X71807255Y-122451368D01*
X71977522Y-122391789D01*
X72130262Y-122295816D01*
X72133086Y-122292991D01*
X72168225Y-122273571D01*
X72209841Y-122266500D01*
X77142159Y-122266500D01*
X77183775Y-122273571D01*
X77218913Y-122292991D01*
X77221738Y-122295816D01*
X77374478Y-122391789D01*
X77544745Y-122451368D01*
X77724000Y-122471565D01*
X77903255Y-122451368D01*
X78073522Y-122391789D01*
X78226262Y-122295816D01*
X78353816Y-122168262D01*
X78449789Y-122015522D01*
X78509368Y-121845255D01*
X78529565Y-121666000D01*
X78509368Y-121486745D01*
X78449789Y-121316478D01*
X78370485Y-121190267D01*
X78357583Y-121169733D01*
X78357582Y-121169732D01*
X78353816Y-121163738D01*
X78226262Y-121036184D01*
X78220268Y-121032418D01*
X78220266Y-121032416D01*
X78079513Y-120943975D01*
X78079510Y-120943973D01*
X78073522Y-120940211D01*
X78066846Y-120937875D01*
X78066842Y-120937873D01*
X77909932Y-120882968D01*
X77909928Y-120882967D01*
X77903255Y-120880632D01*
X77896228Y-120879840D01*
X77896227Y-120879840D01*
X77731029Y-120861227D01*
X77724000Y-120860435D01*
X77716971Y-120861227D01*
X77551772Y-120879840D01*
X77551769Y-120879840D01*
X77544745Y-120880632D01*
X77538073Y-120882966D01*
X77538067Y-120882968D01*
X77381157Y-120937873D01*
X77381150Y-120937876D01*
X77374478Y-120940211D01*
X77368492Y-120943971D01*
X77368486Y-120943975D01*
X77227733Y-121032416D01*
X77227726Y-121032421D01*
X77221738Y-121036184D01*
X77218913Y-121039008D01*
X77183775Y-121058429D01*
X77142159Y-121065500D01*
X72209841Y-121065500D01*
X72168225Y-121058429D01*
X72133086Y-121039008D01*
X72130262Y-121036184D01*
X72124268Y-121032418D01*
X72124266Y-121032416D01*
X71983513Y-120943975D01*
X71983510Y-120943973D01*
X71977522Y-120940211D01*
X71970846Y-120937875D01*
X71970842Y-120937873D01*
X71813932Y-120882968D01*
X71813928Y-120882967D01*
X71807255Y-120880632D01*
X71800228Y-120879840D01*
X71800227Y-120879840D01*
X71635029Y-120861227D01*
X71628000Y-120860435D01*
X71620971Y-120861227D01*
X71455772Y-120879840D01*
X71455769Y-120879840D01*
X71448745Y-120880632D01*
X71442073Y-120882966D01*
X71442067Y-120882968D01*
X71285157Y-120937873D01*
X71285150Y-120937876D01*
X71278478Y-120940211D01*
X71272492Y-120943971D01*
X71272486Y-120943975D01*
X71131733Y-121032416D01*
X71131726Y-121032421D01*
X71125738Y-121036184D01*
X71120733Y-121041188D01*
X71120729Y-121041192D01*
X71003192Y-121158729D01*
X71003188Y-121158733D01*
X70998184Y-121163738D01*
X70994421Y-121169726D01*
X70994416Y-121169733D01*
X70905975Y-121310486D01*
X70905971Y-121310492D01*
X70902211Y-121316478D01*
X70899876Y-121323150D01*
X70899873Y-121323157D01*
X70844968Y-121480067D01*
X70844966Y-121480073D01*
X70842632Y-121486745D01*
X70841840Y-121493769D01*
X70841840Y-121493772D01*
X70837252Y-121534496D01*
X70822435Y-121666000D01*
X50250000Y-121666000D01*
X50250000Y-119634000D01*
X70822435Y-119634000D01*
X70842632Y-119813255D01*
X70844967Y-119819928D01*
X70844968Y-119819932D01*
X70899873Y-119976842D01*
X70899875Y-119976846D01*
X70902211Y-119983522D01*
X70998184Y-120136262D01*
X71125738Y-120263816D01*
X71278478Y-120359789D01*
X71448745Y-120419368D01*
X71628000Y-120439565D01*
X71807255Y-120419368D01*
X71977522Y-120359789D01*
X72130262Y-120263816D01*
X72133086Y-120260991D01*
X72168225Y-120241571D01*
X72209841Y-120234500D01*
X77650159Y-120234500D01*
X77691775Y-120241571D01*
X77726913Y-120260991D01*
X77729738Y-120263816D01*
X77882478Y-120359789D01*
X78052745Y-120419368D01*
X78232000Y-120439565D01*
X78411255Y-120419368D01*
X78581522Y-120359789D01*
X78734262Y-120263816D01*
X78861816Y-120136262D01*
X78957789Y-119983522D01*
X79017368Y-119813255D01*
X79037565Y-119634000D01*
X79017368Y-119454745D01*
X78957789Y-119284478D01*
X78861816Y-119131738D01*
X78734262Y-119004184D01*
X78728268Y-119000418D01*
X78728266Y-119000416D01*
X78726012Y-118999000D01*
X100667435Y-118999000D01*
X100687632Y-119178255D01*
X100689967Y-119184928D01*
X100689968Y-119184932D01*
X100744873Y-119341842D01*
X100744875Y-119341846D01*
X100747211Y-119348522D01*
X100750973Y-119354510D01*
X100750975Y-119354513D01*
X100818370Y-119461772D01*
X100843184Y-119501262D01*
X100970738Y-119628816D01*
X101123478Y-119724789D01*
X101293745Y-119784368D01*
X101473000Y-119804565D01*
X101652255Y-119784368D01*
X101822522Y-119724789D01*
X101975262Y-119628816D01*
X101978086Y-119625991D01*
X102013225Y-119606571D01*
X102054841Y-119599500D01*
X119560159Y-119599500D01*
X119601775Y-119606571D01*
X119636913Y-119625991D01*
X119639738Y-119628816D01*
X119792478Y-119724789D01*
X119962745Y-119784368D01*
X120142000Y-119804565D01*
X120321255Y-119784368D01*
X120491522Y-119724789D01*
X120644262Y-119628816D01*
X120771816Y-119501262D01*
X120867789Y-119348522D01*
X120927368Y-119178255D01*
X120947565Y-118999000D01*
X120927368Y-118819745D01*
X120867789Y-118649478D01*
X120771816Y-118496738D01*
X120644262Y-118369184D01*
X120638268Y-118365418D01*
X120638266Y-118365416D01*
X120497513Y-118276975D01*
X120497510Y-118276973D01*
X120491522Y-118273211D01*
X120484846Y-118270875D01*
X120484842Y-118270873D01*
X120327932Y-118215968D01*
X120327928Y-118215967D01*
X120321255Y-118213632D01*
X120314228Y-118212840D01*
X120314227Y-118212840D01*
X120149029Y-118194227D01*
X120142000Y-118193435D01*
X120134971Y-118194227D01*
X119969772Y-118212840D01*
X119969769Y-118212840D01*
X119962745Y-118213632D01*
X119956073Y-118215966D01*
X119956067Y-118215968D01*
X119799157Y-118270873D01*
X119799150Y-118270876D01*
X119792478Y-118273211D01*
X119786492Y-118276971D01*
X119786486Y-118276975D01*
X119645733Y-118365416D01*
X119645726Y-118365421D01*
X119639738Y-118369184D01*
X119636913Y-118372008D01*
X119601775Y-118391429D01*
X119560159Y-118398500D01*
X102054841Y-118398500D01*
X102013225Y-118391429D01*
X101978086Y-118372008D01*
X101975262Y-118369184D01*
X101969268Y-118365418D01*
X101969266Y-118365416D01*
X101828513Y-118276975D01*
X101828510Y-118276973D01*
X101822522Y-118273211D01*
X101815846Y-118270875D01*
X101815842Y-118270873D01*
X101658932Y-118215968D01*
X101658928Y-118215967D01*
X101652255Y-118213632D01*
X101645228Y-118212840D01*
X101645227Y-118212840D01*
X101480029Y-118194227D01*
X101473000Y-118193435D01*
X101465971Y-118194227D01*
X101300772Y-118212840D01*
X101300769Y-118212840D01*
X101293745Y-118213632D01*
X101287073Y-118215966D01*
X101287067Y-118215968D01*
X101130157Y-118270873D01*
X101130150Y-118270876D01*
X101123478Y-118273211D01*
X101117492Y-118276971D01*
X101117486Y-118276975D01*
X100976733Y-118365416D01*
X100976726Y-118365421D01*
X100970738Y-118369184D01*
X100965733Y-118374188D01*
X100965729Y-118374192D01*
X100848192Y-118491729D01*
X100848188Y-118491733D01*
X100843184Y-118496738D01*
X100839421Y-118502726D01*
X100839416Y-118502733D01*
X100750975Y-118643486D01*
X100750971Y-118643492D01*
X100747211Y-118649478D01*
X100744876Y-118656150D01*
X100744873Y-118656157D01*
X100689968Y-118813067D01*
X100689966Y-118813073D01*
X100687632Y-118819745D01*
X100686840Y-118826769D01*
X100686840Y-118826772D01*
X100684466Y-118847840D01*
X100667435Y-118999000D01*
X78726012Y-118999000D01*
X78587513Y-118911975D01*
X78587510Y-118911973D01*
X78581522Y-118908211D01*
X78574846Y-118905875D01*
X78574842Y-118905873D01*
X78417932Y-118850968D01*
X78417928Y-118850967D01*
X78411255Y-118848632D01*
X78404228Y-118847840D01*
X78404227Y-118847840D01*
X78239029Y-118829227D01*
X78232000Y-118828435D01*
X78224971Y-118829227D01*
X78059772Y-118847840D01*
X78059769Y-118847840D01*
X78052745Y-118848632D01*
X78046073Y-118850966D01*
X78046067Y-118850968D01*
X77889157Y-118905873D01*
X77889150Y-118905876D01*
X77882478Y-118908211D01*
X77876492Y-118911971D01*
X77876486Y-118911975D01*
X77735733Y-119000416D01*
X77735726Y-119000421D01*
X77729738Y-119004184D01*
X77726913Y-119007008D01*
X77691775Y-119026429D01*
X77650159Y-119033500D01*
X72209841Y-119033500D01*
X72168225Y-119026429D01*
X72133086Y-119007008D01*
X72130262Y-119004184D01*
X72124268Y-119000418D01*
X72124266Y-119000416D01*
X71983513Y-118911975D01*
X71983510Y-118911973D01*
X71977522Y-118908211D01*
X71970846Y-118905875D01*
X71970842Y-118905873D01*
X71813932Y-118850968D01*
X71813928Y-118850967D01*
X71807255Y-118848632D01*
X71800228Y-118847840D01*
X71800227Y-118847840D01*
X71635029Y-118829227D01*
X71628000Y-118828435D01*
X71620971Y-118829227D01*
X71455772Y-118847840D01*
X71455769Y-118847840D01*
X71448745Y-118848632D01*
X71442073Y-118850966D01*
X71442067Y-118850968D01*
X71285157Y-118905873D01*
X71285150Y-118905876D01*
X71278478Y-118908211D01*
X71272492Y-118911971D01*
X71272486Y-118911975D01*
X71131733Y-119000416D01*
X71131726Y-119000421D01*
X71125738Y-119004184D01*
X71120733Y-119009188D01*
X71120729Y-119009192D01*
X71003192Y-119126729D01*
X71003188Y-119126733D01*
X70998184Y-119131738D01*
X70994421Y-119137726D01*
X70994416Y-119137733D01*
X70905975Y-119278486D01*
X70905971Y-119278492D01*
X70902211Y-119284478D01*
X70899876Y-119291150D01*
X70899873Y-119291157D01*
X70844968Y-119448067D01*
X70844966Y-119448073D01*
X70842632Y-119454745D01*
X70841840Y-119461769D01*
X70841840Y-119461772D01*
X70826322Y-119599500D01*
X70822435Y-119634000D01*
X50250000Y-119634000D01*
X50250000Y-118888590D01*
X50250000Y-118872000D01*
X50292000Y-118872000D01*
X50292000Y-117000000D01*
X100594435Y-117000000D01*
X100614632Y-117179255D01*
X100616967Y-117185928D01*
X100616968Y-117185932D01*
X100671873Y-117342842D01*
X100671875Y-117342846D01*
X100674211Y-117349522D01*
X100770184Y-117502262D01*
X100897738Y-117629816D01*
X101050478Y-117725789D01*
X101220745Y-117785368D01*
X101400000Y-117805565D01*
X101579255Y-117785368D01*
X101749522Y-117725789D01*
X101902262Y-117629816D01*
X101905086Y-117626991D01*
X101940225Y-117607571D01*
X101981841Y-117600500D01*
X118168159Y-117600500D01*
X118209775Y-117607571D01*
X118244913Y-117626991D01*
X118247738Y-117629816D01*
X118400478Y-117725789D01*
X118570745Y-117785368D01*
X118750000Y-117805565D01*
X118929255Y-117785368D01*
X119099522Y-117725789D01*
X119252262Y-117629816D01*
X119379816Y-117502262D01*
X119475789Y-117349522D01*
X119535368Y-117179255D01*
X119555565Y-117000000D01*
X119535368Y-116820745D01*
X119475789Y-116650478D01*
X119379816Y-116497738D01*
X119252262Y-116370184D01*
X119246268Y-116366418D01*
X119246266Y-116366416D01*
X119105513Y-116277975D01*
X119105510Y-116277973D01*
X119099522Y-116274211D01*
X119092846Y-116271875D01*
X119092842Y-116271873D01*
X118935932Y-116216968D01*
X118935928Y-116216967D01*
X118929255Y-116214632D01*
X118922228Y-116213840D01*
X118922227Y-116213840D01*
X118757029Y-116195227D01*
X118750000Y-116194435D01*
X118742971Y-116195227D01*
X118577772Y-116213840D01*
X118577769Y-116213840D01*
X118570745Y-116214632D01*
X118564073Y-116216966D01*
X118564067Y-116216968D01*
X118407157Y-116271873D01*
X118407150Y-116271876D01*
X118400478Y-116274211D01*
X118394492Y-116277971D01*
X118394486Y-116277975D01*
X118253733Y-116366416D01*
X118253726Y-116366421D01*
X118247738Y-116370184D01*
X118244913Y-116373008D01*
X118209775Y-116392429D01*
X118168159Y-116399500D01*
X101981841Y-116399500D01*
X101940225Y-116392429D01*
X101905086Y-116373008D01*
X101902262Y-116370184D01*
X101896268Y-116366418D01*
X101896266Y-116366416D01*
X101755513Y-116277975D01*
X101755510Y-116277973D01*
X101749522Y-116274211D01*
X101742846Y-116271875D01*
X101742842Y-116271873D01*
X101585932Y-116216968D01*
X101585928Y-116216967D01*
X101579255Y-116214632D01*
X101572228Y-116213840D01*
X101572227Y-116213840D01*
X101407029Y-116195227D01*
X101400000Y-116194435D01*
X101392971Y-116195227D01*
X101227772Y-116213840D01*
X101227769Y-116213840D01*
X101220745Y-116214632D01*
X101214073Y-116216966D01*
X101214067Y-116216968D01*
X101057157Y-116271873D01*
X101057150Y-116271876D01*
X101050478Y-116274211D01*
X101044492Y-116277971D01*
X101044486Y-116277975D01*
X100903733Y-116366416D01*
X100903726Y-116366421D01*
X100897738Y-116370184D01*
X100892733Y-116375188D01*
X100892729Y-116375192D01*
X100775192Y-116492729D01*
X100775188Y-116492733D01*
X100770184Y-116497738D01*
X100766421Y-116503726D01*
X100766416Y-116503733D01*
X100677975Y-116644486D01*
X100677971Y-116644492D01*
X100674211Y-116650478D01*
X100671876Y-116657150D01*
X100671873Y-116657157D01*
X100616968Y-116814067D01*
X100616966Y-116814073D01*
X100614632Y-116820745D01*
X100594435Y-117000000D01*
X50292000Y-117000000D01*
X50292000Y-115062000D01*
X50250000Y-115062000D01*
X50250000Y-98126000D01*
X50266881Y-98063000D01*
X50313000Y-98016881D01*
X50376000Y-98000000D01*
X51025826Y-98000000D01*
X137710000Y-98000000D01*
X137710460Y-98000000D01*
X137737490Y-98033832D01*
G37*
%TD.AperFunction*%
%TD*%
%TA.AperFunction,Conductor*%
%TO.N,GND*%
G36*
X85182000Y-53356881D02*
G01*
X85228119Y-53403000D01*
X85245000Y-53466000D01*
X85245000Y-79249000D01*
X85228119Y-79312000D01*
X85182000Y-79358119D01*
X85119000Y-79375000D01*
X70766000Y-79375000D01*
X70703000Y-79358119D01*
X70656881Y-79312000D01*
X70640000Y-79249000D01*
X70640000Y-73976741D01*
X71417786Y-73976741D01*
X71417787Y-73976893D01*
X71419511Y-74267890D01*
X71419559Y-74275957D01*
X71421647Y-74283749D01*
X71452657Y-74399475D01*
X71452659Y-74399483D01*
X71453726Y-74403462D01*
X71455303Y-74407270D01*
X71455305Y-74407275D01*
X71465442Y-74431749D01*
X71465443Y-74431750D01*
X71469564Y-74441698D01*
X71471621Y-74445262D01*
X71471626Y-74445271D01*
X71531480Y-74548949D01*
X71531482Y-74548951D01*
X71535569Y-74556031D01*
X71541329Y-74561822D01*
X71541332Y-74561826D01*
X71589132Y-74609884D01*
X71589133Y-74609885D01*
X71985115Y-75005867D01*
X72038959Y-75059423D01*
X72153283Y-75125428D01*
X72181605Y-75137159D01*
X72191555Y-75141280D01*
X72319058Y-75175442D01*
X72618386Y-75177214D01*
X72731276Y-75177214D01*
X72731614Y-75177214D01*
X73030943Y-75175442D01*
X73158448Y-75141279D01*
X73186770Y-75129548D01*
X73196714Y-75125429D01*
X73311040Y-75059424D01*
X73364885Y-75005867D01*
X73760867Y-74609885D01*
X73814441Y-74556017D01*
X73880446Y-74441674D01*
X73896267Y-74403480D01*
X73930440Y-74275970D01*
X73932214Y-73976614D01*
X73932214Y-73863386D01*
X73930442Y-73564058D01*
X73896280Y-73436555D01*
X73892159Y-73426605D01*
X73880428Y-73398283D01*
X73814423Y-73283959D01*
X73760867Y-73230115D01*
X73364885Y-72834133D01*
X73311040Y-72780576D01*
X73303965Y-72776491D01*
X73303962Y-72776489D01*
X73200283Y-72716631D01*
X73200276Y-72716627D01*
X73196714Y-72714571D01*
X73192908Y-72712994D01*
X73192901Y-72712991D01*
X73162277Y-72700306D01*
X73162273Y-72700304D01*
X73158462Y-72698726D01*
X73154478Y-72697658D01*
X73154474Y-72697657D01*
X73038749Y-72666647D01*
X73030957Y-72664559D01*
X73022891Y-72664511D01*
X73022890Y-72664511D01*
X72731893Y-72662787D01*
X72731741Y-72662786D01*
X72731614Y-72662786D01*
X72618386Y-72662786D01*
X72618258Y-72662786D01*
X72618108Y-72662787D01*
X72327099Y-72664512D01*
X72327097Y-72664512D01*
X72319030Y-72664560D01*
X72311237Y-72666648D01*
X72311233Y-72666649D01*
X72195501Y-72697665D01*
X72195485Y-72697670D01*
X72191520Y-72698733D01*
X72187717Y-72700308D01*
X72187709Y-72700311D01*
X72157143Y-72712972D01*
X72157131Y-72712977D01*
X72153326Y-72714554D01*
X72149759Y-72716612D01*
X72149751Y-72716617D01*
X72046063Y-72776471D01*
X72046057Y-72776475D01*
X72038983Y-72780559D01*
X72033190Y-72786319D01*
X72033185Y-72786324D01*
X71985115Y-72834133D01*
X71589133Y-73230115D01*
X71541341Y-73278163D01*
X71541337Y-73278167D01*
X71535577Y-73283959D01*
X71531492Y-73291034D01*
X71531490Y-73291037D01*
X71471631Y-73394715D01*
X71471625Y-73394726D01*
X71469572Y-73398283D01*
X71467998Y-73402082D01*
X71467995Y-73402089D01*
X71457840Y-73426605D01*
X71457841Y-73426605D01*
X71453720Y-73436555D01*
X71452654Y-73440531D01*
X71452652Y-73440539D01*
X71421647Y-73556259D01*
X71421646Y-73556263D01*
X71419558Y-73564058D01*
X71417786Y-73863386D01*
X71417786Y-73976614D01*
X71417786Y-73976741D01*
X70640000Y-73976741D01*
X70640000Y-70156614D01*
X71417786Y-70156614D01*
X71419353Y-70790053D01*
X71419536Y-70857833D01*
X71419536Y-70857839D01*
X71419559Y-70865999D01*
X71421671Y-70873882D01*
X71421672Y-70873888D01*
X71452089Y-70987406D01*
X71453721Y-70993497D01*
X71469572Y-71031766D01*
X71471629Y-71035328D01*
X71471632Y-71035335D01*
X71471633Y-71035336D01*
X71535573Y-71146086D01*
X71628914Y-71239427D01*
X71743233Y-71305428D01*
X71771555Y-71317159D01*
X71777699Y-71319704D01*
X71777703Y-71319705D01*
X71781505Y-71321280D01*
X71909002Y-71355441D01*
X71984947Y-71355647D01*
X72618386Y-71357214D01*
X72731614Y-71357214D01*
X73365053Y-71355647D01*
X73365052Y-71355647D01*
X73440999Y-71355441D01*
X73568497Y-71321279D01*
X73606766Y-71305428D01*
X73721086Y-71239427D01*
X73814427Y-71146086D01*
X73880428Y-71031767D01*
X73892159Y-71003445D01*
X73896280Y-70993495D01*
X73930441Y-70865998D01*
X73930647Y-70790053D01*
X73932214Y-70156614D01*
X73932214Y-70043386D01*
X73930647Y-69409947D01*
X73930441Y-69334002D01*
X73896280Y-69206505D01*
X73892159Y-69196555D01*
X73880428Y-69168233D01*
X73814427Y-69053914D01*
X73721086Y-68960573D01*
X73713934Y-68956444D01*
X73713933Y-68956443D01*
X73610335Y-68896632D01*
X73610328Y-68896629D01*
X73606766Y-68894572D01*
X73602954Y-68892993D01*
X73572310Y-68880300D01*
X73572305Y-68880298D01*
X73568497Y-68878721D01*
X73562406Y-68877089D01*
X73448888Y-68846672D01*
X73448882Y-68846671D01*
X73440999Y-68844559D01*
X73432839Y-68844536D01*
X73432833Y-68844536D01*
X73365053Y-68844353D01*
X72731614Y-68842786D01*
X72618386Y-68842786D01*
X71984947Y-68844353D01*
X71917167Y-68844536D01*
X71917160Y-68844536D01*
X71909002Y-68844559D01*
X71901119Y-68846671D01*
X71901112Y-68846672D01*
X71785486Y-68877653D01*
X71785481Y-68877654D01*
X71781505Y-68878720D01*
X71777716Y-68880288D01*
X71777699Y-68880295D01*
X71771555Y-68882841D01*
X71747044Y-68892993D01*
X71747037Y-68892996D01*
X71743233Y-68894572D01*
X71739676Y-68896625D01*
X71739663Y-68896632D01*
X71636066Y-68956443D01*
X71636061Y-68956446D01*
X71628914Y-68960573D01*
X71623075Y-68966411D01*
X71623071Y-68966415D01*
X71541415Y-69048071D01*
X71541411Y-69048075D01*
X71535573Y-69053914D01*
X71531446Y-69061061D01*
X71531443Y-69061066D01*
X71471632Y-69164664D01*
X71471625Y-69164676D01*
X71469572Y-69168234D01*
X71467996Y-69172038D01*
X71467993Y-69172045D01*
X71455300Y-69202689D01*
X71455296Y-69202699D01*
X71453721Y-69206503D01*
X71452654Y-69210484D01*
X71452653Y-69210488D01*
X71421672Y-69326111D01*
X71421670Y-69326118D01*
X71419559Y-69334001D01*
X71419536Y-69342159D01*
X71419536Y-69342166D01*
X71419353Y-69409947D01*
X71417786Y-70043386D01*
X71417786Y-70156614D01*
X70640000Y-70156614D01*
X70640000Y-56705053D01*
X76919353Y-56705053D01*
X76919536Y-56772832D01*
X76919536Y-56772838D01*
X76919559Y-56780998D01*
X76921671Y-56788881D01*
X76921672Y-56788887D01*
X76933655Y-56833609D01*
X76953720Y-56908495D01*
X76955290Y-56912287D01*
X76955295Y-56912300D01*
X76957841Y-56918445D01*
X76969572Y-56946767D01*
X76971628Y-56950329D01*
X76971632Y-56950336D01*
X77031443Y-57053933D01*
X77035573Y-57061086D01*
X77128914Y-57154427D01*
X77243234Y-57220428D01*
X77281503Y-57236279D01*
X77409001Y-57270441D01*
X77484947Y-57270647D01*
X78222145Y-57272559D01*
X78327855Y-57272559D01*
X79065053Y-57270647D01*
X79065052Y-57270647D01*
X79140998Y-57270441D01*
X79268495Y-57236280D01*
X79278445Y-57232159D01*
X79306767Y-57220428D01*
X79421086Y-57154427D01*
X79514427Y-57061086D01*
X79580428Y-56946766D01*
X79596279Y-56908497D01*
X79601400Y-56889383D01*
X79634186Y-56832722D01*
X79690978Y-56800157D01*
X79756443Y-56800482D01*
X79812909Y-56833609D01*
X79834652Y-56855701D01*
X79841509Y-56862668D01*
X79841826Y-56862980D01*
X79841871Y-56863025D01*
X80042833Y-57061086D01*
X80137539Y-57154424D01*
X80251865Y-57220429D01*
X80290117Y-57236274D01*
X80417622Y-57270441D01*
X80762145Y-57272559D01*
X80867530Y-57272559D01*
X80867855Y-57272559D01*
X81212387Y-57270440D01*
X81339895Y-57236269D01*
X81378109Y-57220440D01*
X81492446Y-57154435D01*
X81589185Y-57059094D01*
X82575105Y-57059094D01*
X82581967Y-57070812D01*
X82667211Y-57154804D01*
X82679873Y-57164445D01*
X82785395Y-57225368D01*
X82792777Y-57229008D01*
X82823401Y-57241693D01*
X82831204Y-57244342D01*
X82948844Y-57275865D01*
X82964693Y-57278003D01*
X83301128Y-57280092D01*
X83301675Y-57280094D01*
X83408325Y-57280094D01*
X83408871Y-57280092D01*
X83745311Y-57278002D01*
X83761168Y-57275863D01*
X83878814Y-57244335D01*
X83886596Y-57241694D01*
X83917206Y-57229014D01*
X83924577Y-57225380D01*
X84030106Y-57164459D01*
X84042777Y-57154811D01*
X84128030Y-57070809D01*
X84134890Y-57059094D01*
X84128115Y-57047325D01*
X83366729Y-56285939D01*
X83354999Y-56279167D01*
X83343271Y-56285938D01*
X82581879Y-57047329D01*
X82575105Y-57059094D01*
X81589185Y-57059094D01*
X81788491Y-56862668D01*
X81989918Y-56658003D01*
X82046787Y-56624767D01*
X82112660Y-56624771D01*
X82169530Y-56658016D01*
X82199120Y-56688088D01*
X82210835Y-56694958D01*
X82222604Y-56688184D01*
X82984059Y-55926730D01*
X82990832Y-55914999D01*
X83719167Y-55914999D01*
X83725939Y-55926729D01*
X84487390Y-56688180D01*
X84499164Y-56694957D01*
X84510879Y-56688087D01*
X84594820Y-56602780D01*
X84604436Y-56590143D01*
X84665368Y-56484604D01*
X84669004Y-56477230D01*
X84679160Y-56452713D01*
X84679159Y-56452713D01*
X84681704Y-56446569D01*
X84684346Y-56438785D01*
X84715845Y-56321220D01*
X84717982Y-56305203D01*
X84718223Y-56236582D01*
X84718224Y-56236140D01*
X84718224Y-55593862D01*
X84718223Y-55593418D01*
X84718223Y-55593417D01*
X84717981Y-55524783D01*
X84715843Y-55508760D01*
X84684342Y-55391203D01*
X84681694Y-55383404D01*
X84669013Y-55352790D01*
X84665373Y-55345408D01*
X84604444Y-55239868D01*
X84594828Y-55227231D01*
X84510877Y-55141911D01*
X84499162Y-55135042D01*
X84487391Y-55141817D01*
X83725938Y-55903271D01*
X83719167Y-55914999D01*
X82990832Y-55914999D01*
X82984060Y-55903270D01*
X82222608Y-55141818D01*
X82210835Y-55135042D01*
X82199120Y-55141912D01*
X82169532Y-55171984D01*
X82112662Y-55205230D01*
X82046788Y-55205234D01*
X81989915Y-55171995D01*
X81989904Y-55171984D01*
X81788491Y-54967332D01*
X81589184Y-54770903D01*
X82575106Y-54770903D01*
X82581881Y-54782671D01*
X83343270Y-55544060D01*
X83354999Y-55550832D01*
X83366730Y-55544059D01*
X84128119Y-54782669D01*
X84134892Y-54770903D01*
X84128031Y-54759186D01*
X84042791Y-54675198D01*
X84030125Y-54665553D01*
X83924604Y-54604631D01*
X83917230Y-54600995D01*
X83892713Y-54590840D01*
X83886569Y-54588295D01*
X83878785Y-54585653D01*
X83761136Y-54554131D01*
X83745293Y-54551995D01*
X83408872Y-54549907D01*
X83408325Y-54549906D01*
X83301675Y-54549906D01*
X83301127Y-54549907D01*
X82964704Y-54551995D01*
X82948862Y-54554131D01*
X82831209Y-54585655D01*
X82823429Y-54588296D01*
X82792764Y-54600997D01*
X82785403Y-54604627D01*
X82679873Y-54665554D01*
X82667211Y-54675195D01*
X82581967Y-54759187D01*
X82575106Y-54770903D01*
X81589184Y-54770903D01*
X81492462Y-54675577D01*
X81474402Y-54665150D01*
X81381705Y-54611631D01*
X81381700Y-54611628D01*
X81378138Y-54609572D01*
X81366199Y-54604627D01*
X81349816Y-54597841D01*
X81343671Y-54595296D01*
X81343672Y-54595296D01*
X81339866Y-54593720D01*
X81335885Y-54592653D01*
X81335881Y-54592652D01*
X81220153Y-54561645D01*
X81220151Y-54561644D01*
X81212363Y-54559558D01*
X81204302Y-54559508D01*
X81204299Y-54559508D01*
X80868091Y-54557442D01*
X80867987Y-54557441D01*
X80867855Y-54557441D01*
X80762145Y-54557441D01*
X80762012Y-54557441D01*
X80761908Y-54557442D01*
X80425699Y-54559508D01*
X80425695Y-54559508D01*
X80417636Y-54559558D01*
X80409847Y-54561644D01*
X80409846Y-54561645D01*
X80294116Y-54592653D01*
X80294112Y-54592654D01*
X80290131Y-54593721D01*
X80286327Y-54595296D01*
X80286317Y-54595300D01*
X80261809Y-54605451D01*
X80261809Y-54605452D01*
X80255670Y-54607995D01*
X80251865Y-54609571D01*
X80248314Y-54611620D01*
X80248298Y-54611629D01*
X80144487Y-54671564D01*
X80144483Y-54671566D01*
X80137539Y-54675576D01*
X80131829Y-54681202D01*
X80131823Y-54681208D01*
X79841786Y-54967058D01*
X79841716Y-54967127D01*
X79841509Y-54967332D01*
X79841322Y-54967521D01*
X79841195Y-54967649D01*
X79812909Y-54996390D01*
X79756443Y-55029517D01*
X79690979Y-55029842D01*
X79634187Y-54997278D01*
X79601400Y-54940617D01*
X79596279Y-54921503D01*
X79580428Y-54883234D01*
X79514427Y-54768914D01*
X79421086Y-54675573D01*
X79413933Y-54671443D01*
X79310336Y-54611632D01*
X79310329Y-54611628D01*
X79306767Y-54609572D01*
X79286064Y-54600997D01*
X79278445Y-54597841D01*
X79272300Y-54595295D01*
X79272287Y-54595290D01*
X79268495Y-54593720D01*
X79264509Y-54592652D01*
X79148887Y-54561672D01*
X79148881Y-54561671D01*
X79140998Y-54559559D01*
X79132838Y-54559536D01*
X79132832Y-54559536D01*
X79065053Y-54559353D01*
X78327855Y-54557441D01*
X78222145Y-54557441D01*
X77484947Y-54559353D01*
X77417166Y-54559536D01*
X77417159Y-54559536D01*
X77409001Y-54559559D01*
X77401118Y-54561670D01*
X77401111Y-54561672D01*
X77285488Y-54592653D01*
X77285484Y-54592654D01*
X77281503Y-54593721D01*
X77277699Y-54595296D01*
X77277689Y-54595300D01*
X77247045Y-54607993D01*
X77247041Y-54607995D01*
X77243234Y-54609572D01*
X77239676Y-54611625D01*
X77239664Y-54611632D01*
X77136066Y-54671443D01*
X77136061Y-54671446D01*
X77128914Y-54675573D01*
X77123075Y-54681411D01*
X77123071Y-54681415D01*
X77041415Y-54763071D01*
X77041411Y-54763075D01*
X77035573Y-54768914D01*
X77031446Y-54776061D01*
X77031443Y-54776066D01*
X76971632Y-54879663D01*
X76971625Y-54879676D01*
X76969572Y-54883233D01*
X76967996Y-54887037D01*
X76967993Y-54887044D01*
X76957841Y-54911555D01*
X76955295Y-54917699D01*
X76955288Y-54917716D01*
X76953720Y-54921505D01*
X76952655Y-54925480D01*
X76952653Y-54925486D01*
X76921672Y-55041112D01*
X76921671Y-55041119D01*
X76919559Y-55049002D01*
X76919536Y-55057160D01*
X76919536Y-55057167D01*
X76919353Y-55124947D01*
X76919353Y-56705053D01*
X70640000Y-56705053D01*
X70640000Y-53466000D01*
X70656881Y-53403000D01*
X70703000Y-53356881D01*
X70766000Y-53340000D01*
X85119000Y-53340000D01*
X85182000Y-53356881D01*
G37*
%TD.AperFunction*%
%TD*%
M02*
