%TF.GenerationSoftware,KiCad,Pcbnew,(7.0.0)*%
%TF.CreationDate,2023-04-01T11:09:39+07:00*%
%TF.ProjectId,gut-kontrol-1kW,6775742d-6b6f-46e7-9472-6f6c2d316b57,rev?*%
%TF.SameCoordinates,Original*%
%TF.FileFunction,Paste,Top*%
%TF.FilePolarity,Positive*%
%FSLAX46Y46*%
G04 Gerber Fmt 4.6, Leading zero omitted, Abs format (unit mm)*
G04 Created by KiCad (PCBNEW (7.0.0)) date 2023-04-01 11:09:39*
%MOMM*%
%LPD*%
G01*
G04 APERTURE LIST*
G04 Aperture macros list*
%AMRoundRect*
0 Rectangle with rounded corners*
0 $1 Rounding radius*
0 $2 $3 $4 $5 $6 $7 $8 $9 X,Y pos of 4 corners*
0 Add a 4 corners polygon primitive as box body*
4,1,4,$2,$3,$4,$5,$6,$7,$8,$9,$2,$3,0*
0 Add four circle primitives for the rounded corners*
1,1,$1+$1,$2,$3*
1,1,$1+$1,$4,$5*
1,1,$1+$1,$6,$7*
1,1,$1+$1,$8,$9*
0 Add four rect primitives between the rounded corners*
20,1,$1+$1,$2,$3,$4,$5,0*
20,1,$1+$1,$4,$5,$6,$7,0*
20,1,$1+$1,$6,$7,$8,$9,0*
20,1,$1+$1,$8,$9,$2,$3,0*%
G04 Aperture macros list end*
%ADD10RoundRect,0.250000X0.337500X0.475000X-0.337500X0.475000X-0.337500X-0.475000X0.337500X-0.475000X0*%
%ADD11RoundRect,0.250000X-0.350000X-0.450000X0.350000X-0.450000X0.350000X0.450000X-0.350000X0.450000X0*%
%ADD12RoundRect,0.250000X0.450000X-0.350000X0.450000X0.350000X-0.450000X0.350000X-0.450000X-0.350000X0*%
%ADD13RoundRect,0.250000X-0.337500X-0.475000X0.337500X-0.475000X0.337500X0.475000X-0.337500X0.475000X0*%
%ADD14RoundRect,0.250000X0.350000X0.450000X-0.350000X0.450000X-0.350000X-0.450000X0.350000X-0.450000X0*%
%ADD15R,1.800000X2.500000*%
%ADD16RoundRect,0.150000X-0.150000X0.875000X-0.150000X-0.875000X0.150000X-0.875000X0.150000X0.875000X0*%
G04 APERTURE END LIST*
D10*
%TO.C,C1*%
X60749000Y-96266000D03*
X58674000Y-96266000D03*
%TD*%
D11*
%TO.C,R17*%
X78530000Y-62230000D03*
X80530000Y-62230000D03*
%TD*%
D12*
%TO.C,R6*%
X79577000Y-105317064D03*
X79577000Y-103317064D03*
%TD*%
D13*
%TO.C,C15*%
X75952500Y-59690000D03*
X78027500Y-59690000D03*
%TD*%
D14*
%TO.C,R12*%
X90690000Y-93964000D03*
X88690000Y-93964000D03*
%TD*%
D15*
%TO.C,D3*%
X113025531Y-102122935D03*
X113025531Y-106122935D03*
%TD*%
D14*
%TO.C,R13*%
X103390000Y-93964000D03*
X101390000Y-93964000D03*
%TD*%
D12*
%TO.C,R7*%
X109925532Y-105300000D03*
X109925532Y-103300000D03*
%TD*%
D15*
%TO.C,D2*%
X82676999Y-102139999D03*
X82676999Y-106139999D03*
%TD*%
D11*
%TO.C,R18*%
X108530000Y-62230000D03*
X110530000Y-62230000D03*
%TD*%
D12*
%TO.C,R9*%
X98580000Y-96234000D03*
X98580000Y-94234000D03*
%TD*%
D13*
%TO.C,C14*%
X45952500Y-59690000D03*
X48027500Y-59690000D03*
%TD*%
%TO.C,C16*%
X105952500Y-59690000D03*
X108027500Y-59690000D03*
%TD*%
D12*
%TO.C,R2*%
X55880000Y-96234000D03*
X55880000Y-94234000D03*
%TD*%
D10*
%TO.C,C5*%
X90742500Y-96164000D03*
X88667500Y-96164000D03*
%TD*%
%TO.C,C6*%
X120742500Y-96164000D03*
X118667500Y-96164000D03*
%TD*%
D12*
%TO.C,R11*%
X128580000Y-96234000D03*
X128580000Y-94234000D03*
%TD*%
D16*
%TO.C,U1*%
X66975000Y-100114000D03*
X65705000Y-100114000D03*
X64435000Y-100114000D03*
X63165000Y-100114000D03*
X61895000Y-100114000D03*
X60625000Y-100114000D03*
X59355000Y-100114000D03*
X58085000Y-100114000D03*
X58085000Y-109414000D03*
X59355000Y-109414000D03*
X60625000Y-109414000D03*
X61895000Y-109414000D03*
X63165000Y-109414000D03*
X64435000Y-109414000D03*
X65705000Y-109414000D03*
X66975000Y-109414000D03*
%TD*%
D10*
%TO.C,C11*%
X52875000Y-59055000D03*
X50800000Y-59055000D03*
%TD*%
D14*
%TO.C,R14*%
X120690000Y-93964000D03*
X118690000Y-93964000D03*
%TD*%
D12*
%TO.C,R10*%
X115880000Y-96234000D03*
X115880000Y-94234000D03*
%TD*%
D15*
%TO.C,D1*%
X54924935Y-100962935D03*
X54924935Y-104962935D03*
%TD*%
D14*
%TO.C,R15*%
X133390000Y-93964000D03*
X131390000Y-93964000D03*
%TD*%
D13*
%TO.C,C2*%
X57962500Y-112404000D03*
X60037500Y-112404000D03*
%TD*%
D12*
%TO.C,R3*%
X68580000Y-96234000D03*
X68580000Y-94234000D03*
%TD*%
D16*
%TO.C,U4*%
X126975000Y-100114000D03*
X125705000Y-100114000D03*
X124435000Y-100114000D03*
X123165000Y-100114000D03*
X121895000Y-100114000D03*
X120625000Y-100114000D03*
X119355000Y-100114000D03*
X118085000Y-100114000D03*
X118085000Y-109414000D03*
X119355000Y-109414000D03*
X120625000Y-109414000D03*
X121895000Y-109414000D03*
X123165000Y-109414000D03*
X124435000Y-109414000D03*
X125705000Y-109414000D03*
X126975000Y-109414000D03*
%TD*%
D12*
%TO.C,R8*%
X85880000Y-96234000D03*
X85880000Y-94234000D03*
%TD*%
D16*
%TO.C,U3*%
X96975000Y-100114000D03*
X95705000Y-100114000D03*
X94435000Y-100114000D03*
X93165000Y-100114000D03*
X91895000Y-100114000D03*
X90625000Y-100114000D03*
X89355000Y-100114000D03*
X88085000Y-100114000D03*
X88085000Y-109414000D03*
X89355000Y-109414000D03*
X90625000Y-109414000D03*
X91895000Y-109414000D03*
X93165000Y-109414000D03*
X94435000Y-109414000D03*
X95705000Y-109414000D03*
X96975000Y-109414000D03*
%TD*%
D10*
%TO.C,C13*%
X112875000Y-59055000D03*
X110800000Y-59055000D03*
%TD*%
D14*
%TO.C,R5*%
X73390000Y-93964000D03*
X71390000Y-93964000D03*
%TD*%
D13*
%TO.C,C3*%
X87962500Y-112404000D03*
X90037500Y-112404000D03*
%TD*%
D12*
%TO.C,R1*%
X51824936Y-104140000D03*
X51824936Y-102140000D03*
%TD*%
D13*
%TO.C,C4*%
X116558500Y-112400000D03*
X118633500Y-112400000D03*
%TD*%
D14*
%TO.C,R4*%
X60690000Y-93964000D03*
X58690000Y-93964000D03*
%TD*%
D10*
%TO.C,C12*%
X82875000Y-59055000D03*
X80800000Y-59055000D03*
%TD*%
D11*
%TO.C,R16*%
X48530000Y-62230000D03*
X50530000Y-62230000D03*
%TD*%
M02*
