M48
; DRILL file {KiCad (7.0.0)} date Sat Apr  1 11:09:37 2023
; FORMAT={-:-/ absolute / inch / decimal}
; #@! TF.CreationDate,2023-04-01T11:09:37+07:00
; #@! TF.GenerationSoftware,Kicad,Pcbnew,(7.0.0)
; #@! TF.FileFunction,Plated,1,2,PTH
FMAT,2
INCH
; #@! TA.AperFunction,Plated,PTH,ComponentDrill
T1C0.0197
; #@! TA.AperFunction,Plated,PTH,ViaDrill
T2C0.0236
; #@! TA.AperFunction,Plated,PTH,ComponentDrill
T3C0.0315
; #@! TA.AperFunction,Plated,PTH,ComponentDrill
T4C0.0394
; #@! TA.AperFunction,Plated,PTH,ComponentDrill
T5C0.0433
; #@! TA.AperFunction,Plated,PTH,ComponentDrill
T6C0.0472
; #@! TA.AperFunction,Plated,PTH,ComponentDrill
T7C0.0748
; #@! TA.AperFunction,Plated,PTH,ComponentDrill
T8C0.0787
; #@! TA.AperFunction,Plated,PTH,ComponentDrill
T9C0.1260
%
G90
G05
T1
X2.4419Y-2.5594
X2.4419Y-2.6118
X2.4419Y-2.6646
X2.4419Y-2.7169
X2.4419Y-2.9531
X2.4419Y-3.0055
X2.4419Y-3.0583
X2.4419Y-3.1106
X2.4573Y-2.5122
X2.4573Y-2.7642
X2.4573Y-2.9059
X2.4573Y-3.1579
X2.4978Y-2.4827
X2.4978Y-2.7937
X2.4978Y-2.8764
X2.4978Y-3.1874
X2.5474Y-2.4827
X2.5474Y-2.7937
X2.5474Y-2.8764
X2.5474Y-3.1874
X2.588Y-2.5122
X2.588Y-2.7642
X2.588Y-2.9059
X2.588Y-3.1579
X2.6033Y-2.5594
X2.6033Y-2.6118
X2.6033Y-2.6646
X2.6033Y-2.7169
X2.6033Y-2.9531
X2.6033Y-3.0055
X2.6033Y-3.0583
X2.6033Y-3.1106
X3.623Y-2.5594
X3.623Y-2.6118
X3.623Y-2.6646
X3.623Y-2.7169
X3.623Y-2.9531
X3.623Y-3.0055
X3.623Y-3.0583
X3.623Y-3.1106
X3.6384Y-2.5122
X3.6384Y-2.7642
X3.6384Y-2.9059
X3.6384Y-3.1579
X3.6789Y-2.4827
X3.6789Y-2.7937
X3.6789Y-2.8764
X3.6789Y-3.1874
X3.7285Y-2.4827
X3.7285Y-2.7937
X3.7285Y-2.8764
X3.7285Y-3.1874
X3.7691Y-2.5122
X3.7691Y-2.7642
X3.7691Y-2.9059
X3.7691Y-3.1579
X3.7844Y-2.5594
X3.7844Y-2.6118
X3.7844Y-2.6646
X3.7844Y-2.7169
X3.7844Y-2.9531
X3.7844Y-3.0055
X3.7844Y-3.0583
X3.7844Y-3.1106
X4.8041Y-2.5594
X4.8041Y-2.6118
X4.8041Y-2.6646
X4.8041Y-2.7169
X4.8041Y-2.9531
X4.8041Y-3.0055
X4.8041Y-3.0583
X4.8041Y-3.1106
X4.8195Y-2.5122
X4.8195Y-2.7642
X4.8195Y-2.9059
X4.8195Y-3.1579
X4.86Y-2.4827
X4.86Y-2.7937
X4.86Y-2.8764
X4.86Y-3.1874
X4.9096Y-2.4827
X4.9096Y-2.7937
X4.9096Y-2.8764
X4.9096Y-3.1874
X4.9502Y-2.5122
X4.9502Y-2.7642
X4.9502Y-2.9059
X4.9502Y-3.1579
X4.9656Y-2.5594
X4.9656Y-2.6118
X4.9656Y-2.6646
X4.9656Y-2.7169
X4.9656Y-2.9531
X4.9656Y-3.0055
X4.9656Y-3.0583
X4.9656Y-3.1106
T2
X1.725Y-2.35
X2.1Y-2.425
X2.2835Y-4.4882
X2.49Y-4.22
X2.555Y-4.0157
X2.59Y-4.23
X2.5984Y-4.0157
X2.82Y-4.71
X2.82Y-4.79
X2.9061Y-2.35
X3.01Y-3.7008
X3.06Y-4.79
X3.08Y-4.71
X3.2811Y-2.425
X3.4646Y-4.4882
X3.6711Y-4.22
X3.765Y-3.875
X3.7711Y-4.23
X3.7795Y-4.0157
X3.9921Y-4.6063
X3.995Y-4.685
X4.0872Y-2.35
X4.1339Y-3.7008
X4.4622Y-2.425
X4.5117Y-4.425
X4.6752Y-4.6063
X4.73Y-4.685
X4.8522Y-4.22
X4.945Y-3.875
X4.9522Y-4.23
X4.9606Y-4.0157
X5.315Y-3.7008
X5.5512Y-2.5591
X5.5512Y-2.6772
X5.5512Y-2.7953
X5.5512Y-2.9134
X5.5512Y-3.0315
X5.5512Y-3.3465
X5.5512Y-3.4252
X5.555Y-2.3772
X5.555Y-2.4259
X5.555Y-3.1646
X5.555Y-3.2133
X5.5836Y-2.3379
X5.5836Y-2.4653
X5.5836Y-3.1253
X5.5836Y-3.2527
X5.6299Y-2.3228
X5.6299Y-2.4803
X5.6299Y-2.5591
X5.6299Y-2.6772
X5.6299Y-2.7953
X5.6299Y-2.9134
X5.6299Y-3.0315
X5.6299Y-3.1102
X5.6299Y-3.2677
X5.6299Y-3.3465
X5.6299Y-3.4252
X5.6762Y-2.3379
X5.6762Y-2.4653
X5.6762Y-3.1253
X5.6762Y-3.2527
X5.7048Y-2.3772
X5.7048Y-2.4259
X5.7048Y-3.1646
X5.7048Y-3.2133
X5.7087Y-2.5591
X5.7087Y-2.6772
X5.7087Y-2.7953
X5.7087Y-2.9134
X5.7087Y-3.0315
X5.7087Y-3.3465
X5.7087Y-3.4252
T3
X1.6801Y-2.7598
X1.6801Y-2.835
X1.6801Y-2.9102
X2.8612Y-2.7598
X2.8612Y-2.835
X2.8612Y-2.9102
X4.0423Y-2.7598
X4.0423Y-2.835
X4.0423Y-2.9102
T4
X1.9006Y-2.2014
X2.0006Y-2.2014
X2.1006Y-2.2014
X3.05Y-4.98
X3.0817Y-2.2014
X3.15Y-4.98
X3.1817Y-2.2014
X3.25Y-4.98
X3.2817Y-2.2014
X3.35Y-4.98
X3.45Y-4.98
X3.55Y-4.98
X3.65Y-4.98
X3.75Y-4.98
X3.85Y-4.98
X3.95Y-4.98
X4.05Y-4.98
X4.15Y-4.98
X4.2628Y-2.2014
X4.3628Y-2.2014
X4.4628Y-2.2014
T5
X2.1988Y-3.5587
X2.2988Y-3.5587
X2.3988Y-3.5587
X2.6988Y-3.5587
X2.7988Y-3.5587
X2.8988Y-3.5587
X3.3799Y-3.5587
X3.4799Y-3.5587
X3.5799Y-3.5587
X3.8799Y-3.5587
X3.9799Y-3.5587
X4.0799Y-3.5587
X4.561Y-3.5587
X4.661Y-3.5587
X4.761Y-3.5587
X5.061Y-3.5587
X5.161Y-3.5587
X5.261Y-3.5587
T6
X1.675Y-4.2919
X1.675Y-4.725
X5.6299Y-2.4016
X5.6299Y-3.189
X5.6299Y-3.9764
X5.6299Y-4.7638
X5.9252Y-2.4016
X5.9252Y-3.189
X5.9252Y-3.9764
X5.9252Y-4.7638
T7
X1.8719Y-4.41
X1.8719Y-4.6069
T9
X1.7323Y-3.3858
X1.7323Y-3.775
X2.5276Y-2.2441
X3.7087Y-2.2441
X4.8898Y-2.2441
T8
G00X2.5226Y-2.5594
M15
G01X2.5226Y-2.7169
M16
G05
G00X2.5226Y-2.9531
M15
G01X2.5226Y-3.1106
M16
G05
G00X3.7037Y-2.5594
M15
G01X3.7037Y-2.7169
M16
G05
G00X3.7037Y-2.9531
M15
G01X3.7037Y-3.1106
M16
G05
G00X4.8848Y-2.5594
M15
G01X4.8848Y-2.7169
M16
G05
G00X4.8848Y-2.9531
M15
G01X4.8848Y-3.1106
M16
G05
T0
M30
